<svg width="31" height="29" viewBox="0 0 31 29" fill="none" xmlns="http://www.w3.org/2000/svg">
<path d="M4.125 28.375H26.875C27.737 28.375 28.5636 28.0501 29.1731 27.4719C29.7826 26.8937 30.125 26.1094 30.125 25.2917V8.33333L22 0.625H4.125C3.26305 0.625 2.4364 0.94985 1.8269 1.52809C1.21741 2.10632 0.875 2.89058 0.875 3.70833V25.2917C0.875 26.1094 1.21741 26.8937 1.8269 27.4719C2.4364 28.0501 3.26305 28.375 4.125 28.375ZM7.375 3.70833H13.875V6.79167H17.125V3.70833H20.375V9.875H7.375V3.70833ZM7.375 16.0417H23.625V25.2917H7.375V16.0417Z" fill="#F8F8F8"/>
</svg>
