<svg width="61" height="61" viewBox="0 0 61 61" fill="none" xmlns="http://www.w3.org/2000/svg">
<path fill-rule="evenodd" clip-rule="evenodd" d="M30.5 0.708252C14.0469 0.708252 0.708374 14.0468 0.708374 30.4999C0.708374 46.953 14.0469 60.2916 30.5 60.2916C46.9532 60.2916 60.2917 46.953 60.2917 30.4999C60.2917 14.0468 46.9532 0.708252 30.5 0.708252ZM21.5815 24.5226C21.0707 24.0293 20.3866 23.7563 19.6765 23.7625C18.9663 23.7686 18.2871 24.0535 17.7849 24.5556C17.2828 25.0578 16.9979 25.737 16.9918 26.4472C16.9856 27.1573 17.2586 27.8414 17.7519 28.3522L28.5852 39.1855C29.0931 39.6933 29.7819 39.9785 30.5 39.9785C31.2182 39.9785 31.9069 39.6933 32.4148 39.1855L43.2482 28.3522C43.7415 27.8414 44.0145 27.1573 44.0083 26.4472C44.0022 25.737 43.7173 25.0578 43.2152 24.5556C42.713 24.0535 42.0337 23.7686 41.3236 23.7625C40.6135 23.7563 39.9294 24.0293 39.4186 24.5226L30.5 33.4412L21.5815 24.5226Z" fill="#733A8E"/>
</svg>
