<svg width="46" height="46" viewBox="0 0 46 46" fill="none" xmlns="http://www.w3.org/2000/svg">
<path d="M26 3C26 2.20435 25.6839 1.44129 25.1213 0.878679C24.5587 0.31607 23.7956 0 23 0C22.2044 0 21.4413 0.31607 20.8787 0.878679C20.3161 1.44129 20 2.20435 20 3V20H3C2.20435 20 1.44129 20.3161 0.878679 20.8787C0.31607 21.4413 0 22.2044 0 23C0 23.7956 0.31607 24.5587 0.878679 25.1213C1.44129 25.6839 2.20435 26 3 26H20V43C20 43.7957 20.3161 44.5587 20.8787 45.1213C21.4413 45.6839 22.2044 46 23 46C23.7956 46 24.5587 45.6839 25.1213 45.1213C25.6839 44.5587 26 43.7957 26 43V26H43C43.7957 26 44.5587 25.6839 45.1213 25.1213C45.6839 24.5587 46 23.7956 46 23C46 22.2044 45.6839 21.4413 45.1213 20.8787C44.5587 20.3161 43.7957 20 43 20H26V3Z" fill="#293CE4"/>
</svg>
