<?xml version="1.0" encoding="utf-8"?>
<!-- Generator: Adobe Illustrator 25.0.0, SVG Export Plug-In . SVG Version: 6.00 Build 0)  -->
<svg version="1.1" id="visual" xmlns="http://www.w3.org/2000/svg" xmlns:xlink="http://www.w3.org/1999/xlink" x="0px" y="0px"
	 viewBox="0 0 1920 1080" style="enable-background:new 0 0 1920 1080;" xml:space="preserve">
<style type="text/css">
	.st0{fill:#BA3838;}
	.st1{fill:#F5730A;}
	.st2{fill:#DA5B09;}
	.st3{fill:#BE4407;}
	.st4{fill:#A32D04;}
	.st5{fill:#871400;}
</style>
<rect class="st0" width="1920" height="1080"/>
<path class="st1" d="M0,794l274-27l275,16l274-82l274-47l274,47l275-16l274-29v425h-274h-275h-274H823H549H274H0V794z"/>
<path class="st2" d="M0,836l274,8l275-114l274,55l274,42l274-8l275,4l274-2v260h-274h-275h-274H823H549H274H0V836z"/>
<path class="st3" d="M0,894l274-29l275-13l274-10l274,72l274-121l275,22l274,103v163h-274h-275h-274H823H549H274H0V894z"/>
<path class="st4" d="M0,910l274,34l275-47l274-26l274,57l274-47l275,71l274-37v166h-274h-275h-274H823H549H274H0V910z"/>
<path class="st5" d="M0,995l274-41l275,18l274,21l274-19l274,50l275-68l274,61v64h-274h-275h-274H823H549H274H0V995z"/>
</svg>
