<svg id="visual" viewBox="0 0 1920 1080" width="1920" height="1080" xmlns="http://www.w3.org/2000/svg" xmlns:xlink="http://www.w3.org/1999/xlink" version="1.1"><rect x="0" y="0" width="1920" height="1080" fill="#931C1C"></rect><path d="M0 794L274 767L549 783L823 701L1097 654L1371 701L1646 685L1920 656L1920 1081L1646 1081L1371 1081L1097 1081L823 1081L549 1081L274 1081L0 1081Z" fill="#f5730a"></path><path d="M0 836L274 844L549 730L823 785L1097 827L1371 819L1646 823L1920 821L1920 1081L1646 1081L1371 1081L1097 1081L823 1081L549 1081L274 1081L0 1081Z" fill="#da5b09"></path><path d="M0 894L274 865L549 852L823 842L1097 914L1371 793L1646 815L1920 918L1920 1081L1646 1081L1371 1081L1097 1081L823 1081L549 1081L274 1081L0 1081Z" fill="#be4407"></path><path d="M0 910L274 944L549 897L823 871L1097 928L1371 881L1646 952L1920 915L1920 1081L1646 1081L1371 1081L1097 1081L823 1081L549 1081L274 1081L0 1081Z" fill="#a32d04"></path><path d="M0 995L274 954L549 972L823 993L1097 974L1371 1024L1646 956L1920 1017L1920 1081L1646 1081L1371 1081L1097 1081L823 1081L549 1081L274 1081L0 1081Z" fill="#871400"></path></svg>