<svg width="45" height="45" viewBox="0 0 45 45" fill="none" xmlns="http://www.w3.org/2000/svg">
<path d="M2.83333 24.9583H17.5833C18.2353 24.9583 18.8606 24.6993 19.3216 24.2383C19.7827 23.7773 20.0417 23.152 20.0417 22.5V2.83333C20.0417 2.18134 19.7827 1.55606 19.3216 1.09503C18.8606 0.634002 18.2353 0.375 17.5833 0.375H2.83333C2.18134 0.375 1.55606 0.634002 1.09503 1.09503C0.634002 1.55606 0.375 2.18134 0.375 2.83333V22.5C0.375 23.152 0.634002 23.7773 1.09503 24.2383C1.55606 24.6993 2.18134 24.9583 2.83333 24.9583ZM0.375 42.1667C0.375 42.8187 0.634002 43.4439 1.09503 43.905C1.55606 44.366 2.18134 44.625 2.83333 44.625H17.5833C18.2353 44.625 18.8606 44.366 19.3216 43.905C19.7827 43.4439 20.0417 42.8187 20.0417 42.1667V32.3333C20.0417 31.6813 19.7827 31.0561 19.3216 30.595C18.8606 30.134 18.2353 29.875 17.5833 29.875H2.83333C2.18134 29.875 1.55606 30.134 1.09503 30.595C0.634002 31.0561 0.375 31.6813 0.375 32.3333V42.1667ZM24.9583 42.1667C24.9583 42.8187 25.2173 43.4439 25.6784 43.905C26.1394 44.366 26.7647 44.625 27.4167 44.625H42.1667C42.8187 44.625 43.4439 44.366 43.905 43.905C44.366 43.4439 44.625 42.8187 44.625 42.1667V24.9583C44.625 24.3063 44.366 23.6811 43.905 23.22C43.4439 22.759 42.8187 22.5 42.1667 22.5H27.4167C26.7647 22.5 26.1394 22.759 25.6784 23.22C25.2173 23.6811 24.9583 24.3063 24.9583 24.9583V42.1667ZM27.4167 17.5833H42.1667C42.8187 17.5833 43.4439 17.3243 43.905 16.8633C44.366 16.4023 44.625 15.777 44.625 15.125V2.83333C44.625 2.18134 44.366 1.55606 43.905 1.09503C43.4439 0.634002 42.8187 0.375 42.1667 0.375H27.4167C26.7647 0.375 26.1394 0.634002 25.6784 1.09503C25.2173 1.55606 24.9583 2.18134 24.9583 2.83333V15.125C24.9583 15.777 25.2173 16.4023 25.6784 16.8633C26.1394 17.3243 26.7647 17.5833 27.4167 17.5833Z" fill="#6B34AC"/>
</svg>
