<svg width="59" height="59" viewBox="0 0 59 59" fill="none" xmlns="http://www.w3.org/2000/svg">
<path d="M9.83333 31.9583H24.5833C25.2353 31.9583 25.8606 31.6993 26.3216 31.2383C26.7827 30.7773 27.0417 30.152 27.0417 29.5V9.83333C27.0417 9.18134 26.7827 8.55606 26.3216 8.09503C25.8606 7.634 25.2353 7.375 24.5833 7.375H9.83333C9.18134 7.375 8.55606 7.634 8.09503 8.09503C7.634 8.55606 7.375 9.18134 7.375 9.83333V29.5C7.375 30.152 7.634 30.7773 8.09503 31.2383C8.55606 31.6993 9.18134 31.9583 9.83333 31.9583ZM7.375 49.1667C7.375 49.8187 7.634 50.4439 8.09503 50.905C8.55606 51.366 9.18134 51.625 9.83333 51.625H24.5833C25.2353 51.625 25.8606 51.366 26.3216 50.905C26.7827 50.4439 27.0417 49.8187 27.0417 49.1667V39.3333C27.0417 38.6813 26.7827 38.0561 26.3216 37.595C25.8606 37.134 25.2353 36.875 24.5833 36.875H9.83333C9.18134 36.875 8.55606 37.134 8.09503 37.595C7.634 38.0561 7.375 38.6813 7.375 39.3333V49.1667ZM31.9583 49.1667C31.9583 49.8187 32.2173 50.4439 32.6784 50.905C33.1394 51.366 33.7647 51.625 34.4167 51.625H49.1667C49.8187 51.625 50.4439 51.366 50.905 50.905C51.366 50.4439 51.625 49.8187 51.625 49.1667V31.9583C51.625 31.3063 51.366 30.6811 50.905 30.22C50.4439 29.759 49.8187 29.5 49.1667 29.5H34.4167C33.7647 29.5 33.1394 29.759 32.6784 30.22C32.2173 30.6811 31.9583 31.3063 31.9583 31.9583V49.1667ZM34.4167 24.5833H49.1667C49.8187 24.5833 50.4439 24.3243 50.905 23.8633C51.366 23.4023 51.625 22.777 51.625 22.125V9.83333C51.625 9.18134 51.366 8.55606 50.905 8.09503C50.4439 7.634 49.8187 7.375 49.1667 7.375H34.4167C33.7647 7.375 33.1394 7.634 32.6784 8.09503C32.2173 8.55606 31.9583 9.18134 31.9583 9.83333V22.125C31.9583 22.777 32.2173 23.4023 32.6784 23.8633C33.1394 24.3243 33.7647 24.5833 34.4167 24.5833Z" fill="#6B34AC"/>
</svg>
