<svg width="53" height="53" viewBox="0 0 53 53" fill="none" xmlns="http://www.w3.org/2000/svg">
<path d="M26.5 0.6875C21.3948 0.6875 16.4042 2.20138 12.1593 5.03769C7.91449 7.874 4.60604 11.9054 2.65236 16.622C0.698669 21.3386 0.187495 26.5286 1.18348 31.5358C2.17946 36.5429 4.63786 41.1423 8.2478 44.7522C11.8577 48.3621 16.4571 50.8205 21.4642 51.8165C26.4714 52.8125 31.6614 52.3013 36.378 50.3476C41.0946 48.394 45.126 45.0855 47.9623 40.8407C50.7986 36.5958 52.3125 31.6052 52.3125 26.5C52.3125 19.6541 49.593 13.0886 44.7522 8.24781C39.9114 3.40702 33.3459 0.6875 26.5 0.6875ZM26.5 43.0938C25.953 43.0938 25.4183 42.9315 24.9635 42.6277C24.5087 42.3238 24.1542 41.8918 23.9449 41.3865C23.7356 40.8811 23.6808 40.3251 23.7875 39.7886C23.8942 39.2521 24.1576 38.7593 24.5444 38.3725C24.9312 37.9858 25.424 37.7224 25.9604 37.6156C26.4969 37.5089 27.053 37.5637 27.5584 37.773C28.0637 37.9823 28.4956 38.3368 28.7995 38.7916C29.1034 39.2464 29.2656 39.7811 29.2656 40.3281C29.2656 41.0616 28.9742 41.7651 28.4556 42.2837C27.9369 42.8024 27.2335 43.0938 26.5 43.0938ZM28.6056 28.7973V33.4085H24.4571V24.6562H28.3751C29.5372 24.6562 30.6517 24.1946 31.4734 23.3729C32.2951 22.5512 32.7568 21.4367 32.7568 20.2746C32.7568 19.1125 32.2951 17.998 31.4734 17.1763C30.6517 16.3545 29.5372 15.8929 28.3751 15.8929H25.6095C24.4486 15.8944 23.3356 16.3562 22.5147 17.1771C21.6938 17.998 21.232 19.1109 21.2306 20.2718V21.4481H17.0821V20.2718C17.0851 18.0116 17.9846 15.8449 19.5833 14.2473C21.182 12.6496 23.3493 11.7515 25.6095 11.75H28.3751C30.6129 11.7551 32.7589 12.6399 34.3501 14.2133C35.9413 15.7867 36.8501 17.9227 36.8803 20.1602C36.9106 22.3978 36.0599 24.5575 34.5118 26.1734C32.9637 27.7893 30.8424 28.7317 28.6056 28.7973Z" fill="#F8F8F8"/>
</svg>
