<svg width="59" height="59" viewBox="0 0 59 59" fill="none" xmlns="http://www.w3.org/2000/svg">
<path d="M21.1663 54.0834C19.9666 54.0763 18.8019 53.6794 17.8475 52.9526L12.7588 49.1667C11.5844 48.2511 10.8053 46.9207 10.5812 45.4485C10.3572 43.9764 10.7054 42.4744 11.5542 41.2509C12.0033 40.5878 12.2887 39.8276 12.387 39.0327C12.4853 38.2378 12.3936 37.431 12.1196 36.6784L11.9721 36.2851C11.7813 35.6039 11.4325 34.9773 10.9541 34.4562C10.4757 33.9351 9.88117 33.5341 9.21875 33.2859H8.82542C7.38944 32.803 6.20191 31.7732 5.5207 30.42C4.8395 29.0668 4.71961 27.4995 5.18708 26.0584L7.20292 19.6667C7.38848 18.9262 7.73013 18.2339 8.20497 17.6361C8.67982 17.0383 9.2769 16.5488 9.95625 16.2005C10.5889 15.8745 11.2811 15.6803 11.991 15.6296C12.7009 15.5789 13.4137 15.6728 14.0863 15.9055C14.8186 16.152 15.6 16.2158 16.3626 16.0916C17.1252 15.9673 17.8459 15.6587 18.4621 15.1926L18.7817 14.9467C19.3395 14.5017 19.7903 13.9371 20.1008 13.2947C20.4114 12.6522 20.5739 11.9483 20.5763 11.2347V10.6447C20.5696 9.14049 21.1575 7.6946 22.2119 6.62181C23.2663 5.54901 24.7018 4.93618 26.2058 4.91675H32.4746C33.2064 4.91872 33.9306 5.06524 34.6056 5.3479C35.2806 5.63055 35.8931 6.04378 36.4079 6.56383C37.4903 7.66465 38.0915 9.15006 38.0796 10.6938V11.3822C38.0671 12.0601 38.2141 12.7314 38.5088 13.342C38.8034 13.9527 39.2374 14.4855 39.7758 14.8976L40.0463 15.0942C40.598 15.508 41.2416 15.7822 41.9222 15.8935C42.6028 16.0048 43.3002 15.9499 43.955 15.7334L44.7908 15.463C45.499 15.2283 46.2472 15.1385 46.9908 15.1992C47.7343 15.2599 48.4581 15.4697 49.1188 15.8161C49.7796 16.1625 50.3638 16.6385 50.8366 17.2156C51.3094 17.7927 51.6611 18.4591 51.8708 19.1751L53.8129 25.3701C54.2623 26.8018 54.1395 28.3519 53.4702 29.695C52.801 31.0381 51.6374 32.0696 50.2238 32.573L49.7321 32.7451C49.0089 32.9819 48.355 33.3927 47.8278 33.9413C47.3006 34.49 46.9161 35.1597 46.7083 35.8917C46.5127 36.5722 46.4663 37.287 46.5723 37.987C46.6784 38.6871 46.9344 39.356 47.3229 39.948L47.9621 40.8822C48.8097 42.1124 49.1546 43.6203 48.9261 45.0967C48.6975 46.5731 47.9128 47.9062 46.7329 48.8226L41.7917 52.633C41.1947 53.0895 40.5106 53.419 39.7815 53.6012C39.0524 53.7834 38.2937 53.8145 37.5522 53.6924C36.8106 53.5703 36.1019 53.2978 35.4696 52.8915C34.8374 52.4853 34.295 51.9539 33.8758 51.3301L33.5808 50.9122C33.1782 50.3071 32.6288 49.8139 31.984 49.4786C31.3392 49.1433 30.6199 48.9768 29.8933 48.9947C29.2 49.0126 28.5206 49.1933 27.91 49.5221C27.2994 49.8509 26.7745 50.3186 26.3779 50.8876L25.8125 51.6988C25.3932 52.327 24.8497 52.8626 24.2155 53.2727C23.5813 53.6829 22.8699 53.9587 22.125 54.0834C21.8062 54.1146 21.4851 54.1146 21.1663 54.0834ZM10.8167 28.5659C12.2049 29.0609 13.4575 29.8749 14.4737 30.9424C15.4899 32.0098 16.2413 33.3009 16.6675 34.7117V35.0067C17.1983 36.4735 17.3726 38.0454 17.176 39.5928C16.9794 41.1402 16.4175 42.6186 15.5367 43.9059C15.3812 44.0777 15.2951 44.3011 15.2951 44.5328C15.2951 44.7645 15.3812 44.9879 15.5367 45.1597L20.8221 49.1667C20.891 49.2209 20.9708 49.2597 21.056 49.2805C21.1412 49.3013 21.2298 49.3036 21.316 49.2873C21.4021 49.271 21.4838 49.2365 21.5555 49.186C21.6272 49.1355 21.6873 49.0703 21.7317 48.9947L22.2971 48.1834C23.1499 46.9512 24.2887 45.9442 25.616 45.2486C26.9433 44.5531 28.4194 44.1897 29.9179 44.1897C31.4164 44.1897 32.8926 44.5531 34.2199 45.2486C35.5472 45.9442 36.686 46.9512 37.5388 48.1834L37.8338 48.6259C37.9394 48.7759 38.0972 48.881 38.2763 48.9209C38.3584 48.933 38.4421 48.9284 38.5224 48.9073C38.6027 48.8861 38.6778 48.849 38.7433 48.798L43.8075 44.963C43.9848 44.8223 44.1014 44.619 44.1334 44.395C44.1654 44.1709 44.1104 43.9431 43.9796 43.7584L43.3404 42.8242C42.5076 41.6098 41.9581 40.2239 41.7326 38.7687C41.5071 37.3135 41.6113 35.8263 42.0375 34.4167C42.4695 32.9353 43.251 31.5792 44.3162 30.4627C45.3815 29.3461 46.6993 28.5017 48.1588 28.0005L48.6504 27.8284C48.8553 27.7463 49.0194 27.5865 49.107 27.3839C49.1945 27.1812 49.1983 26.9522 49.1175 26.7467L47.2 20.6255C47.154 20.5184 47.0866 20.4218 47.0021 20.3415C46.9176 20.2612 46.8177 20.1989 46.7083 20.1584C46.636 20.1217 46.556 20.1026 46.4748 20.1026C46.3936 20.1026 46.3136 20.1217 46.2413 20.1584L45.4054 20.4288C43.9915 20.8955 42.4854 21.0118 41.0166 20.7677C39.5479 20.5236 38.1603 19.9264 36.9733 19.0276L36.875 18.8063C35.736 17.9438 34.8125 16.8289 34.1769 15.5493C33.5414 14.2696 33.2111 12.8601 33.2121 11.4313V10.6692C33.2165 10.4323 33.1283 10.203 32.9663 10.0301C32.8248 9.90227 32.6406 9.8321 32.45 9.83341H26.2058C26.1057 9.83967 26.0078 9.86564 25.9177 9.90983C25.8276 9.95403 25.7471 10.0156 25.6809 10.091C25.6146 10.1663 25.5639 10.254 25.5317 10.3491C25.4994 10.4441 25.4863 10.5445 25.4929 10.6447V11.2592C25.4931 12.727 25.1562 14.1751 24.5084 15.4921C23.8606 16.8091 22.919 17.9598 21.7563 18.8555L21.4367 19.1013C20.1823 20.0564 18.7122 20.6883 17.156 20.9412C15.5998 21.1941 14.0052 21.0604 12.5129 20.5517C12.4013 20.5143 12.2804 20.5143 12.1688 20.5517C12.03 20.636 11.9255 20.7666 11.8738 20.9205L9.83334 27.3367C9.76221 27.5553 9.77888 27.7929 9.87981 27.9994C9.98075 28.2058 10.158 28.3649 10.3742 28.443L10.8167 28.5659Z" fill="#F8F8F8"/>
<path d="M29.5 38.1041C27.7983 38.1041 26.1347 37.5995 24.7198 36.654C23.3048 35.7086 22.202 34.3648 21.5508 32.7926C20.8996 31.2204 20.7292 29.4904 21.0612 27.8213C21.3932 26.1523 22.2126 24.6192 23.4159 23.4159C24.6192 22.2125 26.1524 21.3931 27.8214 21.0611C29.4905 20.7291 31.2205 20.8995 32.7927 21.5507C34.3649 22.2019 35.7087 23.3048 36.6541 24.7197C37.5995 26.1347 38.1042 27.7982 38.1042 29.4999C38.1042 31.7819 37.1977 33.9704 35.5841 35.584C33.9705 37.1976 31.782 38.1041 29.5 38.1041V38.1041ZM29.5 25.8124C28.7707 25.8124 28.0577 26.0287 27.4513 26.4339C26.8449 26.8391 26.3723 27.415 26.0932 28.0888C25.8141 28.7626 25.7411 29.504 25.8834 30.2193C26.0256 30.9346 26.3768 31.5917 26.8925 32.1074C27.4082 32.6231 28.0653 32.9743 28.7806 33.1166C29.4959 33.2588 30.2373 33.1858 30.9111 32.9067C31.5849 32.6276 32.1609 32.155 32.566 31.5486C32.9712 30.9422 33.1875 30.2292 33.1875 29.4999C33.1875 28.5219 32.799 27.584 32.1075 26.8925C31.4159 26.2009 30.478 25.8124 29.5 25.8124Z" fill="#F8F8F8"/>
</svg>
