<svg width="702" height="701" viewBox="0 0 702 701" fill="none" xmlns="http://www.w3.org/2000/svg">
<path d="M379.821 677.438C353.509 692.087 321.491 692.087 295.179 677.438L66.5129 550.126C38.9326 534.77 21.8337 505.68 21.8337 474.113L21.8337 224.887C21.8337 193.32 38.9326 164.23 66.5129 148.874L295.179 21.5625C321.491 6.91291 353.509 6.91291 379.821 21.5625L608.487 148.874C636.067 164.23 653.166 193.32 653.166 224.887V474.113C653.166 505.68 636.067 534.77 608.487 550.126L379.821 677.438Z" fill="url(#paint0_linear_510_293)" fill-opacity="0.8"/>
<path d="M234.672 148.445L227.406 177H220.512L216.645 162C216.566 161.714 216.462 161.277 216.332 160.691C216.202 160.105 216.065 159.467 215.922 158.777C215.779 158.074 215.648 157.417 215.531 156.805C215.427 156.18 215.355 155.685 215.316 155.32C215.277 155.685 215.199 156.173 215.082 156.785C214.978 157.397 214.854 158.048 214.711 158.738C214.581 159.428 214.451 160.073 214.32 160.672C214.19 161.271 214.086 161.727 214.008 162.039L210.16 177H203.285L196 148.445H201.957L205.609 164.031C205.714 164.5 205.831 165.06 205.961 165.711C206.104 166.362 206.241 167.046 206.371 167.762C206.514 168.465 206.638 169.148 206.742 169.812C206.859 170.464 206.944 171.03 206.996 171.512C207.061 171.017 207.146 170.444 207.25 169.793C207.354 169.129 207.465 168.458 207.582 167.781C207.712 167.091 207.842 166.453 207.973 165.867C208.103 165.281 208.22 164.806 208.324 164.441L212.484 148.445H218.207L222.367 164.441C222.458 164.793 222.562 165.268 222.68 165.867C222.81 166.453 222.94 167.091 223.07 167.781C223.201 168.471 223.318 169.148 223.422 169.812C223.539 170.464 223.624 171.03 223.676 171.512C223.767 170.861 223.891 170.073 224.047 169.148C224.216 168.211 224.392 167.28 224.574 166.355C224.77 165.431 224.939 164.656 225.082 164.031L228.715 148.445H234.672ZM243.754 146.609V152.801C243.754 153.882 243.715 154.91 243.637 155.887C243.572 156.863 243.52 157.553 243.48 157.957H243.793C244.262 157.202 244.815 156.59 245.453 156.121C246.104 155.652 246.82 155.307 247.602 155.086C248.383 154.865 249.223 154.754 250.121 154.754C251.697 154.754 253.07 155.034 254.242 155.594C255.414 156.141 256.326 157.007 256.977 158.191C257.628 159.363 257.953 160.887 257.953 162.762V177H251.996V164.246C251.996 162.684 251.71 161.505 251.137 160.711C250.564 159.917 249.678 159.52 248.48 159.52C247.283 159.52 246.339 159.799 245.648 160.359C244.958 160.906 244.47 161.72 244.184 162.801C243.897 163.868 243.754 165.177 243.754 166.727V177H237.797V146.609H243.754ZM273.031 154.715C275.961 154.715 278.207 155.353 279.77 156.629C281.332 157.905 282.113 159.845 282.113 162.449V177H277.953L276.801 174.031H276.645C276.02 174.812 275.382 175.451 274.73 175.945C274.079 176.44 273.331 176.805 272.484 177.039C271.638 177.273 270.609 177.391 269.398 177.391C268.109 177.391 266.951 177.143 265.922 176.648C264.906 176.154 264.105 175.398 263.52 174.383C262.934 173.354 262.641 172.052 262.641 170.477C262.641 168.159 263.454 166.453 265.082 165.359C266.71 164.253 269.151 163.641 272.406 163.523L276.195 163.406V162.449C276.195 161.303 275.896 160.464 275.297 159.93C274.698 159.396 273.865 159.129 272.797 159.129C271.742 159.129 270.707 159.279 269.691 159.578C268.676 159.878 267.66 160.255 266.645 160.711L264.672 156.688C265.831 156.076 267.126 155.594 268.559 155.242C270.004 154.891 271.495 154.715 273.031 154.715ZM276.195 166.883L273.891 166.961C271.964 167.013 270.622 167.358 269.867 167.996C269.125 168.634 268.754 169.474 268.754 170.516C268.754 171.427 269.021 172.078 269.555 172.469C270.089 172.846 270.785 173.035 271.645 173.035C272.921 173.035 273.995 172.658 274.867 171.902C275.753 171.147 276.195 170.073 276.195 168.68V166.883ZM297.465 172.645C298.116 172.645 298.747 172.579 299.359 172.449C299.984 172.319 300.603 172.156 301.215 171.961V176.395C300.577 176.681 299.783 176.915 298.832 177.098C297.895 177.293 296.866 177.391 295.746 177.391C294.444 177.391 293.272 177.182 292.23 176.766C291.202 176.336 290.388 175.6 289.789 174.559C289.203 173.504 288.91 172.039 288.91 170.164V159.637H286.059V157.117L289.34 155.125L291.059 150.516H294.867V155.164H300.98V159.637H294.867V170.164C294.867 170.997 295.102 171.622 295.57 172.039C296.052 172.443 296.684 172.645 297.465 172.645ZM321.996 155.164V177H316.039V155.164H321.996ZM319.027 146.609C319.913 146.609 320.674 146.818 321.312 147.234C321.951 147.638 322.27 148.4 322.27 149.52C322.27 150.626 321.951 151.395 321.312 151.824C320.674 152.241 319.913 152.449 319.027 152.449C318.129 152.449 317.361 152.241 316.723 151.824C316.098 151.395 315.785 150.626 315.785 149.52C315.785 148.4 316.098 147.638 316.723 147.234C317.361 146.818 318.129 146.609 319.027 146.609ZM343.5 170.516C343.5 172 343.148 173.257 342.445 174.285C341.755 175.301 340.72 176.076 339.34 176.609C337.96 177.13 336.241 177.391 334.184 177.391C332.66 177.391 331.352 177.293 330.258 177.098C329.177 176.902 328.083 176.577 326.977 176.121V171.199C328.161 171.733 329.431 172.176 330.785 172.527C332.152 172.866 333.35 173.035 334.379 173.035C335.538 173.035 336.365 172.866 336.859 172.527C337.367 172.176 337.621 171.72 337.621 171.16C337.621 170.796 337.517 170.47 337.309 170.184C337.113 169.884 336.684 169.552 336.02 169.188C335.355 168.81 334.314 168.322 332.895 167.723C331.527 167.15 330.401 166.57 329.516 165.984C328.643 165.398 327.992 164.708 327.562 163.914C327.146 163.107 326.938 162.085 326.938 160.848C326.938 158.829 327.719 157.312 329.281 156.297C330.857 155.268 332.96 154.754 335.59 154.754C336.944 154.754 338.233 154.891 339.457 155.164C340.694 155.438 341.964 155.874 343.266 156.473L341.469 160.77C340.388 160.301 339.366 159.917 338.402 159.617C337.452 159.318 336.482 159.168 335.492 159.168C334.62 159.168 333.962 159.285 333.52 159.52C333.077 159.754 332.855 160.112 332.855 160.594C332.855 160.945 332.966 161.258 333.188 161.531C333.422 161.805 333.865 162.111 334.516 162.449C335.18 162.775 336.15 163.198 337.426 163.719C338.663 164.227 339.737 164.76 340.648 165.32C341.56 165.867 342.263 166.551 342.758 167.371C343.253 168.178 343.5 169.227 343.5 170.516ZM381.41 148.445L371.703 177H365.102L355.414 148.445H361.527L366.898 165.438C366.99 165.724 367.139 166.264 367.348 167.059C367.556 167.84 367.764 168.673 367.973 169.559C368.194 170.431 368.344 171.154 368.422 171.727C368.5 171.154 368.637 170.431 368.832 169.559C369.04 168.686 369.242 167.859 369.438 167.078C369.646 166.284 369.796 165.737 369.887 165.438L375.297 148.445H381.41ZM401.879 169.07C401.879 170.763 401.469 172.234 400.648 173.484C399.828 174.734 398.63 175.698 397.055 176.375C395.492 177.052 393.591 177.391 391.352 177.391C390.362 177.391 389.392 177.326 388.441 177.195C387.504 177.065 386.599 176.876 385.727 176.629C384.867 176.368 384.047 176.049 383.266 175.672V170.047C384.62 170.646 386.026 171.186 387.484 171.668C388.943 172.15 390.388 172.391 391.82 172.391C392.81 172.391 393.604 172.26 394.203 172C394.815 171.74 395.258 171.382 395.531 170.926C395.805 170.47 395.941 169.949 395.941 169.363C395.941 168.647 395.701 168.035 395.219 167.527C394.737 167.02 394.073 166.544 393.227 166.102C392.393 165.659 391.449 165.184 390.395 164.676C389.73 164.363 389.008 163.986 388.227 163.543C387.445 163.087 386.703 162.534 386 161.883C385.297 161.232 384.717 160.444 384.262 159.52C383.819 158.582 383.598 157.462 383.598 156.16C383.598 154.454 383.988 152.996 384.77 151.785C385.551 150.574 386.664 149.65 388.109 149.012C389.568 148.361 391.286 148.035 393.266 148.035C394.75 148.035 396.163 148.211 397.504 148.562C398.858 148.901 400.271 149.396 401.742 150.047L399.789 154.754C398.474 154.22 397.296 153.81 396.254 153.523C395.212 153.224 394.151 153.074 393.07 153.074C392.315 153.074 391.671 153.198 391.137 153.445C390.603 153.68 390.199 154.018 389.926 154.461C389.652 154.891 389.516 155.392 389.516 155.965C389.516 156.642 389.711 157.215 390.102 157.684C390.505 158.139 391.104 158.582 391.898 159.012C392.706 159.441 393.708 159.943 394.906 160.516C396.365 161.206 397.608 161.928 398.637 162.684C399.678 163.426 400.479 164.305 401.039 165.32C401.599 166.323 401.879 167.573 401.879 169.07ZM413.012 177H407.055V148.445H423.422V153.406H413.012V160.77H422.699V165.711H413.012V177ZM445.863 169.07C445.863 170.763 445.453 172.234 444.633 173.484C443.812 174.734 442.615 175.698 441.039 176.375C439.477 177.052 437.576 177.391 435.336 177.391C434.346 177.391 433.376 177.326 432.426 177.195C431.488 177.065 430.583 176.876 429.711 176.629C428.852 176.368 428.031 176.049 427.25 175.672V170.047C428.604 170.646 430.01 171.186 431.469 171.668C432.927 172.15 434.372 172.391 435.805 172.391C436.794 172.391 437.589 172.26 438.188 172C438.799 171.74 439.242 171.382 439.516 170.926C439.789 170.47 439.926 169.949 439.926 169.363C439.926 168.647 439.685 168.035 439.203 167.527C438.721 167.02 438.057 166.544 437.211 166.102C436.378 165.659 435.434 165.184 434.379 164.676C433.715 164.363 432.992 163.986 432.211 163.543C431.43 163.087 430.688 162.534 429.984 161.883C429.281 161.232 428.702 160.444 428.246 159.52C427.803 158.582 427.582 157.462 427.582 156.16C427.582 154.454 427.973 152.996 428.754 151.785C429.535 150.574 430.648 149.65 432.094 149.012C433.552 148.361 435.271 148.035 437.25 148.035C438.734 148.035 440.147 148.211 441.488 148.562C442.842 148.901 444.255 149.396 445.727 150.047L443.773 154.754C442.458 154.22 441.28 153.81 440.238 153.523C439.197 153.224 438.135 153.074 437.055 153.074C436.299 153.074 435.655 153.198 435.121 153.445C434.587 153.68 434.184 154.018 433.91 154.461C433.637 154.891 433.5 155.392 433.5 155.965C433.5 156.642 433.695 157.215 434.086 157.684C434.49 158.139 435.089 158.582 435.883 159.012C436.69 159.441 437.693 159.943 438.891 160.516C440.349 161.206 441.592 161.928 442.621 162.684C443.663 163.426 444.464 164.305 445.023 165.32C445.583 166.323 445.863 167.573 445.863 169.07ZM474.73 162.449C474.73 165.665 474.112 168.354 472.875 170.516C471.651 172.664 469.874 174.285 467.543 175.379C465.212 176.46 462.406 177 459.125 177H451.039V148.445H460.004C462.999 148.445 465.596 148.979 467.797 150.047C469.997 151.102 471.703 152.671 472.914 154.754C474.125 156.824 474.73 159.389 474.73 162.449ZM468.441 162.605C468.441 160.496 468.129 158.764 467.504 157.41C466.892 156.043 465.98 155.034 464.77 154.383C463.572 153.732 462.087 153.406 460.316 153.406H457.094V172H459.691C462.647 172 464.841 171.212 466.273 169.637C467.719 168.061 468.441 165.717 468.441 162.605ZM482.445 167.527V166.082C482.445 165.197 482.569 164.415 482.816 163.738C483.064 163.048 483.461 162.397 484.008 161.785C484.555 161.16 485.277 160.522 486.176 159.871C486.983 159.298 487.628 158.784 488.109 158.328C488.604 157.872 488.962 157.423 489.184 156.98C489.418 156.525 489.535 156.01 489.535 155.438C489.535 154.591 489.223 153.947 488.598 153.504C487.973 153.061 487.1 152.84 485.98 152.84C484.861 152.84 483.747 153.016 482.641 153.367C481.547 153.719 480.434 154.181 479.301 154.754L477.172 150.477C478.474 149.747 479.887 149.161 481.41 148.719C482.934 148.263 484.6 148.035 486.41 148.035C489.197 148.035 491.352 148.706 492.875 150.047C494.411 151.375 495.18 153.068 495.18 155.125C495.18 156.219 495.004 157.169 494.652 157.977C494.314 158.771 493.793 159.513 493.09 160.203C492.4 160.88 491.534 161.596 490.492 162.352C489.711 162.924 489.112 163.406 488.695 163.797C488.279 164.188 487.992 164.578 487.836 164.969C487.693 165.346 487.621 165.809 487.621 166.355V167.527H482.445ZM481.82 174.207C481.82 172.983 482.152 172.124 482.816 171.629C483.493 171.134 484.307 170.887 485.258 170.887C486.182 170.887 486.977 171.134 487.641 171.629C488.318 172.124 488.656 172.983 488.656 174.207C488.656 175.379 488.318 176.225 487.641 176.746C486.977 177.267 486.182 177.527 485.258 177.527C484.307 177.527 483.493 177.267 482.816 176.746C482.152 176.225 481.82 175.379 481.82 174.207Z" fill="white"/>
<path d="M362.894 222.88C357.835 218.378 351.284 215.429 343.241 214.035C335.198 212.64 326.695 213.525 317.734 216.69C308.802 219.856 300.632 225.572 293.225 233.839C286.338 241.528 281.684 249.583 279.263 258.002C276.848 265.787 276.627 274.088 278.624 281.991C280.521 289.316 284.559 295.909 290.222 300.928C294.253 304.707 299.17 307.409 304.52 308.787C309.298 309.977 314.229 310.43 319.143 310.131C323.863 309.828 332.05 309.022 343.707 307.714C346.436 307.417 349.179 307.265 351.924 307.259C353.803 307.246 355.678 307.461 357.506 307.898C358.957 308.268 360.366 308.784 361.712 309.437C363.013 310.077 365.213 311.259 368.335 313.004C374.753 316.928 380.332 316.241 385.072 310.944C386.25 309.692 387.168 308.218 387.773 306.609C388.377 304.999 388.657 303.286 388.595 301.568C388.473 298.077 386.637 294.742 383.089 291.562C375.861 284.637 366.181 280.863 356.173 281.069C350.476 281.259 344.792 281.737 339.143 282.5C333.138 283.226 328.704 283.682 325.843 283.833C323.002 283.996 320.152 283.758 317.377 283.129C314.608 282.515 312.048 281.189 309.951 279.281C307.899 277.499 306.255 275.295 305.133 272.82C304.01 270.345 303.435 267.657 303.447 264.939C303.36 259.158 305.528 253.785 309.951 248.82C315.176 242.988 320.491 240.014 325.897 239.899C331.302 239.783 337.738 241.337 345.203 244.56C352.798 248.123 358.85 247.4 363.36 242.392C364.643 241.016 365.625 239.388 366.243 237.611C366.861 235.834 367.101 233.947 366.948 232.072C366.915 230.348 366.54 228.647 365.844 227.069C365.148 225.491 364.145 224.067 362.894 222.88V222.88ZM415.294 339.616C418.127 336.538 419.708 332.514 419.728 328.332C419.793 324.053 417.946 320.227 414.189 316.852C412.642 315.422 410.816 314.328 408.825 313.639C406.834 312.951 404.722 312.683 402.622 312.852C400.496 312.981 398.417 313.536 396.509 314.486C394.602 315.436 392.906 316.761 391.522 318.38C390.099 319.921 389 321.732 388.291 323.705C387.581 325.679 387.275 327.775 387.392 329.869C387.508 331.963 388.044 334.013 388.967 335.895C389.891 337.778 391.184 339.456 392.769 340.83C396.476 344.147 400.451 345.564 404.693 345.079C408.791 344.667 412.58 342.714 415.294 339.616Z" fill="#FF725E"/>
<g opacity="0.5">
<path opacity="0.5" d="M265.962 295.562C264.44 291.946 261.916 288.839 258.689 286.608C254.895 283.906 250.465 282.233 245.832 281.752C240.435 281.171 234.978 281.969 229.973 284.072C225.246 285.821 220.976 288.619 217.486 292.256C214.461 295.403 212.361 299.322 211.415 303.584C210.544 307.567 210.883 311.719 212.391 315.508C213.414 318.287 215.121 320.762 217.356 322.706C219.356 324.425 221.608 325.829 224.033 326.868C226.36 327.858 230.476 329.441 236.38 331.616C237.76 332.123 239.111 332.709 240.423 333.372C241.326 333.815 242.171 334.369 242.938 335.02C243.548 335.541 244.1 336.126 244.586 336.765C245.052 337.383 245.821 338.478 246.895 340.017C249.063 343.442 251.899 344.454 255.404 343.052C256.269 342.735 257.063 342.25 257.741 341.625C258.418 341 258.965 340.247 259.35 339.41C259.737 338.43 259.915 337.381 259.874 336.328C259.833 335.275 259.573 334.243 259.111 333.296C257.314 328.245 253.587 324.113 248.748 321.806C245.978 320.516 243.146 319.365 240.261 318.359C237.215 317.275 234.981 316.418 233.572 315.811C232.174 315.205 230.868 314.406 229.692 313.437C228.514 312.476 227.606 311.224 227.057 309.806C226.502 308.461 226.245 307.012 226.303 305.558C226.361 304.104 226.733 302.68 227.393 301.383C228.844 298.53 231.342 296.347 234.364 295.291C238.266 293.752 241.518 293.604 244.12 294.847C247.279 296.528 250.043 298.864 252.228 301.698C255.017 305.231 258.096 306.315 261.464 304.95C262.408 304.596 263.268 304.051 263.991 303.347C264.713 302.644 265.281 301.798 265.659 300.863C266.058 300.044 266.291 299.153 266.343 298.243C266.395 297.333 266.266 296.422 265.962 295.562V295.562ZM263.003 364.071C265.097 363.277 266.821 361.731 267.838 359.735C268.358 358.685 268.64 357.533 268.662 356.362C268.685 355.191 268.447 354.029 267.968 352.96C267.577 351.9 266.969 350.933 266.183 350.121C265.398 349.309 264.451 348.67 263.404 348.245C262.354 347.796 261.223 347.565 260.081 347.565C258.94 347.565 257.809 347.796 256.759 348.245C255.708 348.64 254.747 349.243 253.933 350.017C253.119 350.792 252.469 351.721 252.021 352.752C251.573 353.782 251.337 354.891 251.326 356.015C251.315 357.138 251.529 358.252 251.957 359.291C252.332 360.403 252.948 361.42 253.761 362.267C254.574 363.114 255.565 363.771 256.661 364.19C258.714 364.953 260.98 364.91 263.003 364.071V364.071Z" fill="#FF725E"/>
</g>
<g opacity="0.1">
<path opacity="0.1" d="M193.053 289.177C194.033 287.635 194.555 285.846 194.559 284.018C194.596 281.852 194.065 279.714 193.02 277.817C191.814 275.607 190.064 273.742 187.936 272.397C186.016 271.046 183.815 270.149 181.497 269.774C179.489 269.448 177.431 269.681 175.546 270.446C173.781 271.161 172.271 272.388 171.21 273.969C170.414 275.095 169.914 276.404 169.757 277.774C169.633 278.993 169.692 280.225 169.931 281.427C170.169 282.59 170.653 284.585 171.383 287.411C171.548 288.076 171.678 288.748 171.774 289.427C171.9 290.262 171.833 291.115 171.579 291.92C171.459 292.267 171.242 292.852 170.917 293.676C170.719 294.014 170.591 294.387 170.538 294.775C170.485 295.162 170.51 295.557 170.611 295.935C170.712 296.313 170.887 296.667 171.125 296.977C171.364 297.287 171.662 297.547 172.001 297.741C172.707 298.236 173.58 298.431 174.429 298.283C174.908 298.175 175.36 297.968 175.753 297.675C176.147 297.382 176.476 297.009 176.717 296.581C177.48 295.5 178.018 294.276 178.299 292.982C178.524 291.861 178.55 290.709 178.375 289.579C178.141 288.176 177.833 286.786 177.454 285.416C177.064 283.953 176.803 282.879 176.662 282.164C176.526 281.45 176.486 280.721 176.543 279.996C176.605 279.289 176.848 278.609 177.248 278.023C177.618 277.456 178.106 276.976 178.678 276.615C179.25 276.254 179.894 276.021 180.565 275.931C182.055 275.728 183.565 276.117 184.771 277.015C185.455 277.395 186.053 277.913 186.527 278.536C187.001 279.16 187.341 279.874 187.524 280.636C187.713 282.292 187.546 283.97 187.036 285.557C186.418 287.562 186.82 289.026 188.218 289.969C188.602 290.236 189.037 290.422 189.496 290.513C189.955 290.605 190.427 290.6 190.885 290.5C191.316 290.436 191.731 290.286 192.103 290.059C192.475 289.832 192.798 289.532 193.053 289.177ZM166.007 306.153C166.866 306.741 167.912 306.991 168.944 306.858C169.489 306.78 170.01 306.581 170.468 306.275C170.926 305.969 171.309 305.564 171.589 305.091C171.892 304.661 172.103 304.173 172.207 303.658C172.312 303.143 172.308 302.612 172.196 302.099C172.091 301.577 171.883 301.082 171.583 300.643C171.283 300.203 170.898 299.829 170.451 299.541C170.022 299.241 169.536 299.032 169.024 298.926C168.512 298.82 167.983 298.819 167.47 298.923C166.955 299.018 166.465 299.218 166.03 299.511C165.596 299.803 165.226 300.183 164.944 300.625C164.618 301.063 164.391 301.568 164.28 302.104C164.17 302.639 164.178 303.193 164.305 303.725C164.548 304.719 165.155 305.585 166.007 306.153V306.153Z" fill="#FF725E"/>
</g>
<path d="M389.604 591.028L397.799 588.903L392.91 570.161L384.715 572.286L389.604 591.028Z" fill="#FFC3BD"/>
<path d="M397.885 586.735L388.736 589.63C388.66 589.649 388.589 589.682 388.526 589.729C388.463 589.776 388.411 589.836 388.371 589.903C388.332 589.971 388.307 590.046 388.297 590.124C388.287 590.202 388.293 590.28 388.314 590.356L390.243 597.456C390.379 597.829 390.653 598.135 391.008 598.31C391.363 598.486 391.773 598.518 392.151 598.399C395.316 597.315 396.78 596.686 400.823 595.407C403.305 594.627 409.289 592.86 412.747 591.776C416.205 590.692 414.915 587.44 413.408 587.646C406.449 588.372 402.406 587.787 399.511 586.779C398.989 586.585 398.417 586.57 397.885 586.735V586.735Z" fill="#263238"/>
<path opacity="0.2" d="M384.715 572.297L392.91 570.172L395.425 579.83L387.23 581.955L384.715 572.297Z" fill="black"/>
<path d="M364.065 380.635C364.065 380.635 379.067 451.929 383.057 475.268C387.393 500.828 396.921 574.009 396.921 574.009L382.991 579.072C382.991 579.072 361.192 501.468 357.886 476.894C350.959 452.872 333.409 380.635 333.409 380.635H364.065Z" fill="#FF725E"/>
<path opacity="0.3" d="M344.802 403.908C349.669 415.593 351.436 436.872 350.591 449.599C346.732 434.574 342.45 417.415 339.133 403.973C340.206 400.277 341.68 396.396 344.802 403.908Z" fill="black"/>
<path d="M383.273 580.719L398.21 576.405L397.647 570.085L379.869 575.082L383.273 580.719Z" fill="#263238"/>
<path d="M401.246 587.191C400.507 587.402 399.747 587.537 398.98 587.592C398.942 587.598 398.902 587.593 398.867 587.575C398.832 587.557 398.803 587.529 398.785 587.494C398.765 587.464 398.754 587.428 398.754 587.391C398.754 587.355 398.765 587.319 398.785 587.288C398.991 587.028 400.78 584.784 401.896 584.849C402.025 584.854 402.15 584.892 402.26 584.958C402.37 585.024 402.461 585.117 402.525 585.229C402.635 585.385 402.703 585.567 402.72 585.758C402.737 585.948 402.703 586.139 402.623 586.313C402.287 586.764 401.797 587.076 401.246 587.191V587.191ZM399.403 587.191C400.964 587.006 402.016 586.627 402.276 586.107C402.326 585.994 402.345 585.87 402.33 585.748C402.314 585.625 402.266 585.509 402.189 585.413C402.159 585.358 402.115 585.311 402.062 585.277C402.009 585.243 401.948 585.223 401.886 585.218C401.3 585.196 400.151 586.291 399.403 587.169V587.191Z" fill="#FF725E"/>
<path d="M399.024 587.592H398.926C398.894 587.587 398.864 587.574 398.837 587.556C398.811 587.537 398.789 587.512 398.774 587.483C398.774 587.386 397.777 585.185 398.341 584.166C398.418 584.036 398.521 583.924 398.645 583.836C398.768 583.748 398.908 583.687 399.056 583.657C399.219 583.61 399.393 583.617 399.552 583.678C399.71 583.738 399.844 583.849 399.934 583.993C400.422 584.795 399.761 586.811 399.11 587.527C399.089 587.557 399.059 587.58 399.024 587.592ZM399.024 584.058C398.949 584.081 398.88 584.118 398.82 584.168C398.761 584.219 398.712 584.281 398.677 584.351C398.481 585.246 398.592 586.181 398.991 587.006C399.501 586.204 399.891 584.708 399.566 584.188C399.566 584.09 399.403 583.982 399.121 584.036L399.024 584.058Z" fill="#FF725E"/>
<path d="M352.455 319.573C353.181 321.329 353.875 322.89 354.623 324.494C355.371 326.098 356.173 327.67 356.986 329.242C358.634 332.375 360.368 335.464 362.276 338.478C366.072 344.741 370.663 350.487 375.934 355.572L376.129 355.768C376.406 356.017 376.712 356.231 377.04 356.407C377.943 356.894 378.935 357.193 379.956 357.285C380.541 357.327 381.127 357.327 381.712 357.285C382.587 357.229 383.456 357.109 384.314 356.927C385.853 356.602 387.219 356.201 388.563 355.778C391.23 354.933 393.712 353.903 396.151 352.862C398.59 351.822 400.996 350.694 403.359 349.469C405.723 348.245 408.042 347.02 410.34 345.632C410.873 345.307 411.273 344.802 411.467 344.208C411.661 343.615 411.637 342.972 411.399 342.394C411.161 341.817 410.725 341.343 410.17 341.059C409.614 340.774 408.975 340.697 408.368 340.841C403.338 342.055 398.319 343.41 393.376 344.613C390.915 345.231 388.455 345.773 386.091 346.228C384.978 346.454 383.852 346.617 382.72 346.716C382.294 346.741 381.867 346.741 381.441 346.716C381.278 346.716 381.213 346.716 381.257 346.716C381.642 346.727 382.017 346.843 382.341 347.052L383.425 347.887C381.327 345.566 379.383 343.111 377.604 340.537C375.783 337.903 374.059 335.117 372.4 332.321C370.742 329.524 369.148 326.586 367.642 323.649C366.135 320.711 364.639 317.687 363.306 314.857L363.241 314.716C362.601 313.279 361.416 312.154 359.948 311.59C358.479 311.026 356.846 311.069 355.409 311.708C353.971 312.348 352.847 313.533 352.283 315.001C351.719 316.47 351.761 318.103 352.401 319.54L352.455 319.573Z" fill="#FFC3BD"/>
<path d="M354.124 308.104C361.105 308.299 365.897 315.876 370.471 325.318C366.965 331.379 361.94 336.423 355.891 339.952C355.891 339.952 337.55 307.638 354.124 308.104Z" fill="#E0E0E0"/>
<path d="M410.687 345.676L416.975 344.071L412.075 337.773C412.075 337.773 406.655 338.63 404.595 343.193L406.828 344.787C407.37 345.203 407.995 345.498 408.661 345.652C409.327 345.805 410.018 345.813 410.687 345.676V345.676Z" fill="#FFC3BD"/>
<path d="M418.503 337.632L417.289 336.548C416.792 336.113 416.158 335.867 415.498 335.853C414.838 335.839 414.194 336.058 413.679 336.472L412.075 337.762L416.975 344.06L418.98 340.938C419.312 340.422 419.447 339.804 419.359 339.196C419.272 338.589 418.968 338.033 418.503 337.632V337.632Z" fill="#FFC3BD"/>
<path d="M316.249 590.052H324.824L326.873 570.952H318.298L316.249 590.052Z" fill="#FFC3BD"/>
<path d="M325.572 589.098H315.935C315.776 589.09 315.62 589.144 315.5 589.249C315.38 589.355 315.307 589.503 315.296 589.662L314.83 596.99C314.838 597.384 315.001 597.759 315.282 598.034C315.564 598.31 315.942 598.464 316.336 598.464C319.686 598.399 321.29 598.215 325.529 598.215C328.13 598.215 335.285 598.475 338.916 598.475C342.547 598.475 342.417 595.05 340.889 594.746C334.049 593.348 329.474 591.429 327.046 589.608C326.624 589.281 326.106 589.102 325.572 589.098V589.098Z" fill="#263238"/>
<path opacity="0.2" d="M318.298 570.952H326.873L325.81 580.806H317.236L318.298 570.952Z" fill="black"/>
<path d="M347.306 380.634C347.306 380.634 345.409 452.309 344.054 475.929C342.537 501.793 329.691 578.421 329.691 578.421H313.973C313.973 578.421 317.42 500.818 320.022 475.441C318.938 447.647 318.222 380.613 318.222 380.613L347.306 380.634Z" fill="#FF725E"/>
<path d="M313.344 578.421H331.165L332.011 572.687L312.867 573.012L313.344 578.421Z" fill="#263238"/>
<path d="M328.607 590.529C327.836 590.513 327.07 590.414 326.32 590.237C326.283 590.23 326.25 590.211 326.224 590.184C326.199 590.157 326.183 590.122 326.179 590.085C326.168 590.049 326.17 590.01 326.184 589.975C326.198 589.939 326.223 589.91 326.255 589.89C326.526 589.716 328.954 588.112 330.005 588.513C330.123 588.556 330.227 588.629 330.309 588.724C330.39 588.819 330.446 588.933 330.471 589.055C330.539 589.241 330.552 589.442 330.508 589.634C330.463 589.827 330.364 590.002 330.222 590.139C329.748 590.458 329.175 590.596 328.607 590.529ZM326.873 589.966C328.412 590.258 329.539 590.204 329.94 589.825C330.023 589.734 330.08 589.623 330.105 589.503C330.129 589.382 330.121 589.258 330.081 589.142C330.071 589.082 330.046 589.026 330.008 588.978C329.97 588.931 329.921 588.894 329.864 588.871C329.301 588.654 327.87 589.348 326.873 589.966V589.966Z" fill="#FF725E"/>
<path d="M326.374 590.248H326.276C326.247 590.23 326.222 590.207 326.204 590.179C326.185 590.15 326.173 590.118 326.168 590.085C326.168 589.987 325.973 587.613 326.84 586.833C326.951 586.727 327.085 586.648 327.232 586.603C327.379 586.558 327.534 586.547 327.685 586.573C327.853 586.575 328.015 586.633 328.146 586.736C328.278 586.84 328.371 586.985 328.412 587.147C328.607 588.047 327.328 589.771 326.471 590.258L326.374 590.248ZM327.588 586.898C327.508 586.896 327.428 586.91 327.353 586.94C327.278 586.969 327.211 587.014 327.154 587.071C326.68 587.859 326.481 588.782 326.591 589.695C327.339 589.088 328.195 587.776 328.065 587.191C328.065 587.071 327.967 586.941 327.675 586.909L327.588 586.898Z" fill="#FF725E"/>
<path d="M360.455 313.622C359.992 312.218 359.16 310.965 358.046 309.994C356.932 309.023 355.578 308.371 354.124 308.104C352.006 307.61 349.859 307.248 347.696 307.02C341.197 306.661 334.683 306.661 328.184 307.02C324.78 307.172 321.312 307.573 318.547 307.963H318.45C317.74 308.046 317.054 308.272 316.434 308.628C315.814 308.985 315.273 309.463 314.844 310.035C314.415 310.607 314.107 311.26 313.939 311.955C313.77 312.65 313.745 313.372 313.864 314.077C316.028 325.123 317.444 336.303 318.103 347.54C318.775 363.865 317.864 376.678 318.19 380.613H364.064C366.85 340.798 363.251 322.695 360.455 313.622Z" fill="#E0E0E0"/>
<path d="M325.073 282.728C324.273 283.305 323.636 284.081 323.226 284.979C322.815 285.877 322.645 286.865 322.731 287.849C322.818 288.832 323.158 289.776 323.718 290.589C324.279 291.401 325.041 292.054 325.93 292.484C324.076 295.551 329.008 300.971 333.973 297.568C338.938 294.164 331.924 279.833 325.073 282.728Z" fill="#263238"/>
<path d="M345.604 279.432C346.285 279.452 346.96 279.295 347.562 278.976C348.165 278.657 348.674 278.188 349.04 277.613C349.406 277.038 349.616 276.378 349.651 275.698C349.685 275.017 349.542 274.339 349.236 273.73C351.545 272.831 351.133 267.79 346.97 267.573C342.808 267.356 340.661 278.164 345.604 279.432Z" fill="#263238"/>
<path d="M346.959 311.28C347.269 310.995 347.5 310.635 347.629 310.234C347.758 309.833 347.78 309.405 347.694 308.993C347.608 308.581 347.416 308.198 347.137 307.883C346.858 307.567 346.501 307.33 346.103 307.193C341.919 305.654 341.16 302.619 341.496 299.313C341.592 298.383 341.744 297.46 341.951 296.549L334.851 290.879L329.626 286.717C330.927 292.137 332.379 301.578 329.626 306.359C329.317 306.859 329.198 307.453 329.29 308.034C329.381 308.614 329.677 309.143 330.125 309.524C331.924 311.118 335.61 313.177 341.68 312.852C344.466 312.711 346.016 312.071 346.959 311.28Z" fill="#FFC3BD"/>
<path d="M362.807 313.817C362.29 312.256 361.379 310.855 360.161 309.75C358.944 308.645 357.462 307.872 355.859 307.508C353.801 307.181 351.728 306.964 349.647 306.857C349.43 306.826 349.209 306.85 349.003 306.925C348.797 307.001 348.613 307.127 348.468 307.291C348.323 307.456 348.221 307.654 348.171 307.868C348.122 308.082 348.126 308.304 348.184 308.516C351.815 322.001 356.997 348.982 355.393 382.401C355.385 382.609 355.42 382.817 355.496 383.011C355.571 383.205 355.686 383.381 355.832 383.529C355.978 383.677 356.153 383.794 356.346 383.872C356.539 383.951 356.745 383.989 356.954 383.984H366.059C366.454 383.991 366.837 383.846 367.129 383.58C367.421 383.314 367.601 382.947 367.631 382.553C370.373 341.719 365.528 321.372 362.807 313.817Z" fill="#263238"/>
<path d="M318.797 307.15C321.711 306.733 324.646 306.465 327.588 306.348V306.348C328.121 306.309 328.65 306.46 329.082 306.773C329.514 307.087 329.822 307.543 329.951 308.061C333.322 322.912 336.325 355.909 336.455 382.456C336.451 382.658 336.407 382.857 336.326 383.042C336.244 383.227 336.127 383.395 335.981 383.535C335.835 383.675 335.663 383.784 335.475 383.858C335.286 383.931 335.085 383.967 334.883 383.962H318.623C318.22 383.971 317.83 383.822 317.536 383.546C317.242 383.271 317.068 382.891 317.051 382.488C316.943 377.144 317.68 364.624 317.051 349.079C316.451 338.002 315.059 326.983 312.889 316.104C312.325 313.058 315.577 307.605 318.797 307.15Z" fill="#263238"/>
<path d="M313.084 311.866C309.604 317.112 306.439 322.37 303.447 327.887C301.973 330.651 300.52 333.459 299.209 336.407C298.558 337.882 297.919 339.388 297.323 340.982C296.665 342.706 296.158 344.483 295.805 346.293C295.538 347.613 295.479 348.966 295.632 350.304C295.809 351.387 296.088 352.45 296.466 353.48C297.085 355.159 297.842 356.784 298.732 358.337C300.327 361.153 302.105 363.861 304.054 366.445C307.804 371.449 311.904 376.18 316.325 380.602C316.836 381.114 317.517 381.42 318.239 381.463C318.961 381.506 319.673 381.281 320.24 380.833C320.808 380.385 321.191 379.744 321.316 379.031C321.442 378.319 321.301 377.586 320.921 376.971V376.906C317.767 371.822 314.58 366.64 311.696 361.502C310.266 358.944 308.9 356.342 307.805 353.827C306.71 351.312 305.908 348.559 306.472 348.483C306.817 347.33 307.237 346.2 307.729 345.101C308.271 343.865 308.889 342.586 309.539 341.318C310.862 338.77 312.282 336.18 313.767 333.632C316.737 328.516 319.902 323.356 323.035 318.359V318.294C323.888 316.974 324.181 315.37 323.85 313.834C323.52 312.298 322.593 310.957 321.274 310.104C319.954 309.252 318.35 308.958 316.814 309.289C315.278 309.619 313.936 310.546 313.084 311.866V311.866Z" fill="#FFC3BD"/>
<path d="M319.827 307.009C312.846 306.879 309.149 312.787 304.575 322.185C309.756 331.779 319.642 335.93 319.642 335.93C319.642 335.93 333.55 307.248 319.827 307.009Z" fill="#E0E0E0"/>
<path d="M323.404 376.689L327.425 377.968L319.978 383.626C319.978 383.626 313.886 380.461 315.794 377.588L317.03 377.036C319.041 376.148 321.308 376.025 323.404 376.689V376.689Z" fill="#FFC3BD"/>
<path d="M329.68 382.933L325.16 387.475C325.014 387.617 324.84 387.728 324.648 387.799C324.457 387.871 324.253 387.902 324.05 387.891C323.846 387.88 323.647 387.826 323.464 387.734C323.282 387.642 323.121 387.513 322.992 387.355L319.989 383.626L327.436 377.968L329.756 381.144C329.97 381.397 330.081 381.722 330.067 382.053C330.053 382.384 329.915 382.698 329.68 382.933V382.933Z" fill="#FFC3BD"/>
<path opacity="0.2" d="M341.951 296.592C341.744 297.503 341.592 298.426 341.496 299.356C338.808 300.039 334.992 296.96 334.634 294.348C334.588 293.202 334.661 292.054 334.851 290.923L341.951 296.592Z" fill="black"/>
<path d="M325.171 279.02C327.003 287.02 327.653 291.79 332.575 295.356C334.184 296.534 336.078 297.263 338.061 297.471C340.045 297.679 342.048 297.357 343.867 296.538C345.686 295.72 347.256 294.434 348.416 292.811C349.576 291.189 350.285 289.288 350.471 287.302C351.1 279.801 348 267.974 339.241 265.871C330.482 263.768 323.339 271.01 325.171 279.02Z" fill="#FFC3BD"/>
<path d="M328.878 286.023C331.198 286.142 333.669 277.958 328.553 274.012C329.366 274.457 331.588 273.644 331.198 272.115C332.704 272.744 339.295 272.473 337.702 269.795C341.051 270.663 348.357 269.21 349.138 266.012C349.918 262.815 346.146 262.706 345.561 263.129C347.219 260.809 347.187 257.405 342.786 256.17C338.385 254.934 331.75 261.297 331.75 261.297C332.444 259.617 330.005 258.262 327.479 259.703C324.954 261.145 323.772 265.243 323.772 265.243C323.772 264.007 317.875 265.665 320.672 270.847C317.778 271.931 316.455 273.47 316.639 276.148C316.824 278.825 318.656 278.977 318.656 278.977C318.268 279.941 318.214 281.007 318.503 282.005C318.792 283.003 319.407 283.876 320.249 284.484C323.252 286.901 325.875 284.061 328.878 286.023Z" fill="#263238"/>
<path d="M324.282 286.641C325.302 288.133 326.807 289.225 328.542 289.73C330.775 290.326 331.534 288.332 330.623 286.251C329.8 284.375 327.653 281.795 325.55 282.121C323.447 282.446 323.025 284.776 324.282 286.641Z" fill="#FFC3BD"/>
<path d="M338.428 278.695C338.536 279.345 338.992 279.833 339.436 279.779C339.88 279.725 340.162 279.14 340.054 278.478C339.946 277.817 339.49 277.394 339.046 277.394C338.601 277.394 338.374 278.034 338.428 278.695Z" fill="#263238"/>
<path d="M346.363 277.253C346.471 277.915 346.916 278.402 347.36 278.337C347.805 278.272 348.087 277.698 347.978 277.037C347.87 276.375 347.425 275.953 346.981 275.953C346.537 275.953 346.255 276.603 346.363 277.253Z" fill="#263238"/>
<path d="M343.23 278.728C344.385 280.635 345.797 282.375 347.425 283.898C347.004 284.295 346.502 284.596 345.954 284.783C345.407 284.97 344.825 285.038 344.249 284.982L343.23 278.728Z" fill="#ED847E"/>
<path d="M342.84 288.213C342.051 288.302 341.253 288.233 340.492 288.009C339.731 287.786 339.021 287.413 338.406 286.912C338.37 286.874 338.35 286.823 338.35 286.771C338.35 286.719 338.37 286.668 338.406 286.63C338.445 286.596 338.495 286.578 338.547 286.578C338.599 286.578 338.649 286.596 338.688 286.63C339.365 287.167 340.154 287.543 340.997 287.731C341.84 287.919 342.715 287.913 343.555 287.714C343.581 287.708 343.608 287.707 343.634 287.711C343.66 287.715 343.685 287.725 343.707 287.739C343.729 287.753 343.748 287.772 343.763 287.793C343.778 287.815 343.789 287.84 343.794 287.866C343.8 287.891 343.801 287.917 343.797 287.942C343.792 287.968 343.783 287.992 343.768 288.013C343.754 288.035 343.735 288.053 343.714 288.067C343.692 288.081 343.667 288.09 343.642 288.093C343.378 288.153 343.11 288.193 342.84 288.213V288.213Z" fill="#263238"/>
<path d="M338.103 274.186C338.168 274.203 338.228 274.237 338.276 274.283C338.314 274.319 338.344 274.362 338.365 274.409C338.385 274.457 338.396 274.508 338.396 274.56C338.396 274.611 338.385 274.663 338.365 274.71C338.344 274.758 338.314 274.801 338.276 274.836C337.854 275.308 337.324 275.671 336.732 275.894C336.139 276.116 335.501 276.192 334.873 276.115C334.821 276.11 334.77 276.094 334.725 276.069C334.679 276.043 334.639 276.008 334.607 275.966C334.576 275.925 334.553 275.877 334.541 275.826C334.529 275.775 334.527 275.722 334.537 275.671C334.546 275.619 334.565 275.569 334.594 275.525C334.622 275.48 334.659 275.442 334.702 275.411C334.745 275.381 334.794 275.36 334.846 275.349C334.898 275.337 334.951 275.336 335.003 275.346C335.5 275.389 336 275.314 336.462 275.125C336.924 274.937 337.334 274.641 337.659 274.262C337.719 274.209 337.792 274.175 337.87 274.161C337.949 274.148 338.029 274.156 338.103 274.186V274.186Z" fill="#263238"/>
<path d="M348.607 272.224C348.547 272.25 348.483 272.264 348.417 272.264C348.352 272.264 348.287 272.25 348.228 272.224C347.765 271.993 347.257 271.866 346.74 271.853C346.223 271.84 345.71 271.941 345.236 272.148C345.143 272.2 345.034 272.215 344.931 272.189C344.828 272.162 344.739 272.097 344.683 272.007C344.636 271.913 344.626 271.804 344.656 271.704C344.687 271.603 344.754 271.517 344.846 271.465C345.431 271.184 346.072 271.038 346.721 271.038C347.37 271.038 348.011 271.184 348.596 271.465C348.644 271.485 348.686 271.516 348.721 271.554C348.756 271.592 348.783 271.637 348.799 271.686C348.815 271.735 348.821 271.787 348.816 271.839C348.811 271.89 348.795 271.94 348.77 271.985C348.745 272.081 348.688 272.166 348.607 272.224V272.224Z" fill="#263238"/>
<defs>
<linearGradient id="paint0_linear_510_293" x1="337.5" y1="701" x2="337.5" y2="-2" gradientUnits="userSpaceOnUse">
<stop stop-color="#8B57E6"/>
<stop offset="1" stop-color="#797EFC"/>
</linearGradient>
</defs>
</svg>
