<svg xmlns="http://www.w3.org/2000/svg" viewBox="0 0 500 500"><g id="freepik--Shadow--inject-46"><ellipse id="freepik--path--inject-46" cx="245.18" cy="412.39" rx="193.89" ry="11.32" style="fill:#f5f5f5"></ellipse></g><g id="freepik--Window--inject-46"><rect x="98.3" y="73.8" width="301.05" height="204.45" style="fill:#407BFF"></rect><rect x="98.3" y="73.8" width="301.05" height="204.45" style="fill:#fff;opacity:0.5"></rect><path d="M98.3,73.8V87.89h43.57V82.48a4.87,4.87,0,0,1,4.87-4.87h40.31a4.87,4.87,0,0,1,4.87,4.87v5.41H399.35V73.8Z" style="fill:#407BFF"></path><path d="M110.86,80.84a3.24,3.24,0,1,1-3.24-3.23A3.24,3.24,0,0,1,110.86,80.84Z" style="fill:#fff;opacity:0.7000000000000001"></path><circle cx="117.33" cy="80.84" r="3.23" style="fill:#fff;opacity:0.7000000000000001"></circle><path d="M130.27,80.84A3.24,3.24,0,1,1,127,77.61,3.24,3.24,0,0,1,130.27,80.84Z" style="fill:#fff;opacity:0.7000000000000001"></path><path d="M154.61,84.08a3.24,3.24,0,1,1-3.24-3.24A3.23,3.23,0,0,1,154.61,84.08Z" style="fill:#fff;opacity:0.7000000000000001"></path><rect x="98.3" y="115.45" width="301.05" height="162.79" style="fill:#fff;opacity:0.2"></rect><path d="M191.51,67.81H158.73c-.71,0-.81,1.1-.1,1.1h32.78c.71,0,.81-1.1.1-1.1Z" style="fill:#407BFF"></path><path d="M153.45,67.81h-4.14c-.71,0-.8,1.1-.09,1.1h4.14c.7,0,.8-1.1.09-1.1Z" style="fill:#407BFF"></path><path d="M351.44,108.19H154.8a6.08,6.08,0,0,1-6.07-6.08h0A6.07,6.07,0,0,1,154.8,96H351.44a6.08,6.08,0,0,1,6.08,6.07h0A6.08,6.08,0,0,1,351.44,108.19Z" style="fill:#fff"></path><path d="M142.45,134.66H110.67a6.28,6.28,0,0,1-6.28-6.28h0a6.28,6.28,0,0,1,6.28-6.28h31.78a6.28,6.28,0,0,1,6.28,6.28h0A6.28,6.28,0,0,1,142.45,134.66Z" style="fill:#263238"></path><path d="M346.68,143.34h-175a10.62,10.62,0,0,1-10.62-10.62h0a10.62,10.62,0,0,1,10.62-10.62h175a10.61,10.61,0,0,1,10.62,10.62h0A10.61,10.61,0,0,1,346.68,143.34Z" style="fill:#fff"></path><rect x="345.23" y="168.51" width="29.11" height="29.11" style="fill:#fff"></rect><rect x="309.65" y="168.51" width="29.11" height="29.11" style="fill:#fff"></rect><rect x="160.59" y="189.77" width="90.82" height="7.91" style="fill:#407BFF"></rect><rect x="160.59" y="189.77" width="90.82" height="7.91" style="opacity:0.1"></rect><rect x="305.29" y="211.24" width="72.62" height="7.91" style="fill:#407BFF"></rect><rect x="305.29" y="211.24" width="72.62" height="7.91" style="opacity:0.1"></rect><rect x="160.59" y="205.23" width="118.24" height="2.48" style="fill:#263238"></rect><rect x="160.59" y="82.84" width="24.3" height="2.48" style="fill:#263238"></rect><rect x="160.59" y="215.31" width="99.65" height="2.48" style="fill:#263238"></rect><rect x="160.59" y="238.5" width="90.82" height="7.91" style="fill:#407BFF"></rect><rect x="160.59" y="238.5" width="90.82" height="7.91" style="opacity:0.1"></rect><rect x="160.59" y="253.97" width="118.24" height="2.48" style="fill:#263238"></rect><rect x="160.59" y="264.05" width="99.65" height="2.48" style="fill:#263238"></rect><rect x="305.29" y="226.6" width="72.62" height="2.48" style="fill:#263238"></rect><rect x="305.29" y="236.68" width="59.21" height="2.48" style="fill:#263238"></rect><path d="M385.39,267.43H298.12V160.22h87.27Zm-85.77-1.5h84.27V161.72H299.62Z" style="fill:#407BFF"></path><path d="M339.64,136.21a5.52,5.52,0,1,1,3.9-9.42h0a5.52,5.52,0,0,1-3.9,9.42Zm0-10.09a4.58,4.58,0,1,0,3.24,1.34h0A4.55,4.55,0,0,0,339.64,126.12Z" style="fill:#407BFF"></path><rect x="346.33" y="134.66" width="0.94" height="6.37" transform="translate(4.1 285.6) rotate(-45)" style="fill:#407BFF"></rect><rect x="343.74" y="134.09" width="0.94" height="2.34" transform="translate(5.17 283.01) rotate(-45)" style="fill:#407BFF"></rect><path d="M163.84,156.38a2.57,2.57,0,0,1-1.83-.76,2.59,2.59,0,0,1,3.66-3.67h0a2.6,2.6,0,0,1,0,3.67A2.57,2.57,0,0,1,163.84,156.38Zm0-4.63a2,2,0,0,0-1.44.6,2,2,0,0,0,0,2.88,2,2,0,0,0,1.44.59,2,2,0,0,0,1.44-3.47h0A2,2,0,0,0,163.84,151.75Z" style="fill:#407BFF"></path><rect x="166.84" y="155.61" width="0.56" height="2.92" transform="translate(-62.12 164.17) rotate(-45)" style="fill:#407BFF"></rect><rect x="165.75" y="155.35" width="0.37" height="1.07" transform="translate(-61.63 162.96) rotate(-44.99)" style="fill:#407BFF"></rect><path d="M171.82,134.16l.17-.29a2.49,2.49,0,0,0,1.74.67c1.06,0,1.53-.46,1.53-1,0-1.58-3.3-.63-3.3-2.58,0-.75.57-1.4,1.87-1.4a2.84,2.84,0,0,1,1.59.47l-.14.31a2.62,2.62,0,0,0-1.45-.44c-1,0-1.49.47-1.49,1,0,1.59,3.3.65,3.3,2.57,0,.75-.59,1.4-1.9,1.4A2.71,2.71,0,0,1,171.82,134.16Z" style="fill:#263238"></path><path d="M180.16,133h-3.39a1.69,1.69,0,0,0,2.93,1l.22.25a1.9,1.9,0,0,1-1.49.64,1.94,1.94,0,0,1-2-2,1.89,1.89,0,0,1,1.89-2,1.86,1.86,0,0,1,1.88,2S180.16,132.92,180.16,133Zm-3.38-.29h3a1.51,1.51,0,0,0-3,0Z" style="fill:#263238"></path><path d="M184.08,132.34v2.5h-.37v-.7a1.52,1.52,0,0,1-1.42.73c-.88,0-1.42-.45-1.42-1.13s.38-1.1,1.48-1.1h1.35v-.31a1,1,0,0,0-1.17-1.13,2,2,0,0,0-1.36.5l-.19-.27a2.39,2.39,0,0,1,1.58-.56A1.34,1.34,0,0,1,184.08,132.34Zm-.38,1.34v-.74h-1.35c-.81,0-1.1.34-1.1.79s.4.83,1.1.83A1.36,1.36,0,0,0,183.7,133.68Z" style="fill:#263238"></path><path d="M187.5,130.87v.37h-.09c-.88,0-1.4.58-1.4,1.56v2.05h-.38V130.9H186v.86A1.5,1.5,0,0,1,187.5,130.87Z" style="fill:#263238"></path><path d="M188.07,132.87a1.92,1.92,0,0,1,2-2,1.71,1.71,0,0,1,1.49.72l-.28.21a1.42,1.42,0,0,0-1.21-.59,1.66,1.66,0,0,0,0,3.32,1.42,1.42,0,0,0,1.21-.59l.28.21a1.74,1.74,0,0,1-1.49.72A1.93,1.93,0,0,1,188.07,132.87Z" style="fill:#263238"></path><path d="M196.16,132.54v2.3h-.38v-2.27a1.2,1.2,0,0,0-1.28-1.36,1.4,1.4,0,0,0-1.49,1.53v2.1h-.38v-5.6H193v2.48a1.63,1.63,0,0,1,1.55-.85A1.49,1.49,0,0,1,196.16,132.54Z" style="fill:#263238"></path><path d="M161,102.11v2.3h-.38v-2.27a1.19,1.19,0,0,0-1.28-1.36,1.41,1.41,0,0,0-1.49,1.53v2.1h-.38v-5.6h.38v2.48a1.63,1.63,0,0,1,1.55-.85A1.49,1.49,0,0,1,161,102.11Z" style="fill:#263238"></path><path d="M164.53,104.16a1.18,1.18,0,0,1-.81.28,1,1,0,0,1-1.07-1.07v-2.58h-.72v-.32h.72v-.86H163v.86h1.25v.32H163v2.54c0,.51.25.79.73.79a.89.89,0,0,0,.61-.22Z" style="fill:#263238"></path><path d="M167.43,104.16a1.17,1.17,0,0,1-.8.28,1,1,0,0,1-1.08-1.07v-2.58h-.72v-.32h.72v-.86h.38v.86h1.25v.32h-1.25v2.54c0,.51.25.79.73.79a.94.94,0,0,0,.62-.22Z" style="fill:#263238"></path><path d="M172.41,102.44a1.9,1.9,0,0,1-1.95,2,1.77,1.77,0,0,1-1.6-.93v2.37h-.37v-5.41h.36v.93a1.74,1.74,0,0,1,1.61-1A1.91,1.91,0,0,1,172.41,102.44Zm-.38,0a1.59,1.59,0,1,0-1.59,1.66A1.56,1.56,0,0,0,172,102.44Z" style="fill:#263238"></path><path d="M173,103.94l.18-.31a2.27,2.27,0,0,0,1.42.48c.83,0,1.16-.3,1.16-.74,0-1.15-2.61-.3-2.61-1.85,0-.6.5-1.08,1.49-1.08a2.44,2.44,0,0,1,1.35.38l-.17.31a2,2,0,0,0-1.19-.36c-.77,0-1.11.32-1.11.74,0,1.19,2.62.35,2.62,1.85,0,.64-.55,1.08-1.56,1.08A2.52,2.52,0,0,1,173,103.94Z" style="fill:#263238"></path><path d="M176.83,100.76a.32.32,0,0,1,.32-.32.31.31,0,0,1,.32.32.32.32,0,0,1-.32.32A.32.32,0,0,1,176.83,100.76Zm0,3.36a.32.32,0,0,1,.32-.32.32.32,0,1,1,0,.64A.32.32,0,0,1,176.83,104.12Z" style="fill:#263238"></path><path d="M180.55,98.05h.35l-2.49,7.12h-.35Z" style="fill:#263238"></path><path d="M182.49,98.05h.35l-2.49,7.12H180Z" style="fill:#263238"></path><path d="M185.29,154a3.24,3.24,0,1,1-3.23-3.24A3.23,3.23,0,0,1,185.29,154Z" style="fill:#407BFF;opacity:0.7000000000000001"></path><path d="M201.82,154a3.24,3.24,0,1,1-3.23-3.24A3.23,3.23,0,0,1,201.82,154Z" style="fill:#407BFF;opacity:0.7000000000000001"></path><path d="M218.35,154a3.24,3.24,0,1,1-3.23-3.24A3.23,3.23,0,0,1,218.35,154Z" style="fill:#407BFF;opacity:0.7000000000000001"></path><path d="M234.88,154a3.24,3.24,0,1,1-3.23-3.24A3.23,3.23,0,0,1,234.88,154Z" style="fill:#407BFF;opacity:0.7000000000000001"></path><path d="M251.41,154a3.24,3.24,0,1,1-3.23-3.24A3.23,3.23,0,0,1,251.41,154Z" style="fill:#407BFF;opacity:0.7000000000000001"></path></g><g id="freepik--Character--inject-46"><path d="M227.16,223.54l2.25,4a1.12,1.12,0,0,1,.13.44l.53,5.52a1.12,1.12,0,0,1-.25.82l-1.32,1.57c-.23.26-7.43.11-7.43.11a1.11,1.11,0,0,1-1.06-1.18l.45-7a1.14,1.14,0,0,1,.11-.4l1.9-4.07a1.12,1.12,0,0,1,1.09-.64l2.71.2A1.08,1.08,0,0,1,227.16,223.54Z" style="fill:#ff8b7b"></path><path d="M212.64,352.91c-12,14.12-26.74,29.7-26.74,29.7l-9.31-.31s11.57-21.43,22.66-39.06Z" style="fill:#ff8b7b"></path><path d="M252.74,277.68S240.85,307,238.05,312.62c-5.4,10.81-6.53,13.1-11.22,21.67-1.76,3.21-5.53,8.19-10.11,13.76-1.31,1.58-2.67,3.21-4.08,4.86l-13.39-9.67c1.07-1.69,2.13-3.36,3.18-5,4.58-7,8.86-12.91,12-15.84,0,0,10.06-51.53,17.1-72.8,1.66-5,6.9-13.28,7.88-15,0,0,17.05,29.58,18.13,31.13S252.74,277.68,252.74,277.68Z" style="fill:#407BFF"></path><path d="M256.62,269.83s-3.14,8-7.38,16.43c0,0-.72-11.76-12.9-32C255.17,255.84,256.62,269.83,256.62,269.83Z" style="opacity:0.30000000000000004;isolation:isolate"></path><polygon points="179.81 377.08 175.37 384.3 181.31 388.99 186.72 381.49 179.81 377.08" style="fill:#ff8b7b"></polygon><polygon points="197.58 346.27 210.39 355.49 214.14 351.07 199.41 343.3 197.58 346.27" style="opacity:0.2"></polygon><path d="M182.48,390.42a.22.22,0,0,1,0-.24.2.2,0,0,1,.21-.11c.15,0,3.64.36,4.6,1.53a1.11,1.11,0,0,1,.25.78.79.79,0,0,1-.51.74,3.72,3.72,0,0,1-2.48-.95A14.75,14.75,0,0,1,182.48,390.42Zm.7.16c1.21,1.11,3,2.38,3.67,2.15.09,0,.21-.1.23-.39a.6.6,0,0,0-.16-.48,1.5,1.5,0,0,0-.29-.27A9.67,9.67,0,0,0,183.18,390.58Z" style="fill:#407BFF"></path><path d="M182.39,390.34a.21.21,0,0,1,0-.2c.07-.08,1.63-1.87,3.07-2a1.58,1.58,0,0,1,1.14.38c.43.38.41.72.29.92-.42.91-3.23,1.24-4.35,1,0,0-.06,0-.07-.05A.18.18,0,0,1,182.39,390.34Zm3.91-1.55a1.12,1.12,0,0,0-.74-.2,4.78,4.78,0,0,0-2.49,1.51c1.25.1,3.23-.3,3.53-.82,0,0,.09-.19-.2-.43l-.1-.06Z" style="fill:#407BFF"></path><path d="M182.46,388.9l-7.77-5.53a.77.77,0,0,0-1,.05l-5.9,5.32a1.28,1.28,0,0,0-.11,1.81l.2.18c2.84,1.94,5.43,3.56,8.92,6,4.11,2.93,2.72,2.68,7.5,6.2,2.89,2.11,5.78-.82,4.66-1.86-5.14-4.74-4.51-6.87-5.25-10.45A3.12,3.12,0,0,0,182.46,388.9Z" style="fill:#263238"></path><path d="M282.05,146.81c.07.57-.16,1.08-.54,1.13s-.77-.4-.83-1,.17-1.08.54-1.12S282,146.23,282.05,146.81Z" style="fill:#263238"></path><path d="M280.89,145.8a1.29,1.29,0,0,0,1.32-.85,2.4,2.4,0,0,1-.33.93.71.71,0,0,1-.84.29Z" style="fill:#263238"></path><path d="M280.58,148.42l3.39,3.47a4,4,0,0,1-3.55.57Z" style="fill:#ba4d3c"></path><path d="M260.2,169.54s4.91-.69,4.5-9.76c0,0,4.48-2.25,7.53.32s-2.33,9,1.43,11.54S260.2,169.54,260.2,169.54Z" style="fill:#ff8b7b"></path><path d="M273.17,163.12l-3.39.2s.77,2.82,2.64,3.85C272.66,165.82,273.06,164.4,273.17,163.12Z" style="opacity:0.2"></path><path d="M259.74,147.29c.65,7.67.76,10.94,4.74,14.79,6,5.79,15.27,3.32,16.92-4.4,1.49-6.94.17-18.3-7.43-21.22a10.51,10.51,0,0,0-14.23,10.83Z" style="fill:#ff8b7b"></path><path d="M281.81,142.87a.31.31,0,0,1-.24.16,2.4,2.4,0,0,0-1.87,1.11.3.3,0,1,1-.53-.29,3,3,0,0,1,2.35-1.42.3.3,0,0,1,.33.27h0A.33.33,0,0,1,281.81,142.87Z" style="fill:#263238"></path><path d="M258.28,170.14l1.11-2.16a2.39,2.39,0,0,1,2.58-1.27c4,.74,13.6,2.64,14.92,4.19a6.3,6.3,0,0,1,1.54,4.14Z" style="fill:#407BFF"></path><g style="opacity:0.7000000000000001"><path d="M258.28,170.14l1.11-2.16a2.39,2.39,0,0,1,2.58-1.27c4,.74,13.6,2.64,14.92,4.19a6.3,6.3,0,0,1,1.54,4.14Z" style="fill:#fff;opacity:0.5"></path></g><path d="M247.23,189.21l-9,4.24c-4,2.05-6.29,4.76-7.92,13.05-1.7,8.73-3.11,17-3.11,17-2.53,2-5.95-.16-5.95-.16a84.5,84.5,0,0,1,.94-28.44c1.9-9.42,20.83-22.16,30.59-25.2a17,17,0,0,1,4.92-.77l1.72.23-11.45,20.58Z" style="fill:#407BFF"></path><path d="M247.23,189.21l-9,4.24c-4,2.05-6.29,4.76-7.92,13.05-1.7,8.73-3.11,17-3.11,17-2.53,2-5.95-.16-5.95-.16a84.5,84.5,0,0,1,.94-28.44c1.9-9.42,20.83-22.16,30.59-25.2a17,17,0,0,1,4.92-.77l1.72.23-11.45,20.58Z" style="opacity:0.6000000000000001"></path><path d="M284.39,203.75c3.08-8.79,3.58-9.06,2.93-13.13a55.4,55.4,0,0,0-1.24-5.7c-3.8-12.65-14.07-13.27-25.44-15.53s-12.78,3.36-13.34,18S246,225.73,246,225.73h0a50.81,50.81,0,0,0,24.89,6.51h7.9a67.67,67.67,0,0,1,1.59-12.38C284.39,203.75,281.87,211,284.39,203.75Z" style="fill:#407BFF"></path><g style="opacity:0.6000000000000001"><path d="M284.39,203.75c3.08-8.79,3.58-9.06,2.93-13.13a55.4,55.4,0,0,0-1.24-5.7c-3.8-12.65-14.07-13.27-25.44-15.53s-12.78,3.36-13.34,18S246,225.73,246,225.73h0a50.81,50.81,0,0,0,24.89,6.51h7.9a67.67,67.67,0,0,1,1.59-12.38C284.39,203.75,281.87,211,284.39,203.75Z"></path></g><path d="M276.48,151.88s9-15.42,1.78-18.84c-11.62-5.5-23.29-3.86-30,7.73-5.5,9.54-2.9,19.63,8.54,25.69,15.28,8.11,17.73-5.59,17-12C273.82,154.44,275.29,154.38,276.48,151.88Z" style="fill:#263238"></path><path d="M275.29,148.58a5.87,5.87,0,0,1,2.09,4c.16,2.08-1.8,2.73-3.56,1.83-1.59-.81-3.56-2.88-2.9-4.82A2.68,2.68,0,0,1,275.29,148.58Z" style="fill:#ff8b7b"></path><path d="M276.64,335c-1.39,9.3-4.32,17.48-6.4,25.6q-.8,3.12-1.61,6.05l-18-1.63c.32-1.94.66-3.91,1-5.89a252.6,252.6,0,0,1,5.73-25.83s-3.34-32.14-4.21-45.09a.42.42,0,0,1,0-.16c-.75-11-1.5-19.84-1.5-19.84s-8.39-3.27-13.18-10a17,17,0,0,1-2.85-6.2,14.66,14.66,0,0,1-.42-3.08c-.42-12.55,10.82-22.79,10.82-22.79A69.55,69.55,0,0,0,271.62,232l7.21.25S282.06,298.81,276.64,335Z" style="fill:#407BFF"></path><path d="M319.85,143.23c-.18-.34,6.1-9.13,6.1-9.13l2.14,8.66-.84,1.23a4.91,4.91,0,0,1-3.29,2.28S319.87,143.27,319.85,143.23Z" style="fill:#ff8b7b"></path><path d="M325.93,134.12l7-1.74-.15,5.3a4.72,4.72,0,0,1-2.7,4.15l-2,.95S324.06,138.4,325.93,134.12Z" style="fill:#ff8b7b"></path><path d="M334.76,131.93a.92.92,0,0,1,1.13,1.25h0a1.09,1.09,0,0,1-.85.74l-4.81.88-.74-1.55Z" style="fill:#ff8b7b"></path><path d="M309.9,172.39c7.37-7.25,15.53-25.9,15.53-25.9.15-1.75-3.91-3.09-5.58-3.26h0c-5.27,5.71-14.41,19.88-15.9,21.41a5.13,5.13,0,0,1-.83.62,1.3,1.3,0,0,1-.29.14l-.61.26c-1.11.5-2.22,1-3.38,1.43-4.59,1.84-.6.45-5.46,1.89s-9.87,2.86-14.72,4.1l-.07.06c-3.27.79-5.27,5.61-4.47,9a6.17,6.17,0,0,0,7.36,4.78S307.15,178.7,309.9,172.39Z" style="fill:#407BFF"></path><path d="M309.9,172.39c7.37-7.25,15.53-25.9,15.53-25.9.15-1.75-3.91-3.09-5.58-3.26h0c-5.27,5.71-14.41,19.88-15.9,21.41a5.13,5.13,0,0,1-.83.62,1.3,1.3,0,0,1-.29.14l-.61.26c-1.11.5-2.22,1-3.38,1.43-4.59,1.84-.6.45-5.46,1.89s-9.87,2.86-14.72,4.1l-.07.06c-3.27.79-5.27,5.61-4.47,9a6.17,6.17,0,0,0,7.36,4.78S307.15,178.7,309.9,172.39Z" style="opacity:0.6000000000000001"></path><path d="M245.8,153.91c0,3.73-2.5,7-5.34,9.43s-6.05,4.4-8.66,7.07c-10.53,10.76-10.34,18.35-9,21.81.31-2.8,7.91-10.16,7.91-10.16-1.66,2.29-2.85,4.6-4.32,7-2.74,4.48-4.7,15.51-.16,19.66,0,0,3.8-8.67,10.85-11.1,12.21-4.21-.53-2.32,3,8,1.63-4,11.42-6.6,15-9,5.77-3.76,7.55-9.92,6.54-16.73,2,3.1,1.95,8.84.34,12.14,2.55-1.39,9.66-.46,8.35-23.13a7.16,7.16,0,0,0,2.27,3.84c2.34,2.12,6.7,1.15,8.44-.36-4.43-1.59-6.66-6.82-7.26-18C266.16,149.24,254.34,150.34,245.8,153.91Z" style="fill:#263238"></path><path d="M267.33,366.57c-5.16,18.61-13.47,41.51-13.47,41.51l-7.32-1.91s2.18-24.41,4.93-41.11Z" style="fill:#ff8b7b"></path><path d="M255.81,409a.21.21,0,0,1-.14-.19.2.2,0,0,1,.13-.2c.14-.06,3.42-1.33,4.8-.71a1.08,1.08,0,0,1,.57.58.76.76,0,0,1-.12.89,3.67,3.67,0,0,1-2.64.27A14.73,14.73,0,0,1,255.81,409Zm.7-.18c1.58.45,3.76.76,4.25.26.06-.06.14-.18,0-.45a.55.55,0,0,0-.36-.35,1.27,1.27,0,0,0-.38-.11A9.69,9.69,0,0,0,256.51,408.82Z" style="fill:#407BFF"></path><path d="M255.7,409a.19.19,0,0,1-.06-.2c0-.1.61-2.4,1.84-3.14a1.58,1.58,0,0,1,1.2-.18c.55.15.68.46.67.69,0,1-2.32,2.56-3.42,2.87a.14.14,0,0,1-.09,0A.17.17,0,0,1,255.7,409Zm2.78-3.15a1.1,1.1,0,0,0-.75.15,4.9,4.9,0,0,0-1.54,2.48c1.16-.47,2.75-1.73,2.78-2.33,0-.05,0-.2-.37-.29Z" style="fill:#407BFF"></path><path d="M255.11,407.66l-9.43-1.43a.77.77,0,0,0-.83.49L242,414.13a1.29,1.29,0,0,0,.72,1.66l.26.07c3.41.45,6.46.72,10.7,1.37,5,.75,3.63,1.16,9.49,2.13,3.53.58,4.79-3.35,3.32-3.77-6.74-1.9-7.14-4.08-9.42-6.94A3,3,0,0,0,255.11,407.66Z" style="fill:#263238"></path><path d="M250.89,368.76c0-.1,15.38,1.55,15.38,1.55l1.06-3.74-15.86-1.51Z" style="opacity:0.2"></path></g></svg>