<svg xmlns="http://www.w3.org/2000/svg" viewBox="0 0 166.38 139.02"><defs><style>.cls-1,.cls-2{fill:none;stroke-miterlimit:10;stroke-width:20px;}.cls-1{stroke:#bd66d3;}.cls-2{stroke:#65a0e5;}.cls-3{fill:#542899;}.cls-4{fill:#ddd;}</style></defs><g id="Layer_2" data-name="Layer 2"><g id="Layer_1-2" data-name="Layer 1"><path class="cls-1" d="M54.77,77.47l-33-20L35.1,37.69a64.23,64.23,0,0,1,89.23-16.37l36.28,25.62"/><path class="cls-2" d="M103.77,60.47,143.61,85l-12.32,16.79c-20.15,29.11-60.07,36.43-89.24,14.36L5.77,90.54"/><path class="cls-3" d="M63.4,40.64H92.15A16.66,16.66,0,0,1,108.81,57.3v43a3.46,3.46,0,0,1-3.46,3.46h-42a3.46,3.46,0,0,1-3.46-3.46V44.09a3.46,3.46,0,0,1,3.46-3.46Z" transform="translate(56.66 -35.33) rotate(34.99)"/><rect class="cls-4" x="95.92" y="52.94" width="7.52" height="10.99" rx="1.55" transform="translate(51.53 -46.6) rotate(34.99)"/><rect class="cls-4" x="104.13" y="58.69" width="7.52" height="10.99" rx="1.55" transform="translate(56.31 -50.27) rotate(34.99)"/><rect class="cls-4" x="79.5" y="41.44" width="7.52" height="10.99" rx="1.55" transform="translate(41.96 -39.26) rotate(34.99)"/><rect class="cls-4" x="87.71" y="47.19" width="7.52" height="10.99" rx="1.55" transform="translate(46.75 -42.93) rotate(34.99)"/><rect class="cls-4" x="88.16" y="64.02" width="7.52" height="10.99" rx="1.55" transform="translate(56.48 -40.15) rotate(34.99)"/><rect class="cls-4" x="96.37" y="69.77" width="7.52" height="10.99" rx="1.55" transform="translate(61.26 -43.82) rotate(34.99)"/><rect class="cls-4" x="71.74" y="52.53" width="7.52" height="10.99" rx="1.55" transform="translate(46.92 -32.81) rotate(34.99)"/><rect class="cls-4" x="79.95" y="58.28" width="7.52" height="10.99" rx="1.55" transform="translate(51.7 -36.48) rotate(34.99)"/><rect class="cls-4" x="80.4" y="75.11" width="7.52" height="10.99" rx="1.55" transform="translate(61.43 -33.69) rotate(34.99)"/><rect class="cls-4" x="88.61" y="80.86" width="7.52" height="10.99" rx="1.55" transform="translate(66.21 -37.36) rotate(34.99)"/><rect class="cls-4" x="63.98" y="63.61" width="7.52" height="10.99" rx="1.55" transform="translate(51.87 -26.35) rotate(34.99)"/><rect class="cls-4" x="72.19" y="69.36" width="7.52" height="10.99" rx="1.55" transform="translate(56.65 -30.02) rotate(34.99)"/><rect class="cls-4" x="72.64" y="86.19" width="7.52" height="10.99" rx="1.55" transform="translate(66.39 -27.24) rotate(34.99)"/><rect class="cls-4" x="80.85" y="91.94" width="7.52" height="10.99" rx="1.55" transform="translate(71.17 -30.91) rotate(34.99)"/><rect class="cls-4" x="56.22" y="74.7" width="7.52" height="10.99" rx="1.55" transform="translate(56.83 -19.9) rotate(34.99)"/><rect class="cls-4" x="64.43" y="80.45" width="7.52" height="10.99" rx="1.55" transform="translate(61.61 -23.57) rotate(34.99)"/></g></g></svg>