<svg width="1436" height="784" viewBox="0 0 1436 784" fill="none" xmlns="http://www.w3.org/2000/svg">
<path d="M651 728.29C627.82 747.49 552 797 509 779.29L85.32 570.66C66.68 562.1 50.55 543.82 39.67 518.92L-4 419V0H1436V140.71" fill="url(#paint0_linear_499_37)"/>
<path opacity="0.1" d="M-4 30.57V327.14C41.19 403.36 118.54 443.06 203 469.14C289.4 495.98 383.4 508.69 474.94 470.64C566.48 432.59 655.59 343.79 696.06 249.19C729.38 170.9 729.51 88.51 719.41 0H19.82C11.1322 9.5846 3.17016 19.8028 -4 30.57H-4Z" fill="white"/>
<path opacity="0.1" d="M1040.28 151C972.28 152.95 844.75 290.48 787.28 393C729.81 495.52 741.59 544.28 751.58 646.81C751.78 648.81 752 650.76 752.24 652.74L1224.82 299C1164.25 206.43 1101.79 149.4 1040.28 151Z" fill="white"/>
<defs>
<linearGradient id="paint0_linear_499_37" x1="-4" y1="393.01" x2="1436" y2="393.01" gradientUnits="userSpaceOnUse">
<stop stop-color="#6A6AE5"/>
<stop offset="0.6" stop-color="#7C52C9"/>
<stop offset="1" stop-color="#8546BC"/>
</linearGradient>
</defs>
</svg>
