<svg width="40" height="40" viewBox="0 0 40 40" fill="none" xmlns="http://www.w3.org/2000/svg">
<path d="M38 29V11C38 9.34 36.66 8 35 8H6.97998C5.31998 8 3.97998 9.34 3.97998 11V29C3.97998 30.66 5.31998 32 6.97998 32H35C36.66 32 38 30.66 38 29ZM35.38 10.78C36.04 11.44 35.68 12.12 35.32 12.46L27.2 19.9L35 28.02C35.24 28.3 35.4 28.74 35.12 29.04C34.86 29.36 34.26 29.34 34 29.14L25.26 21.68L20.98 25.58L16.72 21.68L7.97998 29.14C7.71998 29.34 7.11998 29.36 6.85998 29.04C6.57998 28.74 6.73998 28.3 6.97998 28.02L14.78 19.9L6.65998 12.46C6.29998 12.12 5.93998 11.44 6.59998 10.78C7.25998 10.12 7.93998 10.44 8.49998 10.92L20.98 21L33.48 10.92C34.04 10.44 34.72 10.12 35.38 10.78V10.78Z" fill="#A067EA"/>
</svg>
