<svg width="1440" height="273" viewBox="0 0 1440 273" fill="none" xmlns="http://www.w3.org/2000/svg">
<path d="M0 16L30.0363 35.0593C60.2137 54.2288 120.286 92.3475 180.5 108.212C240.714 123.966 300.786 117.356 361 110.966C421.214 104.466 481.286 98.2966 541.5 96.7542C601.714 95.322 661.786 98.6271 722 88.4915C782.214 78.4661 842.286 54.8898 902.5 52.6864C962.714 50.483 1022.79 69.6526 1083 92.2373C1143.21 114.822 1203.29 140.822 1263.5 129.144C1323.71 117.356 1383.79 67.7797 1413.96 42.9915L1444 18.2034V276H1413.96C1383.79 276 1323.71 276 1263.5 276C1203.29 276 1143.21 276 1083 276C1022.79 276 962.714 276 902.5 276C842.286 276 782.214 276 722 276C661.786 276 601.714 276 541.5 276C481.286 276 421.214 276 361 276C300.786 276 240.714 276 180.5 276C120.286 276 60.2137 276 30.0363 276H0L0 16Z" fill="url(#paint0_linear_510_294)"/>
<path opacity="0.1" d="M271.464 176.045C237.675 145.168 110.822 152.803 34.4326 176.094C-41.9574 199.384 -59.3856 228.771 -103.176 283.645C-104.028 284.718 -104.846 285.776 -105.669 286.857L290.474 334.889C305.096 261.214 301.951 204.055 271.464 176.045Z" fill="white"/>
<path opacity="0.1" d="M1659.27 463.94V167.37C1614.08 91.1497 1536.73 51.4498 1452.27 25.3698C1365.87 -1.47025 1271.87 -14.1802 1180.33 23.8698C1088.79 61.9198 999.681 150.72 959.211 245.32C925.891 323.61 925.762 406 935.862 494.51L1635.45 494.51C1644.14 484.925 1652.1 474.707 1659.27 463.94V463.94Z" fill="white"/>
<defs>
<linearGradient id="paint0_linear_510_294" x1="7.01945" y1="268.081" x2="1129.71" y2="235.172" gradientUnits="userSpaceOnUse">
<stop stop-color="#6A6AE5"/>
<stop offset="1" stop-color="#B45AEB" stop-opacity="0.93"/>
</linearGradient>
</defs>
</svg>
