<svg xmlns="http://www.w3.org/2000/svg" viewBox="0 0 500 500"><g id="freepik--Shadow--inject-146"><ellipse cx="272.09" cy="456.95" rx="146.67" ry="14.68" style="fill:#ebebeb"></ellipse></g><g id="freepik--Manual--inject-146"><polygon points="327.35 407.96 92.15 423.47 92.15 67.81 327.35 55.26 327.35 407.96" style="fill:#BA68C8"></polygon><rect x="123.26" y="81.07" width="250.98" height="358.62" style="fill:#BA68C8"></rect><rect x="123.26" y="81.07" width="250.98" height="358.62" style="opacity:0.2"></rect><rect x="123.26" y="81.07" width="7.83" height="358.62" style="opacity:0.1"></rect><polygon points="123.25 81.07 95.08 69.06 321.88 63.8 368.14 81.07 123.25 81.07" style="fill:#fff"></polygon><polygon points="97.25 70.15 112.92 69.55 128.58 69.03 159.91 68.11 191.25 67.36 206.92 67.05 222.6 66.82 206.93 67.42 191.27 67.94 159.93 68.86 128.59 69.61 112.92 69.92 97.25 70.15" style="fill:#ebebeb"></polygon><polygon points="111.8 71.65 139.06 70.86 166.34 70.19 220.88 68.86 275.42 67.78 302.69 67.24 329.97 66.82 302.7 67.61 275.43 68.28 220.89 69.61 166.35 70.69 139.07 71.23 111.8 71.65" style="fill:#ebebeb"></polygon><path d="M111.21,75.8c10.18-.36,20.37-.61,30.55-.85l30.55-.57L202.87,74l15.28-.09,15.28,0-15.27.47-15.28.37-30.55.58-30.56.34C131.58,75.79,121.4,75.85,111.21,75.8Z" style="fill:#ebebeb"></path><polygon points="116.69 78.8 136.66 78.41 156.64 78.13 196.58 77.72 236.53 77.55 256.51 77.54 276.48 77.64 256.51 78.03 236.54 78.31 196.59 78.72 156.64 78.89 136.67 78.9 116.69 78.8" style="fill:#ebebeb"></polygon><path d="M249.81,75c8.84-.21,17.69-.3,26.53-.38l26.53-.12,26.52.11,13.27.14,13.26.25-13.26.24-13.27.14-26.52.12-26.53-.12C267.5,75.25,258.65,75.16,249.81,75Z" style="fill:#ebebeb"></path><path d="M242,71.07c7.94-.34,15.89-.56,23.83-.76l23.83-.49,23.83-.26,11.92,0,11.92.06L325.43,70l-11.92.32-23.83.49-23.83.26C257.91,71.12,250,71.15,242,71.07Z" style="fill:#ebebeb"></path><path d="M321.88,63.8c3.93,1.25,7.82,2.6,11.7,4s7.74,2.81,11.61,4.21,7.69,2.91,11.52,4.42l5.73,2.29c1.9.8,3.81,1.57,5.7,2.39-2-.61-3.91-1.28-5.87-1.93l-5.83-2c-3.88-1.37-7.74-2.81-11.6-4.21s-7.7-2.91-11.53-4.43S325.67,65.44,321.88,63.8Z" style="fill:#ebebeb"></path><polygon points="92.15 423.47 123.25 439.69 123.25 81.07 92.15 67.81 92.15 423.47" style="fill:#BA68C8"></polygon><polygon points="92.15 423.47 123.25 439.69 123.25 81.07 92.15 67.81 92.15 423.47" style="opacity:0.4"></polygon><path d="M186,140.92a.24.24,0,0,1,.26-.26.25.25,0,0,1,.24.26v13.62a.25.25,0,0,1-.24.27.24.24,0,0,1-.26-.27Z" style="fill:#fff"></path><path d="M192.53,141.71v12.83a.25.25,0,0,1-.24.27.28.28,0,0,1-.26-.27V141a.32.32,0,0,1,.1-.22.27.27,0,0,1,.36,0l9.34,13V141a.28.28,0,0,1,.26-.26.25.25,0,0,1,.24.26v13.52a.25.25,0,0,1-.24.27.26.26,0,0,1-.24-.16s0,0,0,0Z" style="fill:#fff"></path><path d="M206.9,152.4a.24.24,0,0,1,.32,0,8.33,8.33,0,0,0,4.91,1.94,5.63,5.63,0,0,0,3.34-1,3,3,0,0,0,1.35-2.36,2.58,2.58,0,0,0-1.29-2.17,9.1,9.1,0,0,0-3.44-1.19l0,0a8.91,8.91,0,0,1-3.35-1.19,2.81,2.81,0,0,1-1.4-2.36c0-2,2.2-3.56,4.79-3.56a7.82,7.82,0,0,1,4.37,1.66.22.22,0,0,1,.06.32.23.23,0,0,1-.31.06,7.39,7.39,0,0,0-4.12-1.58,5.39,5.39,0,0,0-3.09.93,2.74,2.74,0,0,0-1.23,2.17,2.35,2.35,0,0,0,1.19,2,8.63,8.63,0,0,0,3.17,1.13h0a10.11,10.11,0,0,1,3.62,1.27,3,3,0,0,1,1.49,2.55c0,2.18-2.36,3.84-5.15,3.84a8.68,8.68,0,0,1-5.19-2A.26.26,0,0,1,206.9,152.4Z" style="fill:#fff"></path><path d="M224.62,141.17H220a.25.25,0,0,1-.26-.25.26.26,0,0,1,.26-.26h9.84a.25.25,0,0,1,.26.26.24.24,0,0,1-.26.25h-4.65v13.37a.28.28,0,0,1-.26.27.25.25,0,0,1-.26-.27Z" style="fill:#fff"></path><path d="M241.17,151.76a2.83,2.83,0,0,0-1-2.19,5.16,5.16,0,0,0-1.69-.93,3.1,3.1,0,0,0-.53-.12h-3.84v6a.25.25,0,0,1-.24.27.27.27,0,0,1-.26-.27V140.92a.26.26,0,0,1,.26-.26H238a4,4,0,0,1,3.94,3.94,3.88,3.88,0,0,1-2.83,3.76,5.49,5.49,0,0,1,.73.36,3.45,3.45,0,0,1,1.84,3,5.07,5.07,0,0,0,.3,2.06c.19.28.29.24.31.24h0a.27.27,0,0,1,.3.18.23.23,0,0,1-.16.3s-.08,0-.18,0a.89.89,0,0,1-.73-.54A4.63,4.63,0,0,1,241.17,151.76ZM238,148h0a3.39,3.39,0,0,0,3.38-3.4,3.43,3.43,0,0,0-3.42-3.43h-3.9V148Z" style="fill:#fff"></path><path d="M245.31,140.92a.25.25,0,0,1,.26-.26.25.25,0,0,1,.24.26v8.21a5.16,5.16,0,1,0,10.31,0v-8.21a.26.26,0,0,1,.26-.26.28.28,0,0,1,.26.26v8.21a5.67,5.67,0,1,1-11.33,0Z" style="fill:#fff"></path><path d="M268.44,140.46A7.56,7.56,0,0,1,273,142a.27.27,0,0,1,.08.36.26.26,0,0,1-.38,0,7,7,0,0,0-4.29-1.44,6.65,6.65,0,1,0,0,13.3,6.93,6.93,0,0,0,4.27-1.43.28.28,0,0,1,.38,0,.24.24,0,0,1-.06.36,7.65,7.65,0,0,1-4.59,1.56,7.18,7.18,0,1,1,0-14.35Z" style="fill:#fff"></path><path d="M281.15,141.17h-4.67a.25.25,0,0,1-.26-.25.26.26,0,0,1,.26-.26h9.84a.26.26,0,0,1,.27.26.25.25,0,0,1-.27.25h-4.64v13.37a.29.29,0,0,1-.27.27.25.25,0,0,1-.26-.27Z" style="fill:#fff"></path><path d="M290.54,140.92a.24.24,0,0,1,.27-.26.25.25,0,0,1,.24.26v13.62a.25.25,0,0,1-.24.27.25.25,0,0,1-.27-.27Z" style="fill:#fff"></path><path d="M302.83,140.46a7.32,7.32,0,1,1-6.89,7.29A7.12,7.12,0,0,1,302.83,140.46Zm0,14.06a6.78,6.78,0,1,0-6.35-6.77A6.64,6.64,0,0,0,302.83,154.52Z" style="fill:#fff"></path><path d="M313.72,141.71v12.83a.25.25,0,0,1-.24.27.28.28,0,0,1-.27-.27V141a.29.29,0,0,1,.11-.22.27.27,0,0,1,.36,0l9.33,13V141a.29.29,0,0,1,.27-.26.25.25,0,0,1,.24.26v13.52a.25.25,0,0,1-.24.27.26.26,0,0,1-.24-.16s0,0,0,0Z" style="fill:#fff"></path><path d="M206.32,162.67v20.5a2,2,0,0,1-1.95,1.91,1.9,1.9,0,0,1-1.91-1.91V168.54l-5,7a1.87,1.87,0,0,1-1.56.8h-.07a1.93,1.93,0,0,1-1.6-.8l-5-7v14.63a1.93,1.93,0,0,1-3.86,0v-20.5a1.93,1.93,0,0,1,1.91-1.91h.11a1.9,1.9,0,0,1,1.53.8l6.91,9.59,6.92-9.59a1.88,1.88,0,0,1,1.56-.8h0A2,2,0,0,1,206.32,162.67Z" style="fill:#fff"></path><path d="M224.87,179.35h-8.44l-1.71,4.52a1.94,1.94,0,0,1-1.8,1.21,2,2,0,0,1-.66-.1,2,2,0,0,1-1.15-2.5L218.79,162a1.94,1.94,0,0,1,1.84-1.21,1.9,1.9,0,0,1,1.84,1.21l7.68,20.47A2,2,0,0,1,229,185a1.83,1.83,0,0,1-.66.1,1.87,1.87,0,0,1-1.77-1.21Zm-1.42-3.82-2.82-7.47-2.81,7.47Z" style="fill:#fff"></path><path d="M238.73,183.17a1.9,1.9,0,1,1-3.79,0V163a1.88,1.88,0,0,1,3.41-1.18l11.22,15.53V163a1.89,1.89,0,0,1,1.88-1.88,1.92,1.92,0,0,1,1.91,1.88v20.18a1.92,1.92,0,0,1-1.91,1.91,1.88,1.88,0,0,1-1.43-.69.78.78,0,0,1-.17-.21l-11.12-15.43Z" style="fill:#fff"></path><path d="M270,185.08a10,10,0,0,1-10-10V162.67a1.88,1.88,0,0,1,1.91-1.91,1.94,1.94,0,0,1,2,1.91V175a6.19,6.19,0,1,0,12.37,0V162.67a1.92,1.92,0,0,1,1.94-1.91,1.88,1.88,0,0,1,1.91,1.91V175A10,10,0,0,1,270,185.08Z" style="fill:#fff"></path><path d="M298.9,179.35h-8.44l-1.7,4.52a2,2,0,0,1-1.81,1.21,2,2,0,0,1-.66-.1,2,2,0,0,1-1.15-2.5L292.82,162a1.94,1.94,0,0,1,1.84-1.21A1.9,1.9,0,0,1,296.5,162l7.68,20.47A2,2,0,0,1,303,185a1.91,1.91,0,0,1-.66.1,1.88,1.88,0,0,1-1.78-1.21Zm-1.42-3.82-2.82-7.47-2.81,7.47Z" style="fill:#fff"></path><path d="M308.94,183.17v-20.5a1.9,1.9,0,0,1,1.91-1.91,1.94,1.94,0,0,1,1.95,1.91v18.56h9.41a1.93,1.93,0,0,1,0,3.85H310.85A1.9,1.9,0,0,1,308.94,183.17Z" style="fill:#fff"></path><rect x="185.4" y="192.61" width="138.72" height="2" style="fill:#fff"></rect><path d="M293.88,240.13a16.23,16.23,0,0,1-16.76,3.43l-46.8,44.17a16.26,16.26,0,0,1-21.16,20l9.67-9.14-3.09-7-6.85-3.5-9.68,9.14a16.27,16.27,0,0,1,21.18-20L267.17,233a16.25,16.25,0,0,1,21.17-20l-9.69,9.13,3.11,7,6.84,3.51,9.69-9.15A16.28,16.28,0,0,1,293.88,240.13Z" style="opacity:0.1"></path><rect x="247.11" y="242.82" width="5.97" height="32.57" transform="translate(233.35 618.84) rotate(-133.35)" style="opacity:0.1"></rect><g style="opacity:0.1"><path d="M280.22,283.92a11.59,11.59,0,1,0,11.58-11.59A11.59,11.59,0,0,0,280.22,283.92Zm2.47,0A9.12,9.12,0,1,1,291.8,293,9.11,9.11,0,0,1,282.69,283.92Zm-2.47,0a11.59,11.59,0,1,0,11.58-11.59A11.59,11.59,0,0,0,280.22,283.92Zm2.47,0A9.12,9.12,0,1,1,291.8,293,9.11,9.11,0,0,1,282.69,283.92Zm-10.41,0a19.53,19.53,0,1,0,19.52-19.53A19.53,19.53,0,0,0,272.28,283.92Zm6.83,0a12.7,12.7,0,1,1,12.69,12.7A12.72,12.72,0,0,1,279.11,283.92Zm1.11,0a11.59,11.59,0,1,0,11.58-11.59A11.59,11.59,0,0,0,280.22,283.92Zm2.47,0A9.12,9.12,0,1,1,291.8,293,9.11,9.11,0,0,1,282.69,283.92Z"></path><polygon points="289.51 264.74 293.99 264.74 293.54 260.28 289.96 260.28 289.51 264.74"></polygon><polygon points="299.41 266.17 303.28 268.4 305.13 264.31 302.03 262.52 299.41 266.17"></polygon><polygon points="307.27 272.35 309.5 276.22 313.14 273.6 311.35 270.5 307.27 272.35"></polygon><polygon points="310.98 281.63 310.98 286.1 315.44 285.65 315.44 282.07 310.98 281.63"></polygon><polygon points="309.56 291.52 307.32 295.39 311.41 297.24 313.2 294.14 309.56 291.52"></polygon><polygon points="303.38 299.38 299.51 301.61 302.13 305.26 305.23 303.47 303.38 299.38"></polygon><polygon points="294.1 303.09 289.63 303.09 290.07 307.56 293.65 307.56 294.1 303.09"></polygon><polygon points="284.21 301.67 280.33 299.44 278.49 303.52 281.59 305.31 284.21 301.67"></polygon><polygon points="276.35 295.49 274.11 291.62 270.47 294.24 272.26 297.34 276.35 295.49"></polygon><polygon points="272.63 286.21 272.63 281.74 268.17 282.19 268.17 285.77 272.63 286.21"></polygon><polygon points="274.05 276.32 276.29 272.44 272.2 270.6 270.41 273.7 274.05 276.32"></polygon><polygon points="280.23 268.46 284.11 266.22 281.49 262.58 278.39 264.37 280.23 268.46"></polygon></g><g style="opacity:0.1"><path d="M213.85,234.51a6.22,6.22,0,1,0-5.62-6.77A6.21,6.21,0,0,0,213.85,234.51Zm-4.86-6.7a5.46,5.46,0,1,1,4.92,5.94A5.45,5.45,0,0,1,209,227.81Zm4.86,6.7a6.22,6.22,0,1,0-5.62-6.77A6.21,6.21,0,0,0,213.85,234.51Zm-4.86-6.7a5.46,5.46,0,1,1,4.92,5.94A5.45,5.45,0,0,1,209,227.81Zm4.86,6.7a6.22,6.22,0,1,0-5.62-6.77A6.21,6.21,0,0,0,213.85,234.51Zm-4.86-6.7a5.46,5.46,0,1,1,4.92,5.94A5.45,5.45,0,0,1,209,227.81Zm4.22,13.56a13.11,13.11,0,1,0-11.84-14.26A13.11,13.11,0,0,0,213.21,241.37Zm-5.94-13.72a7.18,7.18,0,1,1,6.48,7.82A7.2,7.2,0,0,1,207.27,227.65Zm1,.09a6.22,6.22,0,1,0,6.76-5.61A6.22,6.22,0,0,0,208.23,227.74Zm.76.07a5.46,5.46,0,1,1,4.92,5.94A5.45,5.45,0,0,1,209,227.81Zm4.86,6.7a6.22,6.22,0,1,0-5.62-6.77A6.21,6.21,0,0,0,213.85,234.51Zm-4.86-6.7a5.46,5.46,0,1,1,4.92,5.94A5.45,5.45,0,0,1,209,227.81Zm4.86,6.7a6.22,6.22,0,1,0-5.62-6.77A6.21,6.21,0,0,0,213.85,234.51Zm-4.86-6.7a5.46,5.46,0,1,1,4.92,5.94A5.45,5.45,0,0,1,209,227.81Z"></path><polygon points="213.07 215.58 218.09 216.04 218.15 212.47 213.68 212.05 213.07 215.58"></polygon><polygon points="222.47 218.16 225.69 222.03 228.25 219.54 225.39 216.09 222.47 218.16"></polygon><polygon points="227.29 226.62 226.82 231.64 230.4 231.69 230.81 227.23 227.29 226.62"></polygon><polygon points="224.71 236.01 220.83 239.23 223.32 241.8 226.77 238.94 224.71 236.01"></polygon><polygon points="216.25 240.83 211.23 240.37 211.18 243.94 215.64 244.36 216.25 240.83"></polygon><polygon points="206.85 238.25 203.63 234.38 201.07 236.87 203.93 240.32 206.85 238.25"></polygon><polygon points="202.03 229.79 202.5 224.77 198.92 224.72 198.51 229.18 202.03 229.79"></polygon><polygon points="204.61 220.4 208.49 217.18 206 214.61 202.55 217.47 204.61 220.4"></polygon></g><g style="opacity:0.1"><path d="M230.12,242.19a8.05,8.05,0,1,0,6.16-9.58A8.05,8.05,0,0,0,230.12,242.19Zm4.2-.92a3.76,3.76,0,1,1,4.47,2.88A3.75,3.75,0,0,1,234.32,241.27Z"></path><polygon points="234.84 233.26 237.87 232.6 237.23 230.5 234.54 231.08 234.84 233.26"></polygon><polygon points="240.82 233.03 243.43 234.71 244.47 232.77 242.15 231.28 240.82 233.03"></polygon><polygon points="245.21 237.09 245.87 240.12 247.98 239.49 247.39 236.8 245.21 237.09"></polygon><polygon points="245.45 243.08 243.77 245.68 245.71 246.72 247.2 244.41 245.45 243.08"></polygon><polygon points="241.38 247.47 238.35 248.13 238.99 250.23 241.68 249.65 241.38 247.47"></polygon><polygon points="235.4 247.7 232.79 246.03 231.75 247.96 234.07 249.45 235.4 247.7"></polygon><polygon points="231.01 243.64 230.35 240.61 228.24 241.24 228.83 243.94 231.01 243.64"></polygon><polygon points="230.77 237.66 232.45 235.05 230.51 234.01 229.02 236.33 230.77 237.66"></polygon><path d="M239.38,238.31l-2.57-.12-1.39,2.16,1.18,2.29,2.57.12,1.39-2.16Zm-1.22,3a.8.8,0,0,1-1-.62.81.81,0,0,1,1.59-.35A.82.82,0,0,1,238.16,241.27Z"></path></g><path d="M301.06,75h26.29a70.24,70.24,0,0,1,10,6.12v49.71l-12-8.24-12.55,8.24V81.07Z" style="fill:#37474f"></path><path d="M187.59,74.65l24.92-.38s-3.76-14.41-5.65-17.92S193,42.83,193,42.83L191.58,51l-19.26-2.74s7.84,7,10.4,9.73C184.74,60.11,187.59,74.65,187.59,74.65Z" style="fill:#BA68C8"></path><polygon points="153.27 70.73 174.9 70.19 173.05 52.18 163.77 59.31 152.82 53.6 153.27 70.73" style="fill:#263238"></polygon></g><g id="freepik--Character--inject-146"><path d="M410.25,453.26c-2.59.93-79.15,2.44-82,.69-.33-.18-1.58-25.51-1.58-25.51.09-.36-1.19-2.81-3.14-6.2-5.46-9.52-16.13-26.59-16.13-26.59l45.44-13.74,18.67,37.4,4.76,9.54s10.43,4.08,19.54,8.15l0,0c5.61,2.5,10.49,4.78,11.63,5.64C410.35,444.91,412.83,452.35,410.25,453.26Z" style="fill:#ffc4c0"></path><path d="M410.25,453.26c-2.59.93-79.15,2.44-82,.69-.33-.18-1.58-25.51-1.58-25.51.09-.36-1.19-2.81-3.14-6.2l48-2.93,4.76,9.54s10.43,4.08,19.54,8.15l0,0c5.61,2.5,10.49,4.78,11.63,5.64C410.35,444.91,412.83,452.35,410.25,453.26Z" style="fill:#fff"></path><path d="M410.57,453.54c-2.66.95-79.33,2.26-82.29.46-1.12-.67-2.47-12.47-1.65-25.56l49.43-.79s28.62,12.65,31.66,15S413.23,452.6,410.57,453.54Z" style="fill:#BA68C8"></path><path d="M348.34,454.87c-10.91-.05-19.12-.31-20.06-.86-1.12-.68-2.48-12.48-1.65-25.57l1.21,0Z" style="opacity:0.1"></path><path d="M409.42,450.5c-12.86-.1-64.73.73-77.44,1.61-.11,0-.11.08,0,.08,12.74.38,64.6-.87,77.44-1.48C409.69,450.69,409.69,450.5,409.42,450.5Z" style="fill:#263238"></path><path d="M402.74,440a10.32,10.32,0,0,0-7.64,3.27,10,10,0,0,0-2.75,6.91c0,.07.14.07.15,0a11.93,11.93,0,0,1,10.24-10C402.84,440.1,402.84,440,402.74,440Z" style="fill:#263238"></path><path d="M380.11,428.87c-5.14,0-11.07,1.93-14.2,6.19-.12.17.12.34.27.26a71.11,71.11,0,0,1,14-5.82A.32.32,0,0,0,380.11,428.87Z" style="fill:#263238"></path><path d="M384.11,430.35c-5.14,0-11.08,1.93-14.2,6.19-.12.17.11.34.27.26a70.61,70.61,0,0,1,14-5.82A.32.32,0,0,0,384.11,430.35Z" style="fill:#263238"></path><path d="M388.11,431.83c-5.15,0-11.08,1.93-14.2,6.19-.12.17.11.34.26.26a71,71,0,0,1,14-5.82A.32.32,0,0,0,388.11,431.83Z" style="fill:#263238"></path><path d="M392.11,433.31c-5.15,0-11.08,1.93-14.21,6.19-.12.17.12.34.27.26a71,71,0,0,1,14-5.82A.32.32,0,0,0,392.11,433.31Z" style="fill:#263238"></path><path d="M335,439.85c-5.77.12-5.6,9.09.18,9S340.82,439.74,335,439.85Z" style="fill:#263238"></path><path d="M385.44,415.05c-2.64-2.12-5.89.05-7.45,2.32a26.93,26.93,0,0,0-4.45,13.23c0,.11.08.15.16.15a.64.64,0,0,0,.93.4c3.62-2.6,7.81-4.93,10.53-8.56C386.74,420.47,387.93,417.05,385.44,415.05Zm-6.13,11c-1.74,1.32-3.55,2.54-5.25,3.93.88-2.58,1.64-5.18,2.77-7.67a29.17,29.17,0,0,1,1.82-3.51c1.09-1.71,6.06-6.1,6.67-.51C385.66,421.41,381.4,424.51,379.31,426.09Z" style="fill:#263238"></path><path d="M360.79,432.73c4.49.61,9.09-.75,13.48-1.5a.64.64,0,0,0,.37-1,.14.14,0,0,0,0-.22A27,27,0,0,0,362.1,424c-2.72-.47-6.54.32-6.89,3.68C354.89,430.82,358.17,432.37,360.79,432.73Zm-3.16-2.88c-3.55-4.35,3.06-4.82,5.05-4.39a28.83,28.83,0,0,1,3.77,1.16,80,80,0,0,1,7.41,3.41c-2.18.24-4.31.66-6.48,1C364.79,431.4,359.59,432.25,357.63,429.85Z" style="fill:#263238"></path><path d="M320,421.75l53.91-8.17S348,361.93,332,333.9c-8.92-15.58-33.32-16.34-45.19,2.33-15.85,24.94-28.15,48.31-35.2,61.27l-12.23,1.05,2.64,20,40.64,9.1c15.57,1.86,26.49-25.85,26.75-25.38C311.37,405.89,320,421.75,320,421.75Z" style="fill:#37474f"></path><path d="M309.68,402.37c-1.53-3.14-2.73-6.47-4.09-9.69s-2.64-6.22-3.95-9.34c-2.65-6.3-5.39-12.57-7.95-18.9-1.44-3.55-2.76-7.15-4.11-10.74a.07.07,0,0,0-.14,0q1.57,5.1,3.26,10.14c-.3-.58-.6-1.16-.91-1.73q-1.31-2.31-2.66-4.6c0-.06-.12,0-.09.05.83,1.54,1.66,3.07,2.51,4.59.43.76.9,1.5,1.35,2.26a237.4,237.4,0,0,0,11.18,27.62c1.72,3.52,3.72,6.89,5.44,10.4C309.57,402.58,309.74,402.48,309.68,402.37Z" style="fill:#263238"></path><path d="M321.24,412.17c-2.6-4-8.79-16.15-11-20.35-4.48-8.49-8.59-17.15-12.47-25.93-2.19-5-4.24-10-6.27-15,0,0-.07,0-.05,0a285.64,285.64,0,0,0,10.63,26.63c4,8.72,16.71,32.19,19,34.73C321.16,412.36,321.31,412.27,321.24,412.17Z" style="fill:#263238"></path><path d="M287.77,357.6c-4.64,8.29-9.39,16.53-14.06,24.82-2.35,4.18-4.71,8.37-7,12.57-1.1,2-2.16,4-3.3,5.93a11.18,11.18,0,0,1-4.26,4.42,33.44,33.44,0,0,1-6.76,2.36c-2.63.77-5.23,1.59-7.87,2.31a.1.1,0,0,0,.06.19c2.35-.63,4.72-1.17,7.08-1.75a62.27,62.27,0,0,0,6.43-1.74,10.29,10.29,0,0,0,4.76-3.29,38.2,38.2,0,0,0,3.34-5.57q7-12.78,13.85-25.63c2.6-4.86,5.18-9.74,7.81-14.6C287.83,357.6,287.79,357.57,287.77,357.6Z" style="fill:#263238"></path><path d="M318.81,414.18c3.23-.58,6.54-.87,9.79-1.28l9.8-1.27c6.52-.85,28.69-4.39,30.37-4.94.1,0,.06-.21,0-.21-1.59-.05-16.11,1.88-19.37,2.36-6.51,1-13,2.12-19.47,3.21-1.86.31-3.7.67-5.55,1s-3.7.72-5.56,1C318.67,414,318.7,414.2,318.81,414.18Z" style="fill:#263238"></path><path d="M351.13,470.17c-.86-2.61-47.07-63.68-50.23-64.85-.36-.16-21,14.54-21,14.54-.85,1.14-40.12-7.16-40.12-7.16l-.39,47.37,71.53-1.52s9.66,5.68,18.5,10.31h0c5.44,2.86,10.26,5.28,11.63,5.64C344.64,475.42,352,472.76,351.13,470.17Z" style="fill:#ffc4c0"></path><path d="M341.06,474.5c-1.38-.35-6.19-2.76-11.62-5.64,0,0,0,0,0,0-8.83-4.62-18.49-10.31-18.49-10.31l-15.92.34-24.93-40.21c5.47,1,9.55,1.55,9.83,1.18,0,0,20.65-14.7,21-14.54,3.16,1.17,49.37,62.23,50.23,64.84S344.64,475.43,341.06,474.5Z" style="fill:#fff"></path><path d="M351.56,470.25c-.91-2.68-47.33-63.71-50.58-64.91-1.22-.47-11.33,5.77-21.1,14.52l30,39.31s27.65,14.65,31.35,15.6S352.47,472.92,351.56,470.25Z" style="fill:#BA68C8"></path><path d="M348.45,471.23c-8-10-39.49-51.29-46.66-61.82-.06-.09,0-.13.06-.05,8.18,9.77,39.3,51.28,46.77,61.74C348.78,471.32,348.62,471.44,348.45,471.23Z" style="fill:#263238"></path><path d="M336,472.51a10.34,10.34,0,0,1-2.16-8,10,10,0,0,1,3.73-6.44c.06,0,.15.07.09.12a11.93,11.93,0,0,0-1.53,14.25A.08.08,0,0,1,336,472.51Z" style="fill:#263238"></path><path d="M313.33,461.6c-3.18-4.05-5.34-9.9-3.93-15,.06-.2.34-.11.37.05a70.87,70.87,0,0,0,4.11,14.63A.32.32,0,0,1,313.33,461.6Z" style="fill:#263238"></path><path d="M317,463.83c-3.17-4.06-5.34-9.9-3.92-15,0-.2.33-.12.36.05a71,71,0,0,0,4.12,14.62A.33.33,0,0,1,317,463.83Z" style="fill:#263238"></path><path d="M320.6,466.05c-3.17-4.05-5.34-9.9-3.93-15,.06-.2.34-.12.37.05a71.25,71.25,0,0,0,4.12,14.63A.32.32,0,0,1,320.6,466.05Z" style="fill:#263238"></path><path d="M324.24,468.27c-3.18-4-5.34-9.9-3.93-15,.06-.19.34-.11.37.06A71,71,0,0,0,324.79,468,.32.32,0,0,1,324.24,468.27Z" style="fill:#263238"></path><path d="M294.05,419.4c-3.48-4.6,3.67-10,7.16-5.41S297.54,424,294.05,419.4Z" style="fill:#263238"></path><path d="M311.52,469.45c1.17-4.38.4-9.11.2-13.56a.63.63,0,0,0-.89-.49.13.13,0,0,0-.21,0A26.94,26.94,0,0,0,303,467.05c-.82,2.63-.51,6.52,2.79,7.29C308.88,475.06,310.84,472,311.52,469.45Zm-3.25,2.77c-4.76,3-4.4-3.64-3.72-5.56a27.69,27.69,0,0,1,1.62-3.6,80.75,80.75,0,0,1,4.31-6.92c0,2.19.12,4.36.17,6.55C310.7,465.31,310.9,470.57,308.27,472.22Z" style="fill:#263238"></path><path d="M296.94,442.81c-2.43,2.35-.68,5.84,1.37,7.68a27,27,0,0,0,12.57,6.08c.11,0,.16-.06.17-.15a.62.62,0,0,0,.51-.87c-2.12-3.92-3.9-8.37-7.16-11.51C302.49,442.2,299.24,440.58,296.94,442.81Zm10.19,7.46c1.09,1.9,2.08,3.84,3.24,5.7a78.69,78.69,0,0,1-7.26-3.71,28,28,0,0,1-3.25-2.24c-1.57-1.3-5.3-6.78.32-6.68C303.28,443.39,305.83,448,307.13,450.27Z" style="fill:#263238"></path><path d="M260.29,401.76S181.91,388,159.61,392.52c-31.1,6.31-36.81,43.08-13.74,56.78,29.21,17.36,146.9,14,146.9,14l-28.1-47.64s-43.24-9.1-82.45-7.78l78.41,12Z" style="fill:#37474f"></path><path d="M266.54,418.73a.71.71,0,0,1-.06-.24c0-.07,0-.14-.05-.2l-.12-.46c-.09-.32-.21-.63-.33-.94s-.25-.6-.39-.9a8,8,0,0,0-.53-.84.24.24,0,0,0-.08-.06l-.05,0a.15.15,0,0,0-.07,0l-.07,0c-4.75-.88-37.06-5.51-41.87-6.06s-9.7-1-14.55-1.41c-9.69-.81-19.44-1.21-29.16-1l-2.73.09c-.2-.07-.4-.1-.6-.15-.47-.11-.93-.23-1.41-.32-.87-.17-1.76-.29-2.64-.43-1.84-.28-3.69-.48-5.52-.82-.11,0-.15.15,0,.17,1.84.41,3.65.94,5.49,1.35.53.11,1.06.23,1.6.33-3.57.19-7.13.47-10.69.79-.11,0-.11.18,0,.18,4.84-.29,9.72-.33,14.57-.24s9.63.18,14.44.46c9.73.56,19.45,1.43,29.14,2.44,5.44.57,38.38,5.38,43.84,5.61h.07c0,.12.09.25.15.37.15.3.3.59.46.88s.31.56.49.82l.27.4.14.2a1.43,1.43,0,0,1,.14.2A.09.09,0,1,0,266.54,418.73Z" style="fill:#263238"></path><path d="M282.64,460.4c-1.74-2.78-3.23-5.75-4.82-8.62l-4.8-8.64c-3.2-5.74-14.68-25-15.81-26.39a.11.11,0,0,0-.18.11c.54,1.5,7.7,14.28,9.35,17.13,3.3,5.69,6.76,11.28,10.18,16.91,1,1.6,2,3.19,3,4.79s2.05,3.16,3,4.8C282.54,460.59,282.7,460.5,282.64,460.4Z" style="fill:#263238"></path><path d="M256.88,421.55c-2.87-.68-5.81-1.13-8.7-1.68l-8.72-1.64q-8.73-1.62-17.48-3.09c-11.63-2-23.32-3.59-35.06-4.71-6.63-.64-13.28-1.06-19.92-1.55-.14,0-.14.22,0,.22,11.83.54,23.64,2.14,35.35,3.82s23.18,3.5,34.74,5.45l9.78,1.67c3.31.58,6.62,1.28,9.95,1.71A.1.1,0,0,0,256.88,421.55Z" style="fill:#263238"></path><path d="M241.4,327c7.29,18.18,22.64,45.84,32.53,44.28,9-1.42,26.94-20.31,34.65-26.76S294.4,320.06,290,324.1c-6.77,6.26-16.7,17.12-18.68,16.78-2.48-.43-6.31-5.82-22.23-21.08C242.59,313.56,238.3,319.3,241.4,327Z" style="fill:#ffc4c0"></path><path d="M298,314.83c3.78-2,8-4.53,12.4-5.08s8.95,4.79,9.18,6.46.05,12.35-4.38,13-2.89-7.77-3.19-8.67-.63-2-1.45-1.84-14.46,9.2-14.46,9.2Z" style="fill:#ffc4c0"></path><path d="M298.35,315.41c.26,0,11.46-6.4,15.9-6.94s8.94,4.78,9.18,6.46,0,12.35-4.39,13-2.89-7.77-3.19-8.66-.63-2.05-1.45-1.85-14.46,9.21-14.46,9.21Z" style="fill:#ffc4c0"></path><path d="M317.46,327.56a5.33,5.33,0,0,1-1.11-2.52,9.08,9.08,0,0,1-.24-2.85,15.16,15.16,0,0,0,.19-2.51,4.88,4.88,0,0,0-.94-2.25c-.43-.57-1.05-.27-1.58,0a20.47,20.47,0,0,0-2.26,1.43c-.79.53-1.56,1.09-2.34,1.64a22.9,22.9,0,0,0-2.37,1.78c-.05,0,0,.15.07.11.74-.38,1.41-.87,2.11-1.32s1.57-1,2.36-1.52,1.47-1,2.22-1.42c.26-.16.78-.55,1.11-.52s.64.84.75,1.09a4.25,4.25,0,0,1,.19,2.42,12.2,12.2,0,0,0-.12,2.49,6.58,6.58,0,0,0,.51,2.28,9,9,0,0,0,1.33,1.76C317.4,327.74,317.53,327.63,317.46,327.56Z" style="fill:#263238"></path><path d="M286,329s10.69-12.91,12.93-15.5c4.5-5.18,24.83-17.05,27.79-17.79s4.92,5.27-8.82,13.75c-7.24,4.46-8,9.08-7.5,11.51s3.48,6.67,7.59,6,5.93-7.09,9.62-8.29,2.17,6.09.07,10.48a25.5,25.5,0,0,1-9.87,10.22c-3.37,1.84-13.73,8.16-13.73,8.16Z" style="fill:#ffc4c0"></path><path d="M322.64,323.33c-1.38,1.42-2.92,3.23-4.95,3.59s-3.66-.8-4.89-2.38a7.93,7.93,0,0,1-1.89-5.54,9.78,9.78,0,0,1,2.17-5,23.84,23.84,0,0,1,5.06-4.5c.09-.06,0-.18-.1-.12-1.78,1.11-7.33,4.36-7.78,9.74a8.09,8.09,0,0,0,2,5.64c1.15,1.52,2.7,2.91,4.72,2.79,2.47-.15,4.28-2.42,5.82-4.15C322.84,323.29,322.72,323.26,322.64,323.33Z" style="fill:#263238"></path><path d="M285.73,327.45l22.39,25.9s-26.82,20.43-35.43,19S248.3,349,240.24,329s5.79-13.86,11.63-8.15,18.66,19,19.21,18.72S285.73,327.45,285.73,327.45Z" style="fill:#BA68C8"></path><path d="M288.33,351.6a1.74,1.74,0,0,1-.82-.18,1.5,1.5,0,0,1-.83-1.2,2,2,0,0,0-1.47-1.63,2,2,0,0,0-1.07.05c-.31.11-.62.18-.93.3.33.05.65.05,1,.09a2.12,2.12,0,0,1,.83.14,1.49,1.49,0,0,1,.87,1.16A2,2,0,0,0,287.3,352a1.85,1.85,0,0,0,1.07,0,7.8,7.8,0,0,0,.93-.31C289,351.62,288.65,351.62,288.33,351.6Zm-17.69,3.87c-.1-.31-.18-.62-.31-.93-.05.33-.05.65-.08,1a1.67,1.67,0,0,1-.15.83,1.5,1.5,0,0,1-1.15.88,2,2,0,0,0-1.68,1.4,1.88,1.88,0,0,0,0,1.08c.11.31.18.62.3.93,0-.33,0-.65.09-1a1.75,1.75,0,0,1,.17-.81,1.45,1.45,0,0,1,1.2-.83,1.94,1.94,0,0,0,1.63-1.47A2,2,0,0,0,270.64,355.47ZM287.91,330a2,2,0,0,0-1.16,1.27,1.88,1.88,0,0,0,0,1.08c.1.31.18.62.3.93.05-.33.05-.65.08-1a1.68,1.68,0,0,1,.18-.82,1.43,1.43,0,0,1,1.14-.82Zm13.88,25.67c-.1-.31-.18-.62-.31-.93-.05.33-.05.65-.08,1a1.79,1.79,0,0,1-.14.83,1.48,1.48,0,0,1-1.16.87,2,2,0,0,0-1.68,1.41,1.77,1.77,0,0,0,0,1.07l.09.29.28-.19c0-.05,0-.1,0-.15A1.73,1.73,0,0,1,299,359a1.46,1.46,0,0,1,1.2-.83,2,2,0,0,0,1.64-1.47A2,2,0,0,0,301.79,355.64ZM255.25,336c-.11-.31-.19-.62-.31-.93-.05.33-.05.65-.09,1a1.79,1.79,0,0,1-.14.83,1.48,1.48,0,0,1-1.16.88,2,2,0,0,0-1.67,1.4,1.73,1.73,0,0,0,0,1.08c.1.31.17.62.3.93,0-.33,0-.65.08-1a1.68,1.68,0,0,1,.18-.82,1.43,1.43,0,0,1,1.2-.83,2,2,0,0,0,1.63-1.46A2.15,2.15,0,0,0,255.25,336Zm-8.75-19.09h0a1.54,1.54,0,0,1-.55-.29h-.07a1.44,1.44,0,0,0-.6-.28l0,0h0a1.85,1.85,0,0,0-1.47.23,1.81,1.81,0,0,0-.72.79c-.15.29-.31.56-.45.87.27-.2.51-.42.76-.63a1.8,1.8,0,0,1,.69-.49,1.48,1.48,0,0,1,1.43.2,2,2,0,0,0,2.08.25C247.19,317.3,246.85,317.1,246.5,316.91Zm10,8.51-.13.23c-.15.29-.31.57-.45.88.27-.19.5-.42.76-.64l.15-.14Zm16.62,15.7a1.71,1.71,0,0,1-.69.45,1.5,1.5,0,0,1-1.44-.26,2,2,0,0,0-2.2-.12,2.06,2.06,0,0,0-.71.8c-.15.28-.31.56-.45.87.27-.19.5-.42.76-.64a1.85,1.85,0,0,1,.69-.47,1.46,1.46,0,0,1,1.43.19,2,2,0,0,0,2.18.19,1.79,1.79,0,0,0,.74-.78c.15-.28.31-.56.45-.86A8.74,8.74,0,0,0,273.11,341.12Zm24-.48-.1.05a1.91,1.91,0,0,0-.71.8,7.89,7.89,0,0,0-.44.87c.26-.2.49-.43.74-.63a1.8,1.8,0,0,1,.69-.49l.28-.07Zm-11.62,25.84a1.64,1.64,0,0,1-.7.47,1.55,1.55,0,0,1-1.44-.26,1.93,1.93,0,0,0-2.19-.12,1.84,1.84,0,0,0-.71.79c-.16.29-.32.57-.45.87.27-.2.5-.42.75-.63a1.92,1.92,0,0,1,.69-.49,1.5,1.5,0,0,1,1.44.21,2,2,0,0,0,2.17.19,1.84,1.84,0,0,0,.74-.78,9.1,9.1,0,0,0,.45-.88C286,366.05,285.76,366.28,285.51,366.48Z" style="fill:#fff"></path><path d="M289,366.2c-6.25,3.64-12.49,6.53-16,6.16l-.31,0C264.08,370.85,248.3,349,240.24,329a32.72,32.72,0,0,1-2.39-8.36c0-.1,0-.2,0-.3a4.19,4.19,0,0,1,0-.5,1.34,1.34,0,0,1,0-.2c0-.16,0-.31,0-.46Z" style="opacity:0.1"></path><path d="M297.47,352c-.72-.93-1.45-1.85-2.18-2.77-1.47-1.84-10.27-12.77-13.59-16-.09-.08-.22,0-.16.15,2.55,3.89,11.58,14.56,13.08,16.32.77.9,1.53,1.79,2.31,2.68s1.67,1.7,2.45,2.6c.07.08.22,0,.15-.11C298.81,353.94,298.2,352.92,297.47,352Z" style="fill:#263238"></path><path d="M202.74,400s34.48,5.6,55.22,5.73A25.67,25.67,0,0,0,275.79,399c.94-1.09-21.91-73.54-29.68-83.47-1.67-2.12-12.45-6.05-17.93.06C206.88,339.38,202.74,400,202.74,400Z" style="fill:#BA68C8"></path><path d="M238.41,331.49a1.8,1.8,0,0,1-.82-.17,1.51,1.51,0,0,1-.82-1.2,2,2,0,0,0-1.47-1.63,1.83,1.83,0,0,0-1.07.05,7.8,7.8,0,0,0-.93.31c.32,0,.65,0,1,.07a1.83,1.83,0,0,1,.84.16,1.45,1.45,0,0,1,.87,1.14,2,2,0,0,0,1.41,1.68,1.94,1.94,0,0,0,1.07,0c.31-.11.62-.18.93-.31A8.09,8.09,0,0,0,238.41,331.49Zm31,45a1.29,1.29,0,0,0-.41-.16,2,2,0,0,0-1.07.05c-.31.11-.62.18-.93.3.33.06.65.06,1,.09a2.18,2.18,0,0,1,.84.14,1.52,1.52,0,0,1,.87,1.16,2,2,0,0,0,.6,1.2C270,378.4,269.73,377.48,269.43,376.53Zm-53.65-17.48a1.61,1.61,0,0,1-.81-.18,1.46,1.46,0,0,1-.83-1.19,1.93,1.93,0,0,0-2.53-1.59c-.31.11-.63.18-.93.31a7.77,7.77,0,0,0,1,.08,1.92,1.92,0,0,1,.83.15,1.46,1.46,0,0,1,.87,1.15,2,2,0,0,0,1.41,1.67,1.8,1.8,0,0,0,1.08,0,8.45,8.45,0,0,0,.93-.31C216.43,359.07,216.11,359.07,215.78,359.05Zm58,41a1.81,1.81,0,0,1-.83-.17,1.53,1.53,0,0,1-.82-1.2,2,2,0,0,0-1.47-1.64,2.12,2.12,0,0,0-1.07.06c-.31.1-.63.18-.93.3.32.05.66.05,1,.08a1.81,1.81,0,0,1,.83.15,1.46,1.46,0,0,1,.87,1.16,2,2,0,0,0,1.41,1.67,1.94,1.94,0,0,0,1.07,0l.57-.19h0l.16-.13ZM238,383.46a2,2,0,0,1-.83-.16,1.52,1.52,0,0,1-.83-1.2,2,2,0,0,0-1.46-1.64,2,2,0,0,0-1.07.06c-.31.1-.63.17-.93.3.32.05.65.05,1,.08a1.86,1.86,0,0,1,.84.15,1.47,1.47,0,0,1,.87,1.15,1.91,1.91,0,0,0,2.48,1.66c.31-.11.62-.19.93-.31C238.67,383.5,238.35,383.5,238,383.46ZM205.6,394.09a1.73,1.73,0,0,1-.81-.17,1.49,1.49,0,0,1-.84-1.19,1.92,1.92,0,0,0-.4-1c-.07.59-.14,1.15-.19,1.69a1.9,1.9,0,0,0,1.22,1,1.77,1.77,0,0,0,1.07,0c.31-.1.62-.18.93-.31C206.25,394.12,205.93,394.12,205.6,394.09Zm45.11-38.41a1.94,1.94,0,0,1-.82-.16,1.53,1.53,0,0,1-.83-1.2,2,2,0,0,0-1.46-1.65,2,2,0,0,0-1.08.06c-.31.11-.62.18-.93.3.33.06.65.06,1,.09a1.77,1.77,0,0,1,.83.14,1.46,1.46,0,0,1,.87,1.16,2,2,0,0,0,1.42,1.67,1.77,1.77,0,0,0,1.07,0c.31-.1.62-.18.93-.31C251.36,355.71,251,355.71,250.71,355.68Zm-16.14,6.2c-.1-.31-.18-.62-.3-.93-.05.33-.05.65-.08,1a1.83,1.83,0,0,1-.15.84,1.46,1.46,0,0,1-1.16.87,2,2,0,0,0-1.67,1.41,1.76,1.76,0,0,0,0,1.07c.1.31.18.62.3.93.05-.33.05-.65.08-1a1.63,1.63,0,0,1,.18-.82,1.49,1.49,0,0,1,1.2-.83,2,2,0,0,0,1.63-1.47A2,2,0,0,0,234.57,361.88ZM257,386.6c-.11-.31-.19-.62-.31-.93,0,.33,0,.65-.09,1a1.72,1.72,0,0,1-.14.82,1.48,1.48,0,0,1-1.16.88,2,2,0,0,0-1.67,1.41,1.77,1.77,0,0,0,0,1.07c.1.31.17.62.3.93.05-.33.05-.65.08-1a1.61,1.61,0,0,1,.18-.81,1.43,1.43,0,0,1,1.2-.83,2,2,0,0,0,1.63-1.47A2.12,2.12,0,0,0,257,386.6ZM255.25,336c-.11-.31-.19-.62-.31-.93-.05.33-.05.65-.09,1a1.79,1.79,0,0,1-.14.83,1.48,1.48,0,0,1-1.16.88,2,2,0,0,0-1.67,1.4,1.73,1.73,0,0,0,0,1.08c.1.31.17.62.3.93,0-.33,0-.65.08-1a1.68,1.68,0,0,1,.18-.82,1.43,1.43,0,0,1,1.2-.83,2,2,0,0,0,1.63-1.46A2.15,2.15,0,0,0,255.25,336Zm-37.37-1.91a8.37,8.37,0,0,0-.3-.93c-.05.33-.05.65-.08,1a1.71,1.71,0,0,1-.15.84,1.51,1.51,0,0,1-.93.82c-.12.28-.24.58-.35.87l.24,0a1.93,1.93,0,0,0,1.63-1.47A1.89,1.89,0,0,0,217.88,334.09Zm7.36,62.12a7.8,7.8,0,0,0-.31-.93c-.05.32-.05.65-.07,1a1.79,1.79,0,0,1-.16.83,1.48,1.48,0,0,1-1.14.88,1.91,1.91,0,0,0-1.66,2.48c.1.26.16.52.26.79h.05c0-.29,0-.57.07-.86a1.76,1.76,0,0,1,.18-.81,1.5,1.5,0,0,1,1.2-.83,1.94,1.94,0,0,0,1.63-1.47A1.88,1.88,0,0,0,225.24,396.21ZM247.06,317h0a1.48,1.48,0,0,1-1.12-.33,1.93,1.93,0,0,0-2.19-.11,1.81,1.81,0,0,0-.72.79c-.15.29-.31.56-.45.87.27-.2.51-.42.76-.63a1.8,1.8,0,0,1,.69-.49,1.48,1.48,0,0,1,1.43.2,2,2,0,0,0,2,.31ZM226,319a1.68,1.68,0,0,1-.69.45l-.17,0c-.19.25-.37.51-.55.77a1.85,1.85,0,0,0,1-.24,1.93,1.93,0,0,0,.74-.79c.15-.28.31-.55.44-.86C226.43,318.57,226.2,318.8,226,319Zm6.11,24.31a1.53,1.53,0,0,1-.69.45,1.51,1.51,0,0,1-1.45-.25,2,2,0,0,0-2.19-.12,1.9,1.9,0,0,0-.71.79c-.15.3-.31.57-.45.88.27-.2.5-.43.75-.64A1.77,1.77,0,0,1,228,344a1.47,1.47,0,0,1,1.44.2,2,2,0,0,0,2.18.19,1.85,1.85,0,0,0,.74-.78c.15-.29.31-.56.44-.87C232.54,342.88,232.31,343.11,232.06,343.32Zm-13.37,36.41a1.71,1.71,0,0,1-.69.46,1.52,1.52,0,0,1-1.44-.26,2,2,0,0,0-2.2-.12,2.08,2.08,0,0,0-.72.79c-.14.29-.31.57-.44.88.27-.2.5-.42.75-.64a1.91,1.91,0,0,1,.7-.48,1.47,1.47,0,0,1,1.42.2,2,2,0,0,0,2.18.19A1.87,1.87,0,0,0,219,380c.14-.29.31-.57.44-.87C219.17,379.29,219,379.52,218.69,379.73Zm36.38-8.42a1.61,1.61,0,0,1-.7.46,1.5,1.5,0,0,1-1.43-.25,1.9,1.9,0,0,0-2.91.67c-.15.29-.32.57-.44.87.27-.2.49-.43.74-.63a1.8,1.8,0,0,1,.69-.49,1.48,1.48,0,0,1,1.44.21,2,2,0,0,0,2.17.18,1.76,1.76,0,0,0,.74-.77,9.1,9.1,0,0,0,.45-.88C255.55,370.87,255.32,371.1,255.07,371.31ZM245,399.38a1.74,1.74,0,0,1-.7.46,1.52,1.52,0,0,1-1.44-.26,2,2,0,0,0-2.19-.12,1.93,1.93,0,0,0-.72.79c-.15.3-.31.57-.45.88.27-.2.51-.43.76-.63a1.8,1.8,0,0,1,.69-.49,1.49,1.49,0,0,1,1.43.2,2,2,0,0,0,2.18.2,1.86,1.86,0,0,0,.74-.79c.15-.29.31-.57.45-.87C245.43,399,245.2,399.18,245,399.38Z" style="fill:#fff"></path><path d="M225.27,338.38c6,18.73,27.17,52.36,38.15,54.25,12.71,2.19,53-17.26,60.41-24.49,2.95-2.88-17.62-21.65-21.5-19.57-16.29,8.75-31.06,14.15-33.48,13-3.73-1.83-20.4-19.72-31.15-30.77C224.2,316.89,222.58,330,225.27,338.38Z" style="fill:#ffc4c0"></path><polygon points="350.04 296.12 327.51 285.99 318.85 328.72 340.96 336.62 350.04 296.12" style="fill:#BA68C8"></polygon><polygon points="350.04 296.12 327.51 285.99 318.85 328.72 340.96 336.62 350.04 296.12" style="opacity:0.1"></polygon><path d="M347.46,296.46,328.33,288l-.53,1.38L321,323.75a39.77,39.77,0,0,1,4.86,3.9c1.94,1.92,7.69,8.21,13.09,7.7Z" style="fill:#fff"></path><path d="M347,298.67s-4.94-1.27-7.62-3.13-5.33-4-7.38-4.71-4.14-1.57-4.14-1.57l.47-1.22,19.13,8.42Z" style="fill:#ebebeb"></path><polygon points="311.63 343.02 343.09 337.21 350.04 296.12 316.8 299.76 311.63 343.02" style="fill:#BA68C8"></polygon><path d="M322.83,368.87c1.78-.94,13.38-12.15,16.56-17.09A57.2,57.2,0,0,0,347.15,335c2.57-9.47,3.45-16.26,2.11-19.06-1.55-3.25-1.94-3.75-8.78,12.33-3.87,9.1-8.55,10.72-12.74,11.24A65,65,0,0,0,299,350.31S316,372.46,322.83,368.87Z" style="fill:#ffc4c0"></path><path d="M315.91,335a34.66,34.66,0,0,0-7.62,4.3,21.17,21.17,0,0,0-5.07,6.29c-.05.1.09.21.15.11,2.93-4.85,7.86-7.77,12.6-10.58C316,335,316,334.93,315.91,335Z" style="fill:#263238"></path><path d="M329.81,339.11c-4.3.68,8.49-10.07,8-15s-5.05-2.72-8.44.59c-11.74,11.48-21.69,12.41-27,22.55S329.81,339.11,329.81,339.11Z" style="fill:#ffc4c0"></path><path d="M269.6,360.22c3.49.43,26-9.29,26-9.29l17.64,29.92s-39.39,15.24-49.36,13.29S234.51,362,227.07,343.9c-7-17-2.63-29.38,12.55-12.88C239.62,331,267.78,360,269.6,360.22Z" style="fill:#BA68C8"></path><path d="M255.07,371.31a1.61,1.61,0,0,1-.7.46,1.5,1.5,0,0,1-1.43-.25,1.9,1.9,0,0,0-2.91.67c-.15.29-.32.57-.44.87.27-.2.49-.43.74-.63a1.8,1.8,0,0,1,.69-.49,1.48,1.48,0,0,1,1.44.21,2,2,0,0,0,2.17.18,1.76,1.76,0,0,0,.74-.77,9.1,9.1,0,0,0,.45-.88C255.55,370.87,255.32,371.1,255.07,371.31Zm30.44-4.83a1.64,1.64,0,0,1-.7.47,1.55,1.55,0,0,1-1.44-.26,1.93,1.93,0,0,0-2.19-.12,1.84,1.84,0,0,0-.71.79c-.16.29-.32.57-.45.87.27-.2.5-.42.75-.63a1.92,1.92,0,0,1,.69-.49,1.5,1.5,0,0,1,1.44.21,2,2,0,0,0,2.17.19,1.84,1.84,0,0,0,.74-.78,9.1,9.1,0,0,0,.45-.88C286,366.05,285.76,366.28,285.51,366.48Zm15.22,8.67a1.88,1.88,0,0,1-.7.47,1.54,1.54,0,0,1-1.44-.26,2,2,0,0,0-2.19-.13,1.91,1.91,0,0,0-.71.8,8,8,0,0,0-.45.87c.27-.2.5-.43.74-.63a1.83,1.83,0,0,1,.7-.49,1.46,1.46,0,0,1,1.43.21,2,2,0,0,0,2.17.18,1.79,1.79,0,0,0,.75-.77,9,9,0,0,0,.44-.88C301.2,374.72,301,374.94,300.73,375.15Zm-68.67-31.83a1.53,1.53,0,0,1-.69.45,1.51,1.51,0,0,1-1.45-.25,2,2,0,0,0-2.19-.12,1.72,1.72,0,0,0-.61.62l.18.43,0,0A1.77,1.77,0,0,1,228,344a1.47,1.47,0,0,1,1.44.2,2,2,0,0,0,2.18.19,1.85,1.85,0,0,0,.74-.78c.15-.29.31-.56.44-.87C232.54,342.88,232.31,343.11,232.06,343.32Zm54.52,41.2c-.1-.31-.19-.62-.31-.93,0,.33,0,.65-.08,1a1.61,1.61,0,0,1-.15.82,1.48,1.48,0,0,1-1.16.88,2,2,0,0,0-1.67,1.41,1.85,1.85,0,0,0,0,1.07c.1.31.18.62.3.93,0-.33,0-.65.08-1a1.61,1.61,0,0,1,.18-.81,1.45,1.45,0,0,1,1.2-.83,2,2,0,0,0,1.63-1.47A2.12,2.12,0,0,0,286.58,384.52Zm12.9-26.95a2,2,0,0,0-1.06,1.23,1.77,1.77,0,0,0,0,1.07c.1.31.17.62.3.93.05-.33.05-.65.08-1A1.73,1.73,0,0,1,299,359a1.48,1.48,0,0,1,.87-.76Zm-32.16.91a.88.88,0,0,0-.05.15,1.88,1.88,0,0,0,0,1.08c.11.31.18.62.3.93,0-.33,0-.65.09-1a1.67,1.67,0,0,1,.14-.73ZM257,386.6c-.11-.31-.19-.62-.31-.93,0,.33,0,.65-.09,1a1.72,1.72,0,0,1-.14.82,1.48,1.48,0,0,1-1.16.88h0l.65.64h0a2,2,0,0,0,1.13-1.33A2.12,2.12,0,0,0,257,386.6Zm-6.31-30.92a1.94,1.94,0,0,1-.82-.16,1.53,1.53,0,0,1-.83-1.2,2,2,0,0,0-1.46-1.65,2,2,0,0,0-1.08.06c-.31.11-.62.18-.93.3.33.06.65.06,1,.09a1.77,1.77,0,0,1,.83.14,1.46,1.46,0,0,1,.87,1.16,2,2,0,0,0,1.42,1.67,1.77,1.77,0,0,0,1.07,0c.31-.1.62-.18.93-.31C251.36,355.71,251,355.71,250.71,355.68Zm21.43,23.7a1.74,1.74,0,0,1-.82-.18,1.49,1.49,0,0,1-.84-1.19,2,2,0,0,0-1.46-1.64,2,2,0,0,0-1.07.05c-.31.11-.62.18-.93.3.33.06.65.06,1,.09a2.18,2.18,0,0,1,.84.14,1.52,1.52,0,0,1,.87,1.16,2,2,0,0,0,1.4,1.67,1.8,1.8,0,0,0,1.08,0,7.8,7.8,0,0,0,.93-.31C272.78,379.4,272.46,379.4,272.14,379.38Zm-33.73-47.89a1.8,1.8,0,0,1-.82-.17,1.51,1.51,0,0,1-.82-1.2,2,2,0,0,0-1.47-1.63,1.83,1.83,0,0,0-1.07.05,7.8,7.8,0,0,0-.93.31c.32,0,.65,0,1,.07a1.83,1.83,0,0,1,.84.16,1.45,1.45,0,0,1,.87,1.14,2,2,0,0,0,1.41,1.68,1.94,1.94,0,0,0,1.07,0c.31-.11.62-.18.93-.31A8.09,8.09,0,0,0,238.41,331.49Z" style="fill:#fff"></path><path d="M293.62,387.78q-1.42.48-2.88.93" style="fill:#ebebeb"></path><path d="M274.39,359.19c.87-.28,1.81-.59,2.79-.93" style="fill:#ebebeb"></path><path d="M263.21,393.24c-8.55-3-21.39-22.92-23.87-26.84-1.59-2.51-3.08-5.08-4.55-7.66-2.95-5.17-5.73-10.43-8.42-15.73a.08.08,0,1,0-.14.07c1.65,4.15,3.52,8.23,5.57,12.22a46.42,46.42,0,0,1-3.29-4.48c0-.08-.18,0-.13.08a27,27,0,0,0,3.82,5.18q3.13,6,6.82,11.68c.7,1.08,15.76,25.63,25,26.8,3.21.41,13.7-1.85,15.87-2.69.1,0,.1-.15,0-.14C276.83,392.09,266.26,394.29,263.21,393.24Z" style="fill:#263238"></path><path d="M303.87,378.25c-.55-1-1.11-2.08-1.67-3.12-1.12-2.07-7.86-14.37-10.56-18.13a.11.11,0,0,0-.18.11c1.82,4.28,8.83,16.37,10,18.37l1.81,3c.61,1,1.34,2,2,3,.06.1.22,0,.17-.08C304.84,380.39,304.41,379.29,303.87,378.25Z" style="fill:#263238"></path><path d="M295.58,351c-1.92.36-18.85,6.9-22.59,8.32a8.22,8.22,0,0,1-2.81.8,4.25,4.25,0,0,1-2.53-1.39c-1.46-1.26-17.71-17.42-18.83-18.17-.42-.28-.72-.31-.29.21.75.9,16.59,16.88,18,18.12s2.56,2.37,4.44,2c.82-.15,23.68-8.78,24.77-9.43C296,351.32,295.89,350.92,295.58,351Z" style="fill:#263238"></path><path d="M243.65,326.53c-3.59-.07-11.6-6-12.77-11.42-.07-.38,1.43-3.62,3.08-7.65,1-2.44,2-5.19,2.81-7.77.15-.53,15,8.77,15,8.77a42.47,42.47,0,0,0-4.52,9.42A5.64,5.64,0,0,0,247,319a1.48,1.48,0,0,1,0,.19C246.72,321.26,247.5,326.61,243.65,326.53Z" style="fill:#ffc4c0"></path><path d="M247,319s0,.11,0,.18a12.37,12.37,0,0,1-1.68-.41c-9.45-3.06-8.39-15.72-8-18.88,2.75,1.27,14.41,8.59,14.41,8.59a43,43,0,0,0-4.53,9.43A5.31,5.31,0,0,0,247,319Z" style="fill:#263238"></path><path d="M235.25,280.11c-2.5,5.73-1.35,23.26,2.43,27.57,5.49,6.26,15.46,7.95,21,1.13,5.4-6.61,3.49-29.43-.83-33.45C251.51,269.43,238.94,271.64,235.25,280.11Z" style="fill:#ffc4c0"></path><path d="M251.13,292.54c0-.05-.09.06-.09.11.11,1.18,0,2.54-1,3a0,0,0,0,0,0,.07C251.34,295.45,251.42,293.64,251.13,292.54Z" style="fill:#263238"></path><path d="M250,291.37c-1.91,0-1.83,3.79-.06,3.81S251.6,291.39,250,291.37Z" style="fill:#263238"></path><path d="M257.66,292.36s.09.06.09.11c0,1.18.17,2.54,1.25,2.91,0,0,0,.07,0,.06C257.68,295.29,257.45,293.48,257.66,292.36Z" style="fill:#263238"></path><path d="M258.68,291.1c1.9-.18,2.14,3.63.38,3.8S257.09,291.26,258.68,291.1Z" style="fill:#263238"></path><path d="M248.45,289.65a13,13,0,0,0,1.47-.55,2.52,2.52,0,0,0,1.39-.85.81.81,0,0,0-.15-1,2,2,0,0,0-2-.16,2.91,2.91,0,0,0-1.66,1.3A.86.86,0,0,0,248.45,289.65Z" style="fill:#263238"></path><path d="M260.12,289.15c-.53-.08-1-.23-1.53-.36a2.53,2.53,0,0,1-1.48-.67.8.8,0,0,1,0-1,2,2,0,0,1,2-.42,3,3,0,0,1,1.82,1.08A.86.86,0,0,1,260.12,289.15Z" style="fill:#263238"></path><path d="M250,303.32c.29.27.58.65,1,.67a3.09,3.09,0,0,0,1.26-.32,0,0,0,0,1,.06.06,1.59,1.59,0,0,1-1.49.67,1.25,1.25,0,0,1-.95-1C249.82,303.31,249.91,303.28,250,303.32Z" style="fill:#263238"></path><path d="M251.11,299.75a4,4,0,0,0,2.73,1.74,5,5,0,0,0,1.45,0,1.26,1.26,0,0,0,.28,0l.26,0a.3.3,0,0,0,.23-.27h0a.25.25,0,0,0,0-.12h0v-.1c0-.92-.11-2.3-.11-2.3.33.16,2.05.89,2,.41a60.49,60.49,0,0,0-1.83-12.15c0-.13-.23-.1-.21,0,.15,3.79,1,7.53,1.2,11.34a7.25,7.25,0,0,0-1.91-.53c-.13,0,.27,2.66.24,3.07a.18.18,0,0,1,0,.05,5.57,5.57,0,0,1-4.2-1.21C251.13,299.58,251,299.66,251.11,299.75Z" style="fill:#263238"></path><path d="M254.75,301.07a4.83,4.83,0,0,1-1.89,1.53,2.2,2.2,0,0,1-1.3.11c-.95-.23-1-1.1-.83-1.84a4.91,4.91,0,0,1,.39-1.15A6.22,6.22,0,0,0,254.75,301.07Z" style="fill:#263238"></path><path d="M252.86,302.6a2.2,2.2,0,0,1-1.3.11c-.95-.23-1-1.1-.83-1.84A2.2,2.2,0,0,1,252.86,302.6Z" style="fill:#ff9bbc"></path><path d="M235.36,296.18c3.25-.37,3.51-8.57,3.51-8.57s4.08-1.42,5.54-8.85c0,0,2.58,7.41,16.08,6.1a11.57,11.57,0,0,0-.81-7,48.62,48.62,0,0,1,3.22,7.34s3.49-11.12-6-15.29c-3.76-1.66-9.55-1.48-18.43,2.66,0,0-1.56-5.3-2.59-4.64s.81,5.63.81,5.63-3.83-1.29-4.5-.49,3.12,1.74,3.12,1.74a7.65,7.65,0,0,0-5.13,8.57C231,289.61,233.75,296.36,235.36,296.18Z" style="fill:#263238"></path><path d="M236.4,274.7a7,7,0,0,0-7.27,5.72,13.05,13.05,0,0,0,.68,5.84,24.09,24.09,0,0,0,2.72,5.56c.06.1.21,0,.14-.11a18.61,18.61,0,0,1-2.17-5.23,17.2,17.2,0,0,1-.73-5.37,6.71,6.71,0,0,1,6.63-6.21C236.51,274.9,236.51,274.71,236.4,274.7Z" style="fill:#263238"></path><path d="M249.28,267.82a27.36,27.36,0,0,0-6.65,2.27,20,20,0,0,0-5.56,3.68c-.08.08,0,.21.11.14a35.54,35.54,0,0,1,11.69-5.07c3.82-1,8.31-.88,11.13,2.27a.05.05,0,1,0,.08-.07C257.58,267.75,253.12,267.11,249.28,267.82Z" style="fill:#263238"></path><path d="M247.82,298.7a5.57,5.57,0,1,1,6.18-6.27h0a5.58,5.58,0,0,1-4.8,6.26A4.91,4.91,0,0,1,247.82,298.7ZM249,288.37a4.39,4.39,0,0,0-1.2,0,4.83,4.83,0,1,0,1.2,0Z" style="fill:#455a64"></path><path d="M260.62,298.64c-2.12-.25-3.79-2.65-3.79-5.56a6.67,6.67,0,0,1,1.18-3.9,3.48,3.48,0,0,1,5.95,0,6.69,6.69,0,0,1,1.17,3.9c0,3.08-1.86,5.58-4.15,5.58Zm.65-10.37-.29,0a3,3,0,0,0-2.37,1.37,6,6,0,0,0-1,3.46c0,2.67,1.53,4.84,3.41,4.83s3.41-2.16,3.41-4.83a5.91,5.91,0,0,0-1-3.46A3,3,0,0,0,261.27,288.27Z" style="fill:#455a64"></path><path d="M253.81,293.07l-.48-.57c.85-.71,2.8-1.66,4.16-.2l-.54.5C255.73,291.5,253.89,293,253.81,293.07Z" style="fill:#455a64"></path><path d="M229,294.51l-.66-.35c.16-.31,1.61-3,3.27-3.29s11.55.69,12,.73l-.07.74c-2.87-.27-10.59-.93-11.79-.74S229.35,293.76,229,294.51Z" style="fill:#455a64"></path><path d="M238,294.79s-3.36-5.93-6-4.78-.5,9.48,2.36,10.87a3,3,0,0,0,4.19-1.23Z" style="fill:#ffc4c0"></path><path d="M232.61,292.38c-.05,0-.06.06,0,.08,2,1,2.9,3.07,3.48,5.14a1.67,1.67,0,0,0-2.45-.69c-.05,0,0,.12,0,.12a1.84,1.84,0,0,1,2,.84,9.22,9.22,0,0,1,.82,1.74c.08.2.42.13.37-.09v0C237.13,296.82,235.43,292.92,232.61,292.38Z" style="fill:#263238"></path><path d="M230.56,318.84a49.7,49.7,0,0,0,5.44,6.42,12.48,12.48,0,0,0,6.56,3.41c2.38.36,5-.14,5.68-3.25.42-2,.28-3.74-.2-6.82,0-.14.1-.13.13,0,.84,4.05,1.13,9.46-1.9,10.63-3.39,1.3-7.93-.71-10.73-3.46a33.12,33.12,0,0,1-5.17-6.76C230.14,318.63,230.53,318.8,230.56,318.84Z" style="fill:#263238"></path></g></svg>