<svg xmlns="http://www.w3.org/2000/svg" width="942.454" height="739.515" viewBox="0 0 942.454 739.515">
  <g id="JavaScript_frameworks-rafiki" data-name="JavaScript frameworks-rafiki" transform="translate(0 -55)">
    <g id="freepik--background-complete--inject-2" transform="translate(0 55)">
      <rect id="Rectangle_1" data-name="Rectangle 1" width="942.454" height="0.427" transform="translate(0 676.927)" fill="#ebebeb"/>
      <rect id="Rectangle_2" data-name="Rectangle 2" width="56.621" height="0.427" transform="translate(800.184 704.434)" fill="#ebebeb"/>
      <rect id="Rectangle_3" data-name="Rectangle 3" width="14.856" height="0.427" transform="translate(552.715 704.657)" fill="#ebebeb"/>
      <rect id="Rectangle_4" data-name="Rectangle 4" width="105.036" height="0.427" transform="translate(676.583 688.57)" fill="#ebebeb"/>
      <rect id="Rectangle_5" data-name="Rectangle 5" width="21.695" height="0.427" transform="translate(401.419 698.656)" fill="#ebebeb"/>
      <rect id="Rectangle_6" data-name="Rectangle 6" width="62.964" height="0.427" transform="translate(316.576 698.656)" fill="#ebebeb"/>
      <rect id="Rectangle_7" data-name="Rectangle 7" width="43.475" height="0.427" transform="translate(89.684 691.442)" fill="#ebebeb"/>
      <rect id="Rectangle_8" data-name="Rectangle 8" width="128.03" height="0.427" transform="translate(160.716 691.442)" fill="#ebebeb"/>
      <path id="Path_1" data-name="Path 1" d="M378.057,538.468H47.955a9.762,9.762,0,0,1-9.745-9.762V64.676A9.762,9.762,0,0,1,47.955,55h330.1a9.762,9.762,0,0,1,9.762,9.762V528.706A9.762,9.762,0,0,1,378.057,538.468ZM47.955,55.342a9.334,9.334,0,0,0-9.317,9.334v464.03a9.334,9.334,0,0,0,9.317,9.334h330.1a9.352,9.352,0,0,0,9.334-9.334V64.676a9.351,9.351,0,0,0-9.334-9.334Z" transform="translate(27.113 -55)" fill="#ebebeb"/>
      <path id="Path_2" data-name="Path 2" d="M594.381,538.468H264.262a9.779,9.779,0,0,1-9.762-9.762V64.676A9.779,9.779,0,0,1,264.262,55H594.381a9.762,9.762,0,0,1,9.728,9.676v464.03A9.762,9.762,0,0,1,594.381,538.468ZM264.262,55.342a9.351,9.351,0,0,0-9.334,9.334v464.03a9.351,9.351,0,0,0,9.334,9.334H594.381a9.352,9.352,0,0,0,9.334-9.334V64.676a9.351,9.351,0,0,0-9.334-9.334Z" transform="translate(268.254 -55)" fill="#ebebeb"/>
      <rect id="Rectangle_9" data-name="Rectangle 9" width="231.989" height="324.443" transform="translate(355.318 376.483) rotate(180)" fill="#e6e6e6"/>
      <rect id="Rectangle_10" data-name="Rectangle 10" width="231.989" height="324.443" transform="translate(350.172 376.483) rotate(180)" fill="#f5f5f5"/>
      <rect id="Rectangle_11" data-name="Rectangle 11" width="303.655" height="213.475" transform="translate(340.906 62.434) rotate(90)" fill="#fff"/>
      <rect id="Rectangle_12" data-name="Rectangle 12" width="303.655" height="3.898" transform="translate(131.33 62.434) rotate(90)" fill="#e6e6e6"/>
      <rect id="Rectangle_13" data-name="Rectangle 13" width="224.331" height="13.95" transform="translate(346.343 211.691) rotate(180)" fill="#f5f5f5"/>
      <path id="Path_3" data-name="Path 3" d="M63.809,75.37H321.134a1.436,1.436,0,0,1,1.419,1.436h0a1.419,1.419,0,0,1-1.419,1.419H63.809a1.419,1.419,0,0,1-1.419-1.419h0a1.436,1.436,0,0,1,1.419-1.436Z" transform="translate(44.27 -40.546)" fill="#e6e6e6"/>
      <path id="Path_4" data-name="Path 4" d="M58.22,79.2a7.129,7.129,0,1,0,2.063-5.085A7.129,7.129,0,0,0,58.22,79.2Z" transform="translate(41.311 -42.937)" fill="#e6e6e6"/>
      <path id="Path_5" data-name="Path 5" d="M207.5,84.194h0a1.949,1.949,0,0,0,1.932-1.932V78.125A1.932,1.932,0,0,0,207.5,76.21h0a1.915,1.915,0,0,0-1.915,1.915v4.137a1.932,1.932,0,0,0,1.915,1.932Z" transform="translate(182.091 -39.95)" fill="#e6e6e6"/>
      <path id="Path_6" data-name="Path 6" d="M76.585,84.194h0a1.949,1.949,0,0,0,1.932-1.932V78.125a1.932,1.932,0,0,0-1.932-1.915h0a1.915,1.915,0,0,0-1.915,1.915v4.137a1.932,1.932,0,0,0,1.915,1.932Z" transform="translate(52.984 -39.95)" fill="#e6e6e6"/>
      <path id="Path_7" data-name="Path 7" d="M36.5,0H201.285a36.5,36.5,0,0,1,36.5,36.5V263.48H0V36.5A36.5,36.5,0,0,1,36.5,0Z" transform="translate(346.326 299.74) rotate(180)" fill="#e0e0e0" opacity="0.5"/>
      <path id="Path_8" data-name="Path 8" d="M189.15,79.2a7.112,7.112,0,1,0,2.052-5.084A7.129,7.129,0,0,0,189.15,79.2Z" transform="translate(167.943 -42.937)" fill="#e6e6e6"/>
      <rect id="Rectangle_14" data-name="Rectangle 14" width="198.448" height="198.978" transform="translate(572.249 54.296)" fill="#f0f0f0"/>
      <rect id="Rectangle_15" data-name="Rectangle 15" width="3.419" height="198.978" transform="translate(794.354 253.274) rotate(180)" fill="#e0e0e0"/>
      <rect id="Rectangle_16" data-name="Rectangle 16" width="163.401" height="173.847" rx="47.79" transform="translate(588.576 66.862)" fill="#fff"/>
      <rect id="Rectangle_17" data-name="Rectangle 17" width="69.802" height="74.264" rx="2.2" transform="translate(632.714 143.285)" fill="#f5f5f5"/>
      <rect id="Rectangle_18" data-name="Rectangle 18" width="45.782" height="101.532" transform="translate(396.08 670.294) rotate(180)" fill="#f0f0f0"/>
      <rect id="Rectangle_19" data-name="Rectangle 19" width="225.818" height="6.428" transform="translate(353.044 676.705) rotate(180)" fill="#f0f0f0"/>
      <rect id="Rectangle_20" data-name="Rectangle 20" width="197.61" height="101.532" transform="translate(118.439 568.745)" fill="#f5f5f5"/>
      <path id="Path_9" data-name="Path 9" d="M241.771,360.942H80.165a.855.855,0,0,1-.855-.855v-33.3a.855.855,0,0,1,.855-.855H241.771a.872.872,0,0,1,.855.855v33.3A.855.855,0,0,1,241.771,360.942Zm-160.7-1.71h159.9V327.64H81.02Z" transform="translate(73.466 235.444)" fill="#f0f0f0"/>
      <path id="Path_10" data-name="Path 10" d="M241.771,386.232H80.165a.855.855,0,0,1-.855-.855v-33.3a.855.855,0,0,1,.855-.855H241.771a.872.872,0,0,1,.855.855v33.3A.855.855,0,0,1,241.771,386.232Zm-160.7-1.71h159.9V352.93H81.02Z" transform="translate(73.466 272.403)" fill="#f0f0f0"/>
      <rect id="Rectangle_21" data-name="Rectangle 21" width="45.218" height="4.565" rx="1.18" transform="translate(260.911 600.185) rotate(180)" fill="#fff"/>
      <rect id="Rectangle_22" data-name="Rectangle 22" width="45.218" height="4.565" rx="1.18" transform="translate(260.911 643.403) rotate(180)" fill="#fff"/>
      <path id="Path_11" data-name="Path 11" d="M139.124,309.13s-.547,17.1-21.643,17.1-21.66-17.1-21.66-17.1Z" transform="translate(85.689 214.542)" fill="#f5f5f5"/>
      <path id="Path_12" data-name="Path 12" d="M167.974,309.13s-.564,17.1-21.66,17.1-21.643-17.1-21.643-17.1Z" transform="translate(111.488 214.542)" fill="#f5f5f5"/>
      <path id="Path_13" data-name="Path 13" d="M196.874,309.13s-.547,17.1-21.66,17.1-21.643-17.1-21.643-17.1Z" transform="translate(137.332 214.542)" fill="#f5f5f5"/>
      <rect id="Rectangle_23" data-name="Rectangle 23" width="34.551" height="226.536" transform="translate(846.53 666.499) rotate(180)" fill="#f0f0f0"/>
      <rect id="Rectangle_24" data-name="Rectangle 24" width="284.935" height="10.411" transform="translate(837.418 676.91) rotate(180)" fill="#f0f0f0"/>
      <rect id="Rectangle_25" data-name="Rectangle 25" width="268.609" height="226.536" transform="translate(523.858 439.946)" fill="#f5f5f5"/>
      <rect id="Rectangle_26" data-name="Rectangle 26" width="231.271" height="53.886" transform="translate(541.07 493.418)" fill="#f0f0f0"/>
      <rect id="Rectangle_27" data-name="Rectangle 27" width="231.271" height="53.886" transform="translate(541.07 592.372)" fill="#f0f0f0"/>
      <rect id="Rectangle_28" data-name="Rectangle 28" width="140.407" height="7.385" rx="2.05" transform="translate(724.011 489.271) rotate(180)" fill="#f5f5f5"/>
      <rect id="Rectangle_29" data-name="Rectangle 29" width="140.407" height="7.385" rx="2.05" transform="translate(724.011 596.065) rotate(180)" fill="#f5f5f5"/>
      <rect id="Rectangle_30" data-name="Rectangle 30" width="231.271" height="53.886" transform="translate(541.07 407.398)" fill="#f0f0f0"/>
      <rect id="Rectangle_31" data-name="Rectangle 31" width="140.407" height="7.385" rx="2.05" transform="translate(724.011 404.491) rotate(180)" fill="#f5f5f5"/>
    </g>
    <g id="freepik--Programming--inject-2" transform="translate(380.732 127.891)">
      <rect id="Rectangle_32" data-name="Rectangle 32" width="1.71" height="9.027" transform="matrix(0.113, -0.994, 0.994, 0.113, 167.528, 11.448)" fill="#ba68c8"/>
      <rect id="Rectangle_33" data-name="Rectangle 33" width="1.71" height="29.285" transform="matrix(0.113, -0.994, 0.994, 0.113, 128.633, 7.053)" fill="#ba68c8"/>
      <rect id="Rectangle_34" data-name="Rectangle 34" width="326.307" height="252.658" rx="4.9" transform="matrix(0.994, 0.113, -0.113, 0.994, 28.47, 0)" fill="#ba68c8"/>
      <path id="Path_14" data-name="Path 14" d="M192.8,334.84l25.832-227.869a6.137,6.137,0,0,1,6.838-5.4L529.257,136a6.155,6.155,0,0,1,5.4,6.838l-25.9,227.784a6.12,6.12,0,0,1-6.838,5.4L198.129,341.576a6.12,6.12,0,0,1-5.334-6.736Z" transform="translate(-187.36 -94.878)" fill="#263238" opacity="0.7"/>
      <rect id="Rectangle_35" data-name="Rectangle 35" width="128.834" height="6.343" transform="matrix(0.994, 0.113, -0.113, 0.994, 168.418, 82.762)" fill="#ba68c8"/>
      <rect id="Rectangle_36" data-name="Rectangle 36" width="136.493" height="6.343" transform="matrix(0.994, 0.113, -0.113, 0.994, 180.43, 94.294)" fill="#ba68c8"/>
      <rect id="Rectangle_37" data-name="Rectangle 37" width="113.088" height="6.343" transform="matrix(0.994, 0.113, -0.113, 0.994, 179.282, 104.342)" fill="#ba68c8"/>
      <rect id="Rectangle_38" data-name="Rectangle 38" width="101.292" height="6.343" transform="matrix(0.994, 0.113, -0.113, 0.994, 178.146, 114.397)" fill="#ba68c8"/>
      <rect id="Rectangle_39" data-name="Rectangle 39" width="83.701" height="6.343" transform="matrix(0.994, 0.113, -0.113, 0.994, 163.137, 129.259)" fill="#ba68c8"/>
      <rect id="Rectangle_40" data-name="Rectangle 40" width="89.872" height="6.343" transform="matrix(0.994, 0.113, -0.113, 0.994, 172.872, 160.922)" fill="#ba68c8"/>
      <rect id="Rectangle_41" data-name="Rectangle 41" width="74.469" height="6.343" transform="matrix(0.994, 0.113, -0.113, 0.994, 174.01, 150.867)" fill="#ba68c8"/>
      <rect id="Rectangle_42" data-name="Rectangle 42" width="82.008" height="6.343" transform="matrix(0.994, 0.113, -0.113, 0.994, 175.156, 140.815)" fill="#ba68c8"/>
      <rect id="Rectangle_43" data-name="Rectangle 43" width="83.701" height="6.343" transform="matrix(0.994, 0.113, -0.113, 0.994, 154.45, 205.937)" fill="#ba68c8"/>
      <rect id="Rectangle_44" data-name="Rectangle 44" width="89.872" height="6.343" transform="matrix(0.994, 0.113, -0.113, 0.994, 164.168, 237.598)" fill="#ba68c8"/>
      <rect id="Rectangle_45" data-name="Rectangle 45" width="74.178" height="6.318" transform="translate(164.617 224.787) rotate(6.34)" fill="#ba68c8"/>
      <rect id="Rectangle_46" data-name="Rectangle 46" width="82.008" height="6.343" transform="matrix(0.994, 0.113, -0.113, 0.994, 166.452, 217.491)" fill="#ba68c8"/>
      <rect id="Rectangle_47" data-name="Rectangle 47" width="67.973" height="6.343" transform="matrix(0.994, 0.113, -0.113, 0.994, 45.52, 21.328)" fill="#fff"/>
      <rect id="Rectangle_48" data-name="Rectangle 48" width="72.965" height="6.343" transform="matrix(0.994, 0.113, -0.113, 0.994, 52.781, 52.679)" fill="#fff"/>
      <rect id="Rectangle_49" data-name="Rectangle 49" width="60.468" height="6.343" transform="matrix(0.994, 0.113, -0.113, 0.994, 53.917, 42.64)" fill="#fff"/>
      <rect id="Rectangle_50" data-name="Rectangle 50" width="66.588" height="6.343" transform="matrix(0.994, 0.113, -0.113, 0.994, 55.038, 32.57)" fill="#fff"/>
      <rect id="Rectangle_51" data-name="Rectangle 51" width="89.872" height="6.343" transform="matrix(0.994, 0.113, -0.113, 0.994, 169.444, 191.083)" fill="#ba68c8"/>
      <rect id="Rectangle_52" data-name="Rectangle 52" width="74.469" height="6.343" transform="matrix(0.994, 0.113, -0.113, 0.994, 170.582, 181.028)" fill="#ba68c8"/>
      <rect id="Rectangle_53" data-name="Rectangle 53" width="82.008" height="6.343" transform="matrix(0.994, 0.113, -0.113, 0.994, 171.728, 170.976)" fill="#ba68c8"/>
    </g>
    <g id="freepik--Character--inject-2" transform="translate(316.891 323.585)">
      <path id="Path_15" data-name="Path 15" d="M235.8,423.241l-11.3-.256L222.93,396.76l11.3.256Z" transform="translate(-122.663 36.132)" fill="#ffc3bd"/>
      <path id="Path_16" data-name="Path 16" d="M233.034,411.33l12.343.274a.992.992,0,0,1,.94.786l2.017,10.1a1.71,1.71,0,0,1-1.71,1.966c-4.445-.171-10.873-.564-16.463-.7-6.548-.137-7.727,1.009-15.386.205-4.616-.479-5.419-5.283-3.419-5.5,8.992-1.009,11.146-1.71,18.805-6.308A5.232,5.232,0,0,1,233.034,411.33Z" transform="translate(-131.605 46.47)" fill="#263238"/>
      <path id="Path_17" data-name="Path 17" d="M222.93,396.77l.821,13.506,11.3.256-.8-13.506Z" transform="translate(-122.663 36.139)" opacity="0.2"/>
      <path id="Path_18" data-name="Path 18" d="M252.3,198.073c-3.761,7.368-7.727,14.5-11.967,21.609s-8.548,14.053-13.677,21.028c-.65.872-1.368,1.71-2.051,2.65-.291.393-.786.957-1.231,1.453s-.906,1.043-1.4,1.5a28.825,28.825,0,0,1-6.479,4.889,35.577,35.577,0,0,1-14.429,4.411,50.262,50.262,0,0,1-13.762-.667,58.567,58.567,0,0,1-6.479-1.539,51.677,51.677,0,0,1-6.343-2.274l2.735-8.633c1.71.188,3.658.393,5.5.5a51.131,51.131,0,0,0,5.607,0,45.956,45.956,0,0,0,10.514-1.333,23.147,23.147,0,0,0,8.343-3.778,15.627,15.627,0,0,0,2.906-2.8,7.017,7.017,0,0,0,.6-.8c.205-.274.376-.5.65-.923l1.5-2.308c4.018-6.428,7.9-13.489,11.745-20.515l11.54-21.1Z" transform="translate(-157.042 -110.977)" fill="#ffc3bd"/>
      <path id="Path_19" data-name="Path 19" d="M242.08,192.034c1.71,10.257-21.729,41.184-21.729,41.184L203.17,212.549A166.766,166.766,0,0,1,219.924,188.8C228.831,178.819,240.182,180.716,242.08,192.034Z" transform="translate(-136.685 -116.033)" fill="#fff"/>
      <path id="Path_20" data-name="Path 20" d="M232.654,193.191c-6.838,1.71-18.361,8.975-23.934,23.1l7.744,9.334s13.9-18.275,19.506-31.4A3.009,3.009,0,0,0,232.654,193.191Z" transform="translate(-132.746 -108.42)" opacity="0.2"/>
      <path id="Path_21" data-name="Path 21" d="M225.846,182.476s-18.019,22.977-16.822,89.291l60.878,11.01c2.1-9.266,2.855-46.962,19.831-89.36a161.589,161.589,0,0,0-19.917-6.257,224.634,224.634,0,0,0-25.883-4.684A116.247,116.247,0,0,0,225.846,182.476Z" transform="translate(-132.571 -116.169)" fill="#fff"/>
      <path id="Path_22" data-name="Path 22" d="M249.789,203.87c-2.6,3.676-4.171,13.677-.667,20.515.821-4.24,1.8-8.685,2.958-13.318Z" transform="translate(-105.518 -100.738)" opacity="0.2"/>
      <path id="Path_23" data-name="Path 23" d="M230.629,182.33s-7.3,14.343,1.214,21.8c14.89-1.265,24.669-17.1,24.669-17.1Z" transform="translate(-119.267 -116.022)" fill="#263238"/>
      <path id="Path_24" data-name="Path 24" d="M164.28,217.13l.188,8.5,7.351,5.317,3.317-11.659Z" transform="translate(-164.28 -91.329)" fill="#ffc3bd"/>
      <path id="Path_25" data-name="Path 25" d="M185.1,222.852l-13.1-4.462-3.317,11.659s7.625,3.317,13.677-1.128Z" transform="translate(-161.151 -90.435)" fill="#ffc3bd"/>
      <path id="Path_26" data-name="Path 26" d="M258.43,167.75c-3.146,8.035-7.522,22.994-2.7,29.61,0,0-6.633,7.744-21.524,9.009-8.548-7.454-4.359-13.677-4.359-13.677,9.693-.547,10.685-7.471,10.257-14.241Z" transform="translate(-118.484 -126.368)" fill="#ffc3bd"/>
      <path id="Path_27" data-name="Path 27" d="M246.276,170.3l-10.856,6.325a29.056,29.056,0,0,1,0,4.736c4.821,2.479,8.753-.12,10.856-5.334a12.874,12.874,0,0,0,0-5.727Z" transform="translate(-113.801 -124.559)" opacity="0.2"/>
      <path id="Path_28" data-name="Path 28" d="M232.165,170.238c.7,5.129,16.514-3.231,19.181-4.992s-.393-7.864-6.394-12.788S230.541,158.254,232.165,170.238Z" transform="translate(-116.256 -138.088)" fill="#263238"/>
      <path id="Path_29" data-name="Path 29" d="M265.913,173.041c-4.838,10.411-7.129,16.754-14.668,20.1-11.317,5.129-22.584-4.975-20.959-16.617,1.453-10.48,9.112-25.746,21.216-25.917a15.66,15.66,0,0,1,14.412,22.43Z" transform="translate(-117.556 -138.531)" fill="#ffc3bd"/>
      <path id="Path_30" data-name="Path 30" d="M249.675,179.028c-5.129.769-1.5-16.754-.564-19.8s9.078-5.83,13.677.427C268.309,167.3,261.642,177.25,249.675,179.028Z" transform="translate(-105.592 -134.774)" fill="#263238"/>
      <path id="Path_31" data-name="Path 31" d="M255.8,152.153c-4.6-.923-3.282-5.8.1-5.539-2.718-3.3-18.805-6.308-19.677,4.359s19.865,16.583,25.473,17.335l8.36,2.342C281.32,165.027,268.823,154.769,255.8,152.153Z" transform="translate(-113.251 -143.544)" fill="#263238"/>
      <path id="Path_32" data-name="Path 32" d="M256.133,174.669a10.907,10.907,0,0,1-7.813,2.923c-3.812-.171-4.547-3.864-2.5-6.838,1.829-2.7,6.052-5.864,9.42-4.24a4.906,4.906,0,0,1,.889,8.155Z" transform="translate(-107.212 -127.56)" fill="#ffc3bd"/>
      <path id="Path_33" data-name="Path 33" d="M217.2,410.479l-11.1,2.188-5.436-25.609,11.1-2.188Z" transform="translate(-138.459 27.695)" fill="#ffc3bd"/>
      <path id="Path_34" data-name="Path 34" d="M212.437,401.431l12.121-2.393a.992.992,0,0,1,1.094.581l4.12,9.42a1.709,1.709,0,0,1-1.2,2.291c-4.394.786-10.753,1.71-16.241,2.855-6.428,1.265-8.548,1.4-16.019,2.889-4.565.889-6.736-3.419-4.906-4.257,8.309-3.607,11.967-3.9,18.532-10a5.128,5.128,0,0,1,2.5-1.385Z" transform="translate(-145.49 37.736)" fill="#263238"/>
      <path id="Path_35" data-name="Path 35" d="M200.67,387.058l2.8,13.2,11.1-2.188-2.8-13.2Z" transform="translate(-138.459 27.695)" opacity="0.2"/>
      <path id="Path_36" data-name="Path 36" d="M202.4,402.979a3.419,3.419,0,0,1-2.291.205,1.59,1.59,0,0,1-1.026-1.162.855.855,0,0,1,.171-.889c.957-1.043,5.266-.188,5.744-.085a.291.291,0,0,1,.222.222.274.274,0,0,1-.12.273,13.673,13.673,0,0,1-2.7,1.436Zm-2.428-1.71a.855.855,0,0,0-.308.188.325.325,0,0,0,0,.359,1.077,1.077,0,0,0,.684.8,5.556,5.556,0,0,0,3.932-1.214,11.093,11.093,0,0,0-4.377-.137Z" transform="translate(-139.625 38.871)" fill="#ba68c8"/>
      <path id="Path_37" data-name="Path 37" d="M204.487,402.868h-.137c-1.351-.205-4.394-1.71-4.616-3.077a.889.889,0,0,1,.581-.974,1.436,1.436,0,0,1,1.214,0c1.71.564,3.043,3.607,3.111,3.727a.257.257,0,0,1,0,.274A.222.222,0,0,1,204.487,402.868Zm-3.812-3.641h-.12c-.308.171-.291.342-.274.41.12.752,2.171,2.052,3.59,2.5-.462-.872-1.47-2.581-2.513-2.94a1.043,1.043,0,0,0-.684.034Z" transform="translate(-139.13 37.495)" fill="#ba68c8"/>
      <path id="Path_38" data-name="Path 38" d="M224.085,234.56s-27.028,102.882-34.841,137.3c-8.1,35.816,19.2,132.595,19.2,132.595l18.036-3.556s-7.573-98.677-4.992-114.336c10.343-37.918,42.62-144.75,42.62-144.75Z" transform="translate(-147.633 -78.961)" fill="#ba68c8"/>
      <path id="Path_39" data-name="Path 39" d="M211.29,303.414a228.963,228.963,0,0,0,.684,43.013c7.727-26.892,18.463-62.964,26.191-88.727C230.369,261.068,214.18,271.753,211.29,303.414Z" transform="translate(-131.419 -62.542)" opacity="0.2"/>
      <path id="Path_40" data-name="Path 40" d="M226.7,236.79S212.547,341.621,213.761,375.5c1.316,37.081,10.086,144.921,10.086,144.921l21.147.513s-.325-101.959,1.71-138.1c2.12-39.218,19.318-138.9,19.318-138.9Z" transform="translate(-129.222 -77.379)" fill="#ba68c8"/>
      <path id="Path_41" data-name="Path 41" d="M243.048,407.11l-22.823-.5-1.8-8.65,25.268-.154Z" transform="translate(-125.856 36.877)" fill="#263238"/>
      <path id="Path_42" data-name="Path 42" d="M223.28,393.566l-22.4,4.411-3.624-8.069,24.823-4.428Z" transform="translate(-140.878 28.128)" fill="#263238"/>
      <path id="Path_43" data-name="Path 43" d="M242.258,162.747c-.342.872-1.077,1.4-1.71,1.18s-.752-1.111-.41-1.983,1.077-1.385,1.71-1.163S242.582,161.893,242.258,162.747Z" transform="translate(-110.586 -131.349)" fill="#263238"/>
      <path id="Path_44" data-name="Path 44" d="M236.508,160.514c-.342.855-1.077,1.385-1.71,1.162s-.752-1.111-.41-1.966,1.077-1.4,1.71-1.18S236.85,159.642,236.508,160.514Z" transform="translate(-114.666 -132.945)" fill="#263238"/>
      <path id="Path_45" data-name="Path 45" d="M239.821,160.48a33.355,33.355,0,0,1-7.061,5.813,5.437,5.437,0,0,0,3.847,2.41Z" transform="translate(-115.688 -131.527)" fill="#ed847e"/>
      <path id="Path_46" data-name="Path 46" d="M235,168.07a.274.274,0,1,1,.222-.5,7.437,7.437,0,0,0,6.684-.222.274.274,0,1,1,.291.462A7.779,7.779,0,0,1,235,168.07Z" transform="translate(-114.235 -126.688)" fill="#263238"/>
      <path id="Path_47" data-name="Path 47" d="M245.663,162.724a.6.6,0,0,1-.274-.393,4.394,4.394,0,0,0-2.257-3.3.547.547,0,0,1-.274-.718.564.564,0,0,1,.735-.274,5.437,5.437,0,0,1,2.821,4.12.547.547,0,0,1-.462.632.581.581,0,0,1-.291-.068Z" transform="translate(-108.555 -133.292)" fill="#263238"/>
      <path id="Path_48" data-name="Path 48" d="M234.208,156.987a.41.41,0,0,1-.171-.171.53.53,0,0,1,.171-.752,5.471,5.471,0,0,1,4.975-.5.564.564,0,0,1,.274.735.547.547,0,0,1-.735.256h0a4.342,4.342,0,0,0-3.932.427.547.547,0,0,1-.581,0Z" transform="translate(-114.846 -135.282)" fill="#263238"/>
      <path id="Path_49" data-name="Path 49" d="M260.708,186.9l-2.838-.769a.564.564,0,0,0-.684.342c-15.762,41.509-19.506,87.923-19.506,87.923l3.163.564a416.467,416.467,0,0,1,20.241-87.325.547.547,0,0,0-.376-.735Z" transform="translate(-112.197 -113.342)" fill="#ba68c8"/>
      <g id="Group_1" data-name="Group 1" transform="translate(124.886 160.084)" opacity="0.99">
        <path id="Path_50" data-name="Path 50" d="M241.552,238.8a1.026,1.026,0,0,0-.838-1.2l-2.188-.41a1.043,1.043,0,0,0-.615,1.966l-.479,2.718a1.355,1.355,0,0,0,2.667.479l.5-2.718a1.043,1.043,0,0,0,.957-.838Z" transform="translate(-237.331 -237.183)" fill="#263238"/>
      </g>
      <path id="Path_51" data-name="Path 51" d="M230.631,181.81h-2.94a.564.564,0,0,0-.53.393c-13.813,41.885-15.181,87.188-15.181,87.188l3.163.581c3.727-47.629,14.292-82.06,16.036-87.53a.564.564,0,0,0-.547-.633Z" transform="translate(-130.433 -116.391)" fill="#ba68c8"/>
      <path id="Path_52" data-name="Path 52" d="M215.862,234.171a1.094,1.094,0,0,0-.889-1.214l-2.188-.41a.991.991,0,0,0-1.162.855,1.111,1.111,0,0,0,.65,1.128l-.359,2.735a1.436,1.436,0,0,0,1.163,1.59,1.282,1.282,0,0,0,1.522-1.111l.359-2.735a.957.957,0,0,0,.906-.838Z" transform="translate(-130.691 -80.401)" fill="#263238" opacity="0.99"/>
      <path id="Path_53" data-name="Path 53" d="M222.126,413.392a3.419,3.419,0,0,1-2.274-.274,1.709,1.709,0,0,1-.769-1.368.855.855,0,0,1,.359-.821c1.18-.821,5.129.94,5.642,1.145a.261.261,0,0,1-.017.5,12.809,12.809,0,0,1-2.94.82Zm-2.017-2.188a.684.684,0,0,0-.342.12.325.325,0,0,0-.137.342,1.162,1.162,0,0,0,.513.94,5.488,5.488,0,0,0,4.086-.359A11.163,11.163,0,0,0,220.109,411.2Z" transform="translate(-125.399 46.033)" fill="#ba68c8"/>
      <path id="Path_54" data-name="Path 54" d="M224.2,413.837h-.137c-1.282-.5-3.915-2.684-3.847-4a.923.923,0,0,1,.769-.838,1.539,1.539,0,0,1,1.214.205c1.47.906,2.205,4.171,2.222,4.308a.274.274,0,0,1-.086.274A.188.188,0,0,1,224.2,413.837Zm-2.94-4.325h-.137c-.342.1-.342.274-.359.342,0,.769,1.71,2.462,2.992,3.2a6.735,6.735,0,0,0-1.846-3.419A.923.923,0,0,0,221.263,409.512Z" transform="translate(-124.587 44.784)" fill="#ba68c8"/>
      <path id="Path_55" data-name="Path 55" d="M225.46,261.823l9.557,6.753,7.163-5.283-9.163-11.164Z" transform="translate(-120.868 -66.494)" fill="#ffc3bd"/>
      <path id="Path_56" data-name="Path 56" d="M243.4,250.94l-13.523,2.034,9.163,11.164s9.386-2.291,8.873-9.813Z" transform="translate(-117.732 -67.338)" fill="#ffc3bd"/>
      <path id="Path_57" data-name="Path 57" d="M279.333,199.08c.513,8.924.786,17.814.838,26.772v13.454c0,2.24-.085,4.5-.205,6.838l-.171,3.419-.085,1.71a19.635,19.635,0,0,1-.291,2.564,28.823,28.823,0,0,1-2.906,8.548,53.8,53.8,0,0,1-4.171,6.65,86.567,86.567,0,0,1-9.591,10.8,138.01,138.01,0,0,1-21.831,17.01l-5.539-7.18c2.975-3.009,6.086-6.137,8.958-9.351s5.727-6.411,8.343-9.693a86.742,86.742,0,0,0,6.992-9.984,38.076,38.076,0,0,0,2.41-4.906,14.958,14.958,0,0,0,1.077-4.137,5.757,5.757,0,0,1,0-.769v-1.573l-.086-3.214-.274-6.513-.718-13.232c-.444-8.787-.8-17.643-1.043-26.447Z" transform="translate(-113.829 -104.137)" fill="#ffc3bd"/>
      <path id="Path_58" data-name="Path 58" d="M262.057,189.182c14.617,5.436,14.5,44.534,14.5,44.534l-24.738,4.547s-5.984-17.762-3.026-31.747C251.612,193.166,250.945,185.028,262.057,189.182Z" transform="translate(-104.896 -111.933)" fill="#fff"/>
    </g>
    <g id="freepik--JS--inject-2" transform="translate(182.689 213.745)">
      <path id="Path_59" data-name="Path 59" d="M178.175,276.087l-66.263-24.823L100.27,181.479,154.976,136.5l66.212,24.789,11.642,69.8ZM114.7,248.973l62.878,23.541,51.817-42.739L218.35,163.563l-62.878-23.541-51.817,42.739Z" transform="translate(-91.319 -123.493)" fill="#ba68c8" stroke="#ba68c8" stroke-width="3"/>
      <circle id="Ellipse_1" data-name="Ellipse 1" cx="10.616" cy="10.616" r="10.616" transform="matrix(0.581, -0.814, 0.814, 0.581, 49.062, 17.28)" fill="#ba68c8"/>
      <circle id="Ellipse_2" data-name="Ellipse 2" cx="10.616" cy="10.616" r="10.616" transform="matrix(0.581, -0.814, 0.814, 0.581, 71.732, 153.276)" fill="#ba68c8"/>
      <path id="Path_60" data-name="Path 60" d="M168.4,164.733a10.616,10.616,0,1,1,14.8-2.462A10.616,10.616,0,0,1,168.4,164.733Z" transform="translate(-46.134 -117.123)" fill="#ba68c8"/>
      <path id="Path_61" data-name="Path 61" d="M99.489,176.165a10.616,10.616,0,1,1,14.8-2.479A10.616,10.616,0,0,1,99.489,176.165Z" transform="translate(-95.034 -109.015)" fill="#ba68c8"/>
      <path id="Path_62" data-name="Path 62" d="M175.034,204.582a10.616,10.616,0,1,1,7.925,1.834,10.617,10.617,0,0,1-7.925-1.834Z" transform="translate(-41.421 -88.846)" fill="#ba68c8"/>
      <path id="Path_63" data-name="Path 63" d="M106.136,215.993a10.6,10.6,0,1,1,7.913,1.841A10.616,10.616,0,0,1,106.136,215.993Z" transform="translate(-90.312 -80.751)" fill="#ba68c8"/>
      <text id="SFSD" transform="matrix(0.985, -0.174, 0.174, 0.985, 30.77, 105.282)" fill="#3f3c88" font-size="39" font-family="Poppins-Bold, Poppins" font-weight="700"><tspan x="0" y="0">SFSD</tspan></text>
    </g>
  </g>
</svg>
