<svg xmlns="http://www.w3.org/2000/svg" viewBox="0 0 157.61 119.02"><defs><style>.cls-1,.cls-2{fill:none;stroke-miterlimit:10;stroke-width:10px;}.cls-1{stroke:#bd66d3;}.cls-2{stroke:#65a0e5;}.cls-3{fill:#542899;}.cls-4{fill:#ddd;}</style></defs><g id="Layer_2" data-name="Layer 2"><g id="Layer_1-2" data-name="Layer 1"><path class="cls-1" d="M48.88,72.47l-33-20L29.21,32.69a64.24,64.24,0,0,1,89.24-16.37l36.28,25.62"/><path class="cls-2" d="M100.88,45.47,140.73,70,128.4,86.79c-20.15,29.11-60.06,36.43-89.23,14.36L2.88,75.54"/><path class="cls-3" d="M57.51,29.64H86.26A16.66,16.66,0,0,1,102.92,46.3v43a3.46,3.46,0,0,1-3.46,3.46h-42a3.46,3.46,0,0,1-3.46-3.46V33.09a3.46,3.46,0,0,1,3.46-3.46Z" transform="translate(49.29 -33.95) rotate(34.99)"/><rect class="cls-4" x="90.04" y="41.94" width="7.52" height="10.99" rx="1.55" transform="translate(44.15 -45.21) rotate(34.99)"/><rect class="cls-4" x="98.25" y="47.69" width="7.52" height="10.99" rx="1.55" transform="translate(48.93 -48.88) rotate(34.99)"/><rect class="cls-4" x="73.61" y="30.44" width="7.52" height="10.99" rx="1.55" transform="translate(34.59 -37.87) rotate(34.99)"/><rect class="cls-4" x="81.83" y="36.19" width="7.52" height="10.99" rx="1.55" transform="translate(39.37 -41.54) rotate(34.99)"/><rect class="cls-4" x="82.28" y="53.02" width="7.52" height="10.99" rx="1.55" transform="translate(49.11 -38.76) rotate(34.99)"/><rect class="cls-4" x="90.49" y="58.77" width="7.52" height="10.99" rx="1.55" transform="translate(53.89 -42.43) rotate(34.99)"/><rect class="cls-4" x="65.85" y="41.53" width="7.52" height="10.99" rx="1.55" transform="translate(39.55 -31.42) rotate(34.99)"/><rect class="cls-4" x="74.07" y="47.28" width="7.52" height="10.99" rx="1.55" transform="translate(44.33 -35.09) rotate(34.99)"/><rect class="cls-4" x="74.52" y="64.11" width="7.52" height="10.99" rx="1.55" transform="translate(54.06 -32.31) rotate(34.99)"/><rect class="cls-4" x="82.73" y="69.86" width="7.52" height="10.99" rx="1.55" transform="translate(58.84 -35.98) rotate(34.99)"/><rect class="cls-4" x="58.09" y="52.61" width="7.52" height="10.99" rx="1.55" transform="translate(44.5 -24.97) rotate(34.99)"/><rect class="cls-4" x="66.31" y="58.36" width="7.52" height="10.99" rx="1.55" transform="translate(49.28 -28.64) rotate(34.99)"/><rect class="cls-4" x="66.76" y="75.19" width="7.52" height="10.99" rx="1.55" transform="translate(59.02 -25.85) rotate(34.99)"/><rect class="cls-4" x="74.97" y="80.94" width="7.52" height="10.99" rx="1.55" transform="translate(63.8 -29.52) rotate(34.99)"/><rect class="cls-4" x="50.33" y="63.7" width="7.52" height="10.99" rx="1.55" transform="translate(49.46 -18.51) rotate(34.99)"/><rect class="cls-4" x="58.55" y="69.45" width="7.52" height="10.99" rx="1.55" transform="translate(54.24 -22.18) rotate(34.99)"/></g></g></svg>