<svg width="1440" height="273" viewBox="0 0 1440 273" fill="none" xmlns="http://www.w3.org/2000/svg">
<path d="M0 258.827L40.0781 254.888C80.1562 250.809 160.313 242.931 240.188 219.44C320.203 195.949 399.797 157.125 479.813 139.963C559.688 122.802 639.844 127.585 720 154.452C800.156 181.46 880.312 230.693 960.187 254.325C1040.2 278.098 1119.8 276.129 1199.81 265.157C1279.69 254.185 1359.84 233.929 1399.92 223.941L1440 213.813V0H1399.92C1359.84 0 1279.69 0 1199.81 0C1119.8 0 1040.2 0 960.187 0C880.312 0 800.156 0 720 0C639.844 0 559.688 0 479.813 0C399.797 0 320.203 0 240.188 0C160.313 0 80.1562 0 40.0781 0H0V258.827Z" fill="#E4E3E3"/>
</svg>
