<svg width="50" height="50" viewBox="0 0 50 50" fill="none" xmlns="http://www.w3.org/2000/svg">
<path d="M28.7916 45.8333H21.2083C20.7332 45.8334 20.2723 45.6711 19.902 45.3732C19.5318 45.0754 19.2746 44.66 19.1729 44.1958L18.325 40.2708C17.1938 39.7752 16.1213 39.1554 15.127 38.4229L11.3 39.6417C10.847 39.7861 10.3582 39.7713 9.9148 39.5996C9.4714 39.4279 9.10007 39.1098 8.86246 38.6979L5.06246 32.1333C4.82735 31.7211 4.73909 31.2413 4.81213 30.7724C4.88518 30.3035 5.11519 29.8733 5.46455 29.5521L8.4333 26.8437C8.29829 25.6169 8.29829 24.3789 8.4333 23.1521L5.46455 20.45C5.11469 20.1287 4.88437 19.6981 4.81131 19.2287C4.73826 18.7593 4.82682 18.2791 5.06246 17.8667L8.85413 11.2979C9.09174 10.8861 9.46307 10.5679 9.90646 10.3962C10.3499 10.2245 10.8386 10.2097 11.2916 10.3542L15.1187 11.5729C15.627 11.1979 16.1562 10.8479 16.702 10.5312C17.2291 10.2354 17.7708 9.96666 18.325 9.72707L19.175 5.80624C19.2762 5.34207 19.5329 4.92642 19.9028 4.62822C20.2726 4.33001 20.7332 4.16716 21.2083 4.16666H28.7916C29.2667 4.16716 29.7273 4.33001 30.0972 4.62822C30.467 4.92642 30.7238 5.34207 30.825 5.80624L31.6833 9.72916C32.813 10.2276 33.8852 10.8472 34.8812 11.5771L38.7104 10.3583C39.1631 10.2144 39.6514 10.2295 40.0943 10.4012C40.5373 10.5728 40.9083 10.8907 41.1458 11.3021L44.9375 17.8708C45.4208 18.7187 45.2541 19.7917 44.5354 20.4521L41.5666 23.1604C41.7016 24.3873 41.7016 25.6252 41.5666 26.8521L44.5354 29.5604C45.2541 30.2229 45.4208 31.2937 44.9375 32.1417L41.1458 38.7104C40.9082 39.1222 40.5369 39.4404 40.0935 39.6121C39.6501 39.7838 39.1613 39.7986 38.7083 39.6542L34.8812 38.4354C33.8877 39.1674 32.8159 39.7865 31.6854 40.2812L30.825 44.1958C30.7234 44.6596 30.4664 45.0748 30.0966 45.3726C29.7268 45.6704 29.2664 45.8329 28.7916 45.8333ZM24.9916 16.6667C22.7815 16.6667 20.6619 17.5446 19.0991 19.1074C17.5363 20.6702 16.6583 22.7899 16.6583 25C16.6583 27.2101 17.5363 29.3297 19.0991 30.8925C20.6619 32.4554 22.7815 33.3333 24.9916 33.3333C27.2018 33.3333 29.3214 32.4554 30.8842 30.8925C32.447 29.3297 33.325 27.2101 33.325 25C33.325 22.7899 32.447 20.6702 30.8842 19.1074C29.3214 17.5446 27.2018 16.6667 24.9916 16.6667Z" fill="white"/>
</svg>
