<svg width="41" height="41" viewBox="0 0 41 41" fill="none" xmlns="http://www.w3.org/2000/svg">
<path d="M6.83333 22.2083H17.0833C17.5364 22.2083 17.9709 22.0283 18.2913 21.708C18.6117 21.3876 18.7917 20.9531 18.7917 20.5V6.83333C18.7917 6.38026 18.6117 5.94573 18.2913 5.62536C17.9709 5.30498 17.5364 5.125 17.0833 5.125H6.83333C6.38026 5.125 5.94573 5.30498 5.62536 5.62536C5.30498 5.94573 5.125 6.38026 5.125 6.83333V20.5C5.125 20.9531 5.30498 21.3876 5.62536 21.708C5.94573 22.0283 6.38026 22.2083 6.83333 22.2083ZM5.125 34.1667C5.125 34.6197 5.30498 35.0543 5.62536 35.3746C5.94573 35.695 6.38026 35.875 6.83333 35.875H17.0833C17.5364 35.875 17.9709 35.695 18.2913 35.3746C18.6117 35.0543 18.7917 34.6197 18.7917 34.1667V27.3333C18.7917 26.8803 18.6117 26.4457 18.2913 26.1254C17.9709 25.805 17.5364 25.625 17.0833 25.625H6.83333C6.38026 25.625 5.94573 25.805 5.62536 26.1254C5.30498 26.4457 5.125 26.8803 5.125 27.3333V34.1667ZM22.2083 34.1667C22.2083 34.6197 22.3883 35.0543 22.7087 35.3746C23.0291 35.695 23.4636 35.875 23.9167 35.875H34.1667C34.6197 35.875 35.0543 35.695 35.3746 35.3746C35.695 35.0543 35.875 34.6197 35.875 34.1667V22.2083C35.875 21.7553 35.695 21.3207 35.3746 21.0004C35.0543 20.68 34.6197 20.5 34.1667 20.5H23.9167C23.4636 20.5 23.0291 20.68 22.7087 21.0004C22.3883 21.3207 22.2083 21.7553 22.2083 22.2083V34.1667ZM23.9167 17.0833H34.1667C34.6197 17.0833 35.0543 16.9033 35.3746 16.583C35.695 16.2626 35.875 15.8281 35.875 15.375V6.83333C35.875 6.38026 35.695 5.94573 35.3746 5.62536C35.0543 5.30498 34.6197 5.125 34.1667 5.125H23.9167C23.4636 5.125 23.0291 5.30498 22.7087 5.62536C22.3883 5.94573 22.2083 6.38026 22.2083 6.83333V15.375C22.2083 15.8281 22.3883 16.2626 22.7087 16.583C23.0291 16.9033 23.4636 17.0833 23.9167 17.0833Z" fill="#F8F8F8"/>
</svg>
