<svg width="30" height="30" viewBox="0 0 30 30" fill="none" xmlns="http://www.w3.org/2000/svg">
<path d="M23.5988 9.375L18.75 4.52625V9.375H23.5988ZM24.375 11.25H16.875V3.75H5.625V26.25H24.375V11.25ZM4.6875 1.875H18.75L26.25 9.375V27.1875C26.25 27.4361 26.1512 27.6746 25.9754 27.8504C25.7996 28.0262 25.5611 28.125 25.3125 28.125H4.6875C4.43886 28.125 4.2004 28.0262 4.02459 27.8504C3.84877 27.6746 3.75 27.4361 3.75 27.1875V2.8125C3.75 2.56386 3.84877 2.3254 4.02459 2.14959C4.2004 1.97377 4.43886 1.875 4.6875 1.875ZM13.74 17.88L11.0887 15.225L12.4144 13.8994L15.0675 16.5506L17.7188 13.9012L19.0444 15.2269L16.3931 17.88L19.0444 20.5312L17.7188 21.8569L15.0675 19.2056L12.4144 21.8569L11.0887 20.5312L13.74 17.88Z" fill="#FF8181"/>
</svg>
