<svg width="31" height="31" viewBox="0 0 31 31" fill="none" xmlns="http://www.w3.org/2000/svg">
<path d="M4.37637 22.5129L3.93387 25.6066C3.90653 25.7986 3.92424 25.9944 3.98562 26.1784C4.047 26.3624 4.15035 26.5296 4.2875 26.6667C4.42466 26.8039 4.59185 26.9072 4.77584 26.9686C4.95984 27.03 5.1556 27.0477 5.34762 27.0204L8.44137 26.5779C8.91012 26.5116 10.0851 23.3566 10.0851 23.3566C10.0851 23.3566 10.6751 23.8629 10.9164 23.9391C11.4314 24.1016 11.9326 23.5966 12.1014 23.0841L12.5851 20.8691C12.5851 20.8691 13.3064 21.2341 13.5676 21.2879C13.9001 21.3566 14.2226 21.1516 14.4514 20.9216C14.5888 20.7846 14.692 20.6172 14.7526 20.4329L15.0851 18.3691C15.0851 18.3691 15.9289 18.6029 16.2176 18.6366C16.5464 18.6741 16.8664 18.5066 17.1014 18.2704L18.5239 16.8491C19.728 17.2393 21.0165 17.2896 22.2473 16.9945C23.4782 16.6994 24.6038 16.0704 25.5001 15.1766C26.7872 13.8862 27.51 12.138 27.51 10.3154C27.51 8.49276 26.7872 6.74455 25.5001 5.45411C24.2097 4.16701 22.4615 3.4442 20.6389 3.4442C18.8163 3.4442 17.0681 4.16701 15.7776 5.45411C14.8836 6.35027 14.2544 7.47585 13.9593 8.70679C13.6642 9.93774 13.7146 11.2263 14.1051 12.4304L4.72887 21.8054C4.53749 21.9965 4.41372 22.2449 4.37637 22.5129ZM23.2151 7.73911C23.8971 8.42308 24.28 9.34952 24.28 10.3154C24.28 11.2812 23.8971 12.2077 23.2151 12.8916L18.0626 7.73911C18.7466 7.05717 19.673 6.67422 20.6389 6.67422C21.6047 6.67422 22.5312 7.05717 23.2151 7.73911Z" fill="#F8F8F8"/>
</svg>
