<?xml version="1.0" encoding="utf-8"?>
<!-- Generator: Adobe Illustrator 25.0.0, SVG Export Plug-In . SVG Version: 6.00 Build 0)  -->
<svg version="1.1" id="Layer_1" xmlns:svgjs="http://svgjs.com/svgjs"
	 xmlns="http://www.w3.org/2000/svg" xmlns:xlink="http://www.w3.org/1999/xlink" x="0px" y="0px" viewBox="0 0 512 512"
	 style="enable-background:new 0 0 512 512;" xml:space="preserve">
<style type="text/css">
	.st0{fill:#2196F3;}
	.st1{fill:#546E7A;}
	.st2{fill:#607D8B;}
	.st3{fill:#6F8C96;}
	.st4{fill:#1E88E5;}
</style>
<g>
	<path class="st0" d="M102.4,298.4l-74.7-80c-4.5-4.8-11.4-6.4-17.6-4C4,216.9,0,222.8,0,229.3v160c0,6.6,4,12.5,10.1,14.9
		c1.9,0.8,3.9,1.1,5.9,1.1c4.4,0,8.6-1.8,11.7-5.1l74.7-80C108.1,314.1,108.1,304.6,102.4,298.4L102.4,298.4z"/>
	<path class="st1" d="M469.3,362.7h-320c-23.5,0-42.7,19.1-42.7,42.7V448c0,23.5,19.1,42.7,42.7,42.7h320
		c23.5,0,42.7-19.1,42.7-42.7v-42.7C512,381.8,492.9,362.7,469.3,362.7z M149.3,405.3L149.3,405.3H288V448H149.3L149.3,405.3z
		 M469.3,448H330.7v-42.7h138.7V448z"/>
	<path class="st2" d="M469.3,21.3h-320c-23.5,0-42.7,19.1-42.7,42.7v149.3c0,23.5,19.1,42.7,42.7,42.7h320
		c23.5,0,42.7-19.1,42.7-42.7V64C512,40.5,492.9,21.3,469.3,21.3z M469.3,117.3H330.7V64h138.7V117.3z M149.3,64H288v53.3H149.3
		L149.3,64L149.3,64z M149.3,160H288v53.3H149.3L149.3,160z M330.7,213.3V160h138.7v53.3H330.7z"/>
	<path class="st3" d="M149.3,362.7c-23.5,0-42.7,19.1-42.7,42.7V448c0,23.5,19.1,42.7,42.7,42.7h160v-128H149.3z M149.3,405.3H288
		V448H149.3V405.3z"/>
	<path class="st1" d="M149.3,21.3c-23.5,0-42.7,19.1-42.7,42.7v149.3c0,23.5,19.1,42.7,42.7,42.7h160v-96v-42.7v-96H149.3z
		 M288,213.3H149.3V160H288V213.3z M149.3,117.3V64H288v53.3H149.3z"/>
	<path class="st4" d="M16,213.3c-2,0-4,0.4-5.9,1.1C4,216.9,0,222.8,0,229.3v80h106.7c0-3.9-1.5-7.8-4.3-10.9l-74.7-80
		C24.6,215.1,20.4,213.3,16,213.3L16,213.3z"/>
</g>
</svg>
