<?xml version="1.0" encoding="utf-8"?>
<!-- Generator: Adobe Illustrator 25.0.0, SVG Export Plug-In . SVG Version: 6.00 Build 0)  -->
<svg version="1.1" id="Layer_1" xmlns:svgjs="http://svgjs.com/svgjs"
	 xmlns="http://www.w3.org/2000/svg" xmlns:xlink="http://www.w3.org/1999/xlink" x="0px" y="0px" viewBox="0 0 512 512"
	 style="enable-background:new 0 0 512 512;" xml:space="preserve">
<style type="text/css">
	.st0{fill:#4998EE;}
	.st1{fill:#176EDE;}
	.st2{fill:#FFE137;}
	.st3{fill:#FAC814;}
</style>
<g>
	<g>
		<g>
			<path class="st0" d="M13.6,498.4c-6.1-6.1-8.2-15-5.5-23.2l32-96.1c1.1-3.3,3-6.4,5.5-8.9L344.5,71.4c8.8-8.8,23.2-8.8,32,0
				l64,64c8.8,8.8,8.8,23.2,0,32L141.7,466.3c-2.5,2.5-5.5,4.4-8.9,5.5l-96.1,32C28.7,506.5,19.7,504.4,13.6,498.4L13.6,498.4z"/>
		</g>
		<g>
			<path class="st1" d="M408.6,103.4L13.6,498.4c6.1,6.1,15,8.2,23.2,5.5l96.1-32c3.3-1.1,6.4-3,8.9-5.5l298.9-298.9
				c8.8-8.8,8.8-23.2,0-32L408.6,103.4z"/>
		</g>
		<g>
			<g>
				<path class="st2" d="M440.6,167.5l-96.1-96.1l53.4-53.4c14.7-14.7,38.6-14.7,53.4,0l42.7,42.7c14.7,14.7,14.7,38.6,0,53.4
					L440.6,167.5z"/>
			</g>
		</g>
		<g>
			<g>
				<path class="st3" d="M472.6,39.4l-80.1,80.1l48,48l53.4-53.4c14.7-14.7,14.7-38.6,0-53.4L472.6,39.4z"/>
			</g>
		</g>
	</g>
</g>
</svg>
