<svg width="1440" height="1024" viewBox="0 0 1440 1024" fill="none" xmlns="http://www.w3.org/2000/svg">
<g clip-path="url(#clip0_483_12)">
<path d="M0 131.673L21.92 159.899C43.68 188.124 87.52 244.575 131.2 266.529C174.88 288.482 218.72 275.937 262.08 253.984C305.6 232.031 348.8 200.669 392.32 188.124C435.68 175.579 479.52 181.852 523.2 194.397C566.88 206.941 610.72 225.758 654.4 219.486C698.08 213.214 741.92 181.852 785.6 159.899C829.28 137.945 873.12 125.401 916.8 137.945C960.48 150.49 1004.32 188.124 1047.68 206.941C1091.2 225.758 1134.4 225.758 1177.92 203.805C1221.28 181.852 1265.12 137.945 1308.8 119.128C1352.48 100.311 1396.32 106.583 1418.08 109.72L1440 112.856V-22H1418.08C1396.32 -22 1352.48 -22 1308.8 -22C1265.12 -22 1221.28 -22 1177.92 -22C1134.4 -22 1091.2 -22 1047.68 -22C1004.32 -22 960.48 -22 916.8 -22C873.12 -22 829.28 -22 785.6 -22C741.92 -22 698.08 -22 654.4 -22C610.72 -22 566.88 -22 523.2 -22C479.52 -22 435.68 -22 392.32 -22C348.8 -22 305.6 -22 262.08 -22C218.72 -22 174.88 -22 131.2 -22C87.52 -22 43.68 -22 21.92 -22H0V131.673Z" fill="#B87AFA"/>
<path d="M0 320.623L21.92 325.853C43.68 331.083 87.52 341.543 131.2 343.287C174.88 345.03 218.72 338.057 262.08 336.313C305.6 334.57 348.8 338.057 392.32 334.57C435.68 331.083 479.52 320.623 523.2 322.367C566.88 324.11 610.72 338.057 654.4 320.623C698.08 303.19 741.92 254.377 785.6 228.227C829.28 202.077 873.12 198.59 916.8 205.563C960.48 212.537 1004.32 229.97 1047.68 245.66C1091.2 261.35 1134.4 275.297 1177.92 273.553C1221.28 271.81 1265.12 254.377 1308.8 252.633C1352.48 250.89 1396.32 264.837 1418.08 271.81L1440 278.783V97.4767L1418.08 95.7334C1396.32 93.9901 1352.48 90.5034 1308.8 100.963C1265.12 111.423 1221.28 135.83 1177.92 148.033C1134.4 160.237 1091.2 160.237 1047.68 149.777C1004.32 139.317 960.48 118.397 916.8 111.423C873.12 104.45 829.28 111.423 785.6 123.627C741.92 135.83 698.08 153.263 654.4 156.75C610.72 160.237 566.88 149.777 523.2 142.803C479.52 135.83 435.68 132.343 392.32 139.317C348.8 146.29 305.6 163.723 262.08 175.927C218.72 188.13 174.88 195.103 131.2 182.9C87.52 170.697 43.68 139.317 21.92 123.627L0 107.937V320.623Z" fill="#A65AF7"/>
<path d="M0 479.523L21.92 514.39C43.68 549.256 87.52 618.99 131.2 648.626C174.88 678.263 218.72 667.803 262.08 634.68C305.6 601.556 348.8 545.77 392.32 540.54C435.68 535.31 479.52 580.636 523.2 592.84C566.88 605.043 610.72 584.123 654.4 591.096C698.08 598.07 741.92 632.936 785.6 655.6C829.28 678.263 873.12 688.723 916.8 700.926C960.48 713.13 1004.32 727.076 1047.68 690.466C1091.2 653.856 1134.4 566.69 1177.92 549.256C1221.28 531.823 1265.12 584.123 1308.8 613.76C1352.48 643.396 1396.32 650.37 1418.08 653.856L1440 657.343V277.296L1418.08 270.323C1396.32 263.35 1352.48 249.403 1308.8 251.146C1265.12 252.89 1221.28 270.323 1177.92 272.066C1134.4 273.81 1091.2 259.863 1047.68 244.173C1004.32 228.483 960.48 211.05 916.8 204.076C873.12 197.103 829.28 200.59 785.6 226.74C741.92 252.89 698.08 301.703 654.4 319.136C610.72 336.57 566.88 322.623 523.2 320.88C479.52 319.136 435.68 329.596 392.32 333.083C348.8 336.57 305.6 333.083 262.08 334.826C218.72 336.57 174.88 343.543 131.2 341.8C87.52 340.056 43.68 329.596 21.92 324.366L0 319.136V479.523Z" fill="#9235F4"/>
<path d="M0 726.564L21.92 733.537C43.68 740.51 87.52 754.457 131.2 784.094C174.88 813.73 218.72 859.057 262.08 850.34C305.6 841.624 348.8 778.864 392.32 749.227C435.68 719.59 479.52 723.077 523.2 714.36C566.88 705.644 610.72 684.724 654.4 705.644C698.08 726.564 741.92 789.324 785.6 818.96C829.28 848.597 873.12 845.11 916.8 855.57C960.48 866.03 1004.32 890.437 1047.68 848.597C1091.2 806.757 1134.4 698.67 1177.92 676.007C1221.28 653.344 1265.12 716.104 1308.8 773.634C1352.48 831.164 1396.32 883.464 1418.08 909.614L1440 935.764V649.857L1418.08 646.37C1396.32 642.884 1352.48 635.91 1308.8 606.274C1265.12 576.637 1221.28 524.337 1177.92 541.77C1134.4 559.204 1091.2 646.37 1047.68 682.98C1004.32 719.59 960.48 705.644 916.8 693.44C873.12 681.237 829.28 670.777 785.6 648.114C741.92 625.45 698.08 590.584 654.4 583.61C610.72 576.637 566.88 597.557 523.2 585.354C479.52 573.15 435.68 527.824 392.32 533.054C348.8 538.284 305.6 594.07 262.08 627.194C218.72 660.317 174.88 670.777 131.2 641.14C87.52 611.504 43.68 541.77 21.92 506.904L0 472.037V726.564Z" fill="#7E2CD5"/>
<path d="M0 1025.74H21.92C43.68 1025.74 87.52 1025.74 131.2 1025.74C174.88 1025.74 218.72 1025.74 262.08 1025.74C305.6 1025.74 348.8 1025.74 392.32 1025.74C435.68 1025.74 479.52 1025.74 523.2 1025.74C566.88 1025.74 610.72 1025.74 654.4 1025.74C698.08 1025.74 741.92 1025.74 785.6 1025.74C829.28 1025.74 873.12 1025.74 916.8 1025.74C960.48 1025.74 1004.32 1025.74 1047.68 1025.74C1091.2 1025.74 1134.4 1025.74 1177.92 1025.74C1221.28 1025.74 1265.12 1025.74 1308.8 1025.74C1352.48 1025.74 1396.32 1025.74 1418.08 1025.74H1440V886.276L1418.08 860.126C1396.32 833.976 1352.48 781.676 1308.8 724.146C1265.12 666.616 1221.28 603.856 1177.92 626.52C1134.4 649.183 1091.2 757.27 1047.68 799.11C1004.32 840.95 960.48 816.543 916.8 806.083C873.12 795.623 829.28 799.11 785.6 769.473C741.92 739.836 698.08 677.076 654.4 656.156C610.72 635.236 566.88 656.156 523.2 664.873C479.52 673.59 435.68 670.103 392.32 699.74C348.8 729.376 305.6 792.136 262.08 800.853C218.72 809.57 174.88 764.243 131.2 734.606C87.52 704.97 43.68 691.023 21.92 684.05L0 677.076V1025.74Z" fill="#6B23B6"/>
</g>
<defs>
<clipPath id="clip0_483_12">
<rect width="1440" height="1046" fill="white" transform="translate(0 -22)"/>
</clipPath>
</defs>
</svg>
