<svg width="42" height="42" viewBox="0 0 42 42" fill="none" xmlns="http://www.w3.org/2000/svg">
<path d="M41.1075 21.4725C41.1075 20.09 40.985 18.7775 40.775 17.5H21V25.3925H32.3225C31.815 27.9825 30.3275 30.17 28.1225 31.6575V36.9075H34.8775C38.8325 33.25 41.1075 27.86 41.1075 21.4725Z" fill="#4285F4"/>
<path d="M21.0001 42.0003C26.6701 42.0003 31.4126 40.1103 34.8776 36.9078L28.1226 31.6578C26.2326 32.9178 23.8351 33.6878 21.0001 33.6878C15.5226 33.6878 10.8851 29.9953 9.22257 25.0078H2.25757V30.4153C5.70507 37.2753 12.7926 42.0003 21.0001 42.0003Z" fill="#34A853"/>
<path d="M9.2225 25.0075C8.785 23.7475 8.5575 22.4 8.5575 21C8.5575 19.6 8.8025 18.2525 9.2225 16.9925V11.585H2.2575C0.822498 14.42 0 17.605 0 21C0 24.395 0.822498 27.58 2.2575 30.415L9.2225 25.0075Z" fill="#FBBC05"/>
<path d="M21.0001 8.3125C24.0976 8.3125 26.8626 9.38 29.0501 11.4625L35.0351 5.4775C31.4126 2.0825 26.6701 0 21.0001 0C12.7926 0 5.70507 4.725 2.25757 11.585L9.22257 16.9925C10.8851 12.005 15.5226 8.3125 21.0001 8.3125Z" fill="#EA4335"/>
</svg>
