<svg width="420" height="474" viewBox="0 0 420 474" fill="none" xmlns="http://www.w3.org/2000/svg">
<path d="M274.411 470.066H398.439C399.089 470.066 399.712 469.805 400.172 469.339C400.632 468.873 400.89 468.242 400.89 467.583V459.571C400.884 458.916 400.624 458.29 400.165 457.829C399.706 457.368 399.085 457.109 398.439 457.109H280.804V200.519H396.436C397.614 200.519 398.743 200.047 399.578 199.205C400.412 198.363 400.884 197.221 400.89 196.028V187.562H274.411C272.715 187.562 271.089 188.245 269.89 189.46C268.691 190.675 268.018 192.323 268.018 194.041V463.588C268.018 465.306 268.691 466.954 269.89 468.169C271.089 469.384 272.715 470.066 274.411 470.066Z" fill="#263238"/>
<g opacity="0.3">
<path opacity="0.3" d="M268.018 194.041V463.566C268.018 465.284 268.691 466.932 269.89 468.147C271.089 469.362 272.715 470.045 274.411 470.045H398.439C399.084 470.045 399.702 469.785 400.157 469.324C400.613 468.862 400.869 468.236 400.869 467.583V459.571C400.869 458.916 400.613 458.288 400.158 457.823C399.703 457.358 399.086 457.093 398.439 457.088H280.804V200.519H396.436C397.614 200.514 398.741 200.036 399.572 199.19C400.402 198.344 400.869 197.199 400.869 196.006V187.562H274.411C272.715 187.562 271.089 188.245 269.89 189.46C268.691 190.675 268.018 192.323 268.018 194.041Z" fill="white"/>
</g>
<path opacity="0.2" d="M268.018 194.041V262.777C272.28 263.872 276.542 264.93 280.804 265.952V200.519H396.436C397.614 200.514 398.741 200.036 399.572 199.19C400.402 198.344 400.869 197.199 400.869 196.006V187.562H274.411C272.715 187.562 271.089 188.245 269.89 189.46C268.691 190.675 268.018 192.323 268.018 194.041Z" fill="black"/>
<path d="M43.7225 433.895L94.5698 429.403V361.833H112.449V429.49L163.595 433.895C165.766 434.11 167.78 435.135 169.245 436.772C170.711 438.408 171.522 440.539 171.523 442.749V449.616H35.731V442.749C35.7327 440.529 36.5536 438.39 38.0322 436.751C39.5108 435.113 41.5405 434.094 43.7225 433.895Z" fill="#263238"/>
<path opacity="0.1" d="M43.7225 433.895L94.5698 429.403V361.833H112.449V429.49L163.595 433.895C165.766 434.11 167.78 435.135 169.245 436.772C170.711 438.408 171.522 440.539 171.523 442.749V449.616H35.731V442.749C35.7327 440.529 36.5536 438.39 38.0322 436.751C39.5108 435.113 41.5405 434.094 43.7225 433.895Z" fill="white"/>
<path d="M154.943 458.146C154.943 460.49 155.629 462.783 156.915 464.732C158.2 466.682 160.028 468.201 162.165 469.099C164.303 469.996 166.656 470.231 168.925 469.773C171.195 469.316 173.279 468.187 174.916 466.529C176.552 464.871 177.666 462.758 178.117 460.459C178.569 458.159 178.337 455.775 177.452 453.609C176.566 451.442 175.067 449.591 173.143 448.288C171.219 446.985 168.957 446.29 166.643 446.29C165.105 446.287 163.583 446.592 162.162 447.187C160.741 447.782 159.451 448.655 158.364 449.756C157.277 450.858 156.415 452.166 155.828 453.605C155.241 455.045 154.94 456.588 154.943 458.146V458.146Z" fill="#263238"/>
<path d="M52.2468 458.146C52.2468 460.491 51.5601 462.784 50.2736 464.735C48.9871 466.685 47.1586 468.204 45.0195 469.101C42.8805 469.997 40.527 470.231 38.2569 469.772C35.9868 469.313 33.9022 468.181 32.2668 466.521C30.6315 464.861 29.5189 462.746 29.0699 460.445C28.6209 458.144 28.8556 455.76 29.7444 453.594C30.6332 451.428 32.136 449.578 34.0628 448.278C35.9896 446.977 38.2537 446.286 40.5685 446.29C42.1039 446.29 43.6243 446.597 45.0425 447.193C46.4608 447.789 47.7492 448.663 48.8339 449.764C49.9186 450.865 50.7783 452.172 51.364 453.61C51.9496 455.049 52.2496 456.59 52.2468 458.146V458.146Z" fill="#263238"/>
<path d="M107.612 375.546H99.4074C97.3105 375.546 95.2996 374.702 93.8169 373.199C92.3341 371.697 91.5012 369.659 91.5012 367.534V309.228H115.518L115.518 367.534C115.518 369.659 114.685 371.697 113.203 373.199C111.72 374.702 109.709 375.546 107.612 375.546V375.546Z" fill="#263238"/>
<path opacity="0.2" d="M107.612 375.546H99.4074C97.3105 375.546 95.2996 374.702 93.8169 373.199C92.3341 371.697 91.5012 369.659 91.5012 367.534V309.228H115.518L115.518 367.534C115.518 369.659 114.685 371.697 113.203 373.199C111.72 374.702 109.709 375.546 107.612 375.546V375.546Z" fill="white"/>
<path d="M50.7763 175.383C50.7763 175.383 56.2745 287.309 80.0573 306.572H54.6123C54.6123 306.572 31.9377 268.435 30.2542 175.383H50.7763Z" fill="#263238"/>
<path opacity="0.1" d="M50.7763 175.383C50.7763 175.383 56.2745 287.309 80.0573 306.572H54.6123C54.6123 306.572 31.9377 268.435 30.2542 175.383H50.7763Z" fill="white"/>
<path d="M48.7092 297.286H161.464C164.002 297.286 166.436 298.308 168.23 300.126C170.025 301.944 171.033 304.411 171.033 306.982V315.836H39.1194V306.982C39.1194 305.707 39.3676 304.445 39.8498 303.267C40.332 302.089 41.0387 301.019 41.9295 300.118C42.8202 299.218 43.8776 298.504 45.041 298.018C46.2043 297.532 47.4509 297.283 48.7092 297.286V297.286Z" fill="#7E57C2"/>
<path d="M172.226 306.571H37.9686C35.8383 306.571 34.1113 308.321 34.1113 310.48V311.927C34.1113 314.085 35.8383 315.835 37.9686 315.835H172.226C174.356 315.835 176.083 314.085 176.083 311.927V310.48C176.083 308.321 174.356 306.571 172.226 306.571Z" fill="#263238"/>
<path opacity="0.6" d="M172.226 306.571H37.9686C35.8383 306.571 34.1113 308.321 34.1113 310.48V311.927C34.1113 314.085 35.8383 315.835 37.9686 315.835H172.226C174.356 315.835 176.083 314.085 176.083 311.927V310.48C176.083 308.321 174.356 306.571 172.226 306.571Z" fill="white"/>
<path d="M25.7789 199.871H66.5462C78.4802 199.871 87.0897 189.074 85.7259 175.577L83.9997 157.697C82.6784 144.286 71.9591 133.402 60.0252 133.402H19.3217C7.38773 133.402 -1.2218 144.2 0.142087 157.697L1.86825 175.577C3.10427 189.074 13.8449 199.871 25.7789 199.871Z" fill="#7E57C2"/>
<path d="M160.314 103.321C162.85 111.463 165.833 119.949 169.115 127.723C171.885 134.202 175.828 142.451 180.324 146.792C184.416 150.484 194.155 151.888 200.484 152.73C209.009 153.832 218.087 154.242 226.931 154.609L228.508 166.702C219.132 169.252 209.518 170.794 199.824 171.302C188.998 171.691 176.382 171.302 167.005 164.564C153.388 153.767 147.463 139.385 141.432 124.203C139.727 119.388 138.193 114.983 136.893 109.929L160.335 103.321H160.314Z" fill="#B65B52"/>
<path d="M149.85 91.8975C156.563 94.2297 162.636 104.012 179.536 143.25C179.536 143.25 182.285 148.044 195.987 151.046L194.73 173.072C194.73 173.072 175.167 172.209 170.628 169.034C166.089 165.86 138.875 120.489 138.875 120.489L149.85 91.8975Z" fill="#263238"/>
<path opacity="0.2" d="M195.988 151.089L194.73 173.116C194.73 173.116 179.046 172.425 172.503 169.984C171.844 169.761 171.214 169.456 170.628 169.077C168.007 167.22 157.841 151.262 149.637 138.132C143.691 128.587 138.981 120.532 138.981 120.532L149.85 91.8975C156.563 94.2297 162.636 104.012 179.557 143.228C179.557 143.272 182.285 148.044 195.988 151.089Z" fill="white"/>
<path opacity="0.2" d="M172.503 169.984C171.844 169.76 171.214 169.456 170.628 169.077C168.007 167.22 157.841 151.261 149.637 138.132C151.772 130.687 154.298 123.364 157.202 116.191C157.202 116.191 172.801 147.871 172.503 169.984Z" fill="black"/>
<path d="M222.285 155.711L237.565 150.14L235.689 170.871C235.689 170.871 221.667 172.685 219.941 165.213L222.285 155.711Z" fill="#B55B52"/>
<path d="M250.223 154.329L247.879 171.411L235.689 170.871L237.565 150.14L250.223 154.329Z" fill="#B55B52"/>
<path d="M196.094 150.14L203.894 152.515L201.038 173.937L193.239 175.298L196.094 150.14Z" fill="#263238"/>
<path d="M160.91 228.14C160.91 228.14 264.033 269.364 288.007 286.597C311.982 303.83 372.44 420.01 372.44 420.01L347.443 439.445C347.443 439.445 275.327 333.328 266.462 326.137C257.597 318.946 142.86 283.25 142.86 283.25L160.91 228.14Z" fill="#7E57C2"/>
<path opacity="0.4" d="M372.44 420.01L347.443 439.446C347.443 439.446 330.607 414.676 312.216 388.266C292.546 359.998 271.086 329.96 266.526 326.137C260.133 320.868 196.946 300.353 163.467 289.728C151.15 285.798 142.86 283.25 142.86 283.25L160.889 228.075C160.889 228.075 263.99 269.3 287.986 286.532C311.982 303.765 372.44 420.01 372.44 420.01Z" fill="white"/>
<path d="M377.022 461.58L389.062 449.314L369.371 418.455L357.352 430.721L377.022 461.58Z" fill="#B55B52"/>
<path opacity="0.2" d="M357.352 430.72L369.371 418.476L380.624 436.118L368.178 447.736L357.352 430.72Z" fill="black"/>
<path d="M391.151 447.974C391.151 447.974 391.151 447.974 391.3 447.974C391.449 447.974 391.3 447.974 391.3 447.974C392.718 447.447 394.075 446.766 395.349 445.945C396.341 445.406 397.101 444.513 397.48 443.44C397.558 443.037 397.522 442.62 397.375 442.237C397.227 441.855 396.976 441.523 396.649 441.28C396.473 441.095 396.254 440.958 396.012 440.882C395.769 440.807 395.512 440.795 395.264 440.848C394.092 441.129 392.941 442.813 392.067 444.433C392.252 442.921 391.905 441.392 391.087 440.114C390.848 439.87 390.534 439.715 390.197 439.676C389.86 439.637 389.52 439.715 389.233 439.898C388.965 440.025 388.731 440.215 388.55 440.451C388.368 440.688 388.245 440.964 388.189 441.258C387.698 443.591 390.788 447.348 390.938 447.564L391.151 447.348L390.959 447.586C390.959 447.586 390.81 447.823 390.81 447.845C390.842 447.904 390.894 447.951 390.956 447.974C391.019 447.998 391.088 447.998 391.151 447.974V447.974ZM391.257 446.376C391.257 446.506 391.151 446.636 391.108 446.744C390.171 445.405 388.785 443.051 389.084 441.669C389.109 441.507 389.167 441.352 389.255 441.214C389.343 441.076 389.459 440.959 389.595 440.87H389.744C390.256 440.611 390.533 440.762 390.703 440.87C391.519 442.583 391.715 444.532 391.257 446.376ZM391.982 446.895C392.92 444.735 394.475 441.928 395.647 441.669C395.77 441.637 395.898 441.641 396.018 441.679C396.139 441.717 396.246 441.788 396.329 441.885C396.528 442.04 396.684 442.245 396.781 442.48C396.878 442.715 396.913 442.971 396.883 443.224C396.649 444.347 394.838 445.685 391.982 446.895V446.895Z" fill="#7E57C2"/>
<path d="M388.828 446.873L372.93 457.671C372.793 457.753 372.673 457.862 372.578 457.992C372.483 458.121 372.415 458.269 372.377 458.426C372.339 458.583 372.333 458.746 372.358 458.906C372.384 459.065 372.441 459.218 372.525 459.355L380.197 472.636C380.636 473.308 381.32 473.776 382.099 473.938C382.878 474.1 383.688 473.942 384.353 473.5C389.83 469.634 392.259 467.518 399.27 462.702C405.653 458.724 411.756 454.301 417.534 449.465C422.776 444.519 417.811 439.401 415.168 441.021C408.775 444.843 397.949 446.485 391.854 446.031C390.779 445.946 389.709 446.244 388.828 446.873Z" fill="#263238"/>
<path d="M348.615 448.018L379.835 426.963L372.632 412.084L338.812 435.86L348.615 448.018Z" fill="#7E57C2"/>
<path opacity="0.2" d="M348.615 448.018L379.835 426.963L372.632 412.084L338.812 435.86L348.615 448.018Z" fill="white"/>
<path opacity="0.2" d="M312.259 388.352C292.589 360.084 271.129 330.046 266.569 326.224C260.175 320.954 196.989 300.439 163.51 289.815L159.61 248.784L171.842 246.625L173.228 249.778C173.228 249.778 249.648 267.334 271.257 278.305C285.173 285.237 303.862 354.513 312.259 388.352Z" fill="black"/>
<path d="M307.677 452.078C307.7 452.088 307.726 452.093 307.751 452.093C307.777 452.093 307.802 452.088 307.826 452.078C309.339 452.06 310.847 451.879 312.322 451.538C313.451 451.376 314.478 450.79 315.199 449.897C315.411 449.553 315.523 449.157 315.523 448.752C315.523 448.347 315.411 447.951 315.199 447.608C315.094 447.372 314.931 447.167 314.726 447.012C314.521 446.857 314.281 446.757 314.027 446.722C312.834 446.571 311.193 447.802 309.765 449.033C310.418 447.693 310.577 446.162 310.213 444.714C310.071 444.404 309.829 444.151 309.527 443.998C309.225 443.846 308.881 443.801 308.551 443.872C308.259 443.916 307.979 444.022 307.73 444.182C307.48 444.342 307.266 444.552 307.101 444.8C305.887 446.852 307.57 451.43 307.655 451.689L307.911 451.538L307.655 451.711C307.655 451.711 307.421 451.883 307.442 451.905L307.677 452.078ZM308.316 450.588L308.039 450.89C307.378 449.136 307.288 447.214 307.783 445.405C307.863 445.265 307.971 445.143 308.099 445.046C308.227 444.95 308.374 444.881 308.529 444.843H308.721C309.275 444.843 309.488 445.016 309.573 445.232C309.788 447.112 309.343 449.008 308.316 450.588V450.588ZM308.806 451.322C310.405 449.594 312.791 447.478 313.985 447.629C314.11 447.642 314.23 447.689 314.331 447.765C314.432 447.841 314.511 447.943 314.56 448.061C314.679 448.283 314.742 448.532 314.742 448.785C314.742 449.037 314.679 449.286 314.56 449.508C314.049 450.48 311.918 451.149 308.806 451.322V451.322Z" fill="#7E57C2"/>
<path d="M289.904 460.155L305.269 452.618L296.126 415.519L280.783 423.055L289.904 460.155Z" fill="#B55B52"/>
<path opacity="0.2" d="M280.783 423.054L296.126 415.539L301.348 436.745L285.791 443.504L280.783 423.054Z" fill="black"/>
<path d="M305.844 450.242L287.304 455.101C287.147 455.132 286.999 455.194 286.867 455.284C286.734 455.374 286.621 455.49 286.534 455.624C286.447 455.759 286.387 455.91 286.358 456.069C286.329 456.228 286.332 456.39 286.366 456.548V456.548L289.264 471.664C289.474 472.435 289.973 473.091 290.653 473.494C291.334 473.898 292.143 474.016 292.908 473.824C299.302 472.01 302.328 470.822 310.468 468.62C317.766 467.041 324.944 464.941 331.95 462.335C338.513 459.442 335.508 452.942 332.482 453.589C325.279 455.079 314.432 452.942 308.849 450.458C307.896 450.062 306.843 449.987 305.844 450.242Z" fill="#263238"/>
<path d="M303.607 422.557C303.607 422.557 277.608 290.375 272.28 282.514C263.628 269.557 159.589 248.675 159.589 248.675L171.8 246.516L157.692 208.509L65.0547 212.201C65.0547 212.201 66.9939 274.222 76.4133 290.85C85.8326 307.478 225.183 315.123 234.24 318.923C243.297 322.724 270.937 426.401 270.937 426.401L303.607 422.557Z" fill="#7E57C2"/>
<path opacity="0.4" d="M303.607 422.557C303.607 422.557 277.608 290.375 272.28 282.514C263.628 269.557 159.589 248.675 159.589 248.675L171.8 246.516L157.692 208.509L65.0547 212.201C65.0547 212.201 66.9939 274.222 76.4133 290.85C85.8326 307.478 225.183 315.123 234.24 318.923C243.297 322.724 270.937 426.401 270.937 426.401L303.607 422.557Z" fill="white"/>
<path d="M271.491 438.106L307.847 428.734L305.908 412.278L266.228 423.356L271.491 438.106Z" fill="#7E57C2"/>
<path opacity="0.2" d="M271.491 438.106L307.847 428.734L305.908 412.278L266.228 423.356L271.491 438.106Z" fill="white"/>
<path d="M94.378 213.65L67.5266 213.196L66.9512 221.424L95.5288 222.115L94.378 213.65Z" fill="#263238"/>
<path d="M98.5125 213.499L99.6845 222.05L159.61 221.186L157.671 213.391L98.5125 213.499Z" fill="#263238"/>
<path d="M127.367 214.988L128.134 220.624C128.246 221.312 128.598 221.937 129.126 222.385C129.654 222.833 130.323 223.074 131.011 223.064L140.601 222.762C140.918 222.768 141.233 222.702 141.522 222.569C141.811 222.436 142.067 222.239 142.271 221.992C142.476 221.746 142.623 221.457 142.703 221.145C142.782 220.834 142.792 220.508 142.732 220.192L141.944 214.534C141.831 213.848 141.478 213.226 140.95 212.782C140.422 212.338 139.753 212.101 139.067 212.116L129.498 212.418C129.181 212.412 128.866 212.478 128.577 212.612C128.288 212.745 128.032 212.942 127.828 213.188C127.623 213.434 127.476 213.724 127.396 214.035C127.317 214.347 127.307 214.672 127.367 214.988V214.988Z" fill="white"/>
<path d="M67.3988 211.987H155.412C156.466 211.993 157.484 211.604 158.271 210.894C159.058 210.184 159.558 209.204 159.674 208.143C170.543 121.763 149.786 91.9411 149.786 91.9411C141.883 89.6541 133.818 87.9864 125.662 86.9527C113.745 86.0026 101.785 85.743 89.8389 86.1752C81.7006 86.3973 73.5887 87.2128 65.566 88.6154C61.3039 90.4942 56.8926 109.735 61.3039 169.682C62.4547 185.382 62.6252 198.943 62.5186 206.89C62.5015 208.221 63.0054 209.505 63.9201 210.46C64.8347 211.415 66.0855 211.964 67.3988 211.987V211.987Z" fill="#263238"/>
<path d="M137.511 122.497H154.474L155.753 143.012L146.653 148.994L137.511 144.416V122.497Z" fill="#263238"/>
<path opacity="0.2" d="M159.738 208.142C159.622 209.203 159.122 210.183 158.335 210.893C157.548 211.603 156.529 211.992 155.476 211.986H67.4626C66.8033 211.989 66.1501 211.859 65.541 211.603C64.9319 211.347 64.3791 210.971 63.9149 210.497C63.4507 210.023 63.0844 209.459 62.8374 208.84C62.5903 208.221 62.4674 207.558 62.4759 206.89C62.4759 198.943 62.4759 185.295 61.2825 169.682C60.6716 161.044 60.2241 153.241 59.9399 146.273C59.2449 133.525 59.3161 120.746 60.153 108.007C61.2186 95.0498 63.4136 89.5863 65.6299 88.5714C73.6808 87.1656 81.8213 86.3501 89.988 86.1312C101.927 85.6991 113.88 85.9587 125.79 86.9086C133.924 87.9456 141.968 89.6133 149.85 91.897C149.85 91.897 170.606 121.849 159.738 208.142Z" fill="white"/>
<path d="M90.7126 85.2896L119.141 95.1152L120.292 86.866C117.522 81.9424 116.818 78.8327 119.162 73.1101L100.196 51.0186C100.686 62.3343 98.6615 77.7962 90.7126 85.2896Z" fill="#B55B52"/>
<path d="M108.699 99.391L114.282 101.745L119.141 104.833C119.141 104.833 125.641 142.537 123.829 174.368L129.285 178.903L135.039 174.217C135.039 174.217 127.878 115.76 125.3 104.379L126.429 101.637L129.05 95.979L124.213 93.4092L116.52 95.1152H111.149L108.699 99.391Z" fill="white"/>
<path opacity="0.2" d="M107.91 60.0234L119.141 73.1099C118.298 75.1154 117.621 77.1884 117.116 79.3076C112.364 77.8608 106.461 71.4471 106.738 66.2211C106.754 64.1002 107.151 62 107.91 60.0234Z" fill="black"/>
<path d="M92.4814 80.0635C100.505 85.4767 109.078 90.0015 118.054 93.5602C119.035 89.5392 119.035 85.3369 118.054 81.316L130.606 87.6648C130.606 87.6648 131.651 97.5336 128.774 102.781L119.546 95.9356L109.189 104.574C109.189 104.574 89.5831 96.9074 86.5144 86.4987L92.4814 80.0635Z" fill="#263238"/>
<path opacity="0.2" d="M156.435 156.682L127.367 180.436C85.6407 189.851 67.2922 163.484 59.9187 146.208C59.2237 133.46 59.2948 120.681 60.1318 107.942C70.1478 107.467 82.6146 107.467 85.9817 110.102C91.8421 114.658 112.258 146.597 115.305 148.972C118.353 151.348 156.435 156.682 156.435 156.682Z" fill="black"/>
<path d="M172.972 155.559L188.252 149.966L186.376 170.697C186.376 170.697 172.354 172.511 170.628 165.039L172.972 155.559Z" fill="#B55B52"/>
<path d="M200.889 154.155L198.566 171.237L186.376 170.697L188.252 149.966L200.889 154.155Z" fill="#B55B52"/>
<path d="M84.0851 113.729C88.5922 122.752 93.5718 131.525 99.0026 140.01C102.343 145.558 106.529 150.536 111.405 154.759C111.774 155.084 112.201 155.333 112.663 155.493C118 156.923 123.511 157.578 129.029 157.437C144.501 157.588 160.25 156.141 175.785 154.802L178.321 166.722C167.913 170.159 157.3 172.922 146.547 174.993C134.89 177.153 124.256 178.772 111.853 177.563C107.852 177.139 103.968 175.944 100.409 174.043C86.5997 165.859 78.1394 152.621 70.1266 139.491C67.2496 134.395 64.6284 129.644 62.199 124.202L84.149 113.686L84.0851 113.729Z" fill="#B65B52"/>
<path d="M65.566 88.6152C38.0752 98.6568 73.728 168.063 88.7308 175.837C103.734 183.611 129.051 180.437 129.051 180.437L130.841 156.315C130.841 156.315 117.713 154.695 113.792 153.745C107.548 152.234 94.9322 124.29 86.4292 109.109C81.7362 100.254 74.4464 93.093 65.566 88.6152V88.6152Z" fill="#263238"/>
<path opacity="0.2" d="M65.566 88.6152C38.0752 98.6568 73.728 168.063 88.7308 175.837C103.734 183.611 129.051 180.437 129.051 180.437L130.841 156.315C130.841 156.315 117.713 154.695 113.792 153.745C107.548 152.234 94.9322 124.29 86.4292 109.109C81.7362 100.254 74.4464 93.093 65.566 88.6152V88.6152Z" fill="white"/>
<path d="M127.303 154.5L125.087 182.508L132.972 181.018L135.039 155.99L127.303 154.5Z" fill="#263238"/>
<path d="M149.061 28.2569C150.148 34.7353 147.399 47.3035 139.407 41.9912C131.416 36.6789 147.165 17.1572 149.061 28.2569Z" fill="#263238"/>
<path d="M103.925 30.5679C100.856 46.3753 98.2566 55.4667 103.925 65.4435C112.449 80.4303 133.398 78.1413 141.091 63.5648C148.017 50.4135 151.874 26.8536 138.385 16.7688C135.397 14.5618 131.907 13.156 128.24 12.6823C124.572 12.2085 120.846 12.6821 117.408 14.059C113.969 15.436 110.93 17.6715 108.573 20.5578C106.216 23.4441 104.617 26.8875 103.925 30.5679V30.5679Z" fill="#B55B52"/>
<path d="M96.424 13.1409L114.091 12.3203L114.559 22.5995L113.515 22.0164C113.515 22.0164 112.407 37.1328 103.947 42.1645C92.5028 33.3106 89.1357 18.8204 96.424 13.1409Z" fill="#263238"/>
<path d="M94.5912 41.9705C94.7016 43.965 95.2011 45.9175 96.0607 47.7152C96.9202 49.5129 98.1229 51.1201 99.5992 52.4439C103.584 55.9639 107.889 52.9191 108.72 47.9091C109.466 43.3957 108.294 36.1183 103.371 34.5202C102.284 34.1972 101.135 34.1509 100.027 34.3856C98.9177 34.6203 97.8832 35.1287 97.0147 35.8656C96.1462 36.6026 95.4706 37.5453 95.0479 38.6103C94.6251 39.6752 94.4683 40.8294 94.5912 41.9705V41.9705Z" fill="#B55B52"/>
<path d="M126.131 40.8686C125.79 42.1427 126.131 43.3304 127.026 43.5464C127.921 43.7623 128.773 42.8986 129.157 41.6245C129.541 40.3504 129.157 39.1627 128.262 38.9683C127.367 38.7739 126.451 39.6161 126.131 40.8686Z" fill="#263238"/>
<path d="M140.303 44.497C139.983 45.7495 140.303 46.9588 141.198 47.1531C142.093 47.3475 142.966 46.5053 143.329 45.2528C143.691 44.0003 143.329 42.791 142.434 42.5751C141.539 42.3591 140.644 43.2229 140.303 44.497Z" fill="#263238"/>
<path d="M135.636 43.9785C136.213 48.1155 137.361 52.1499 139.045 55.9636C138.028 56.3292 136.947 56.4739 135.871 56.3883C134.795 56.3028 133.749 55.9889 132.801 55.467L135.636 43.9785Z" fill="#A02724"/>
<path d="M124.831 58.5988C125.349 58.8206 125.883 59.0011 126.429 59.1387C126.528 59.1593 126.631 59.142 126.717 59.0901C126.804 59.0382 126.868 58.9554 126.898 58.8579C126.911 58.8083 126.914 58.7566 126.907 58.7058C126.9 58.655 126.883 58.6061 126.857 58.5619C126.831 58.5178 126.797 58.4792 126.757 58.4485C126.716 58.4177 126.67 58.3954 126.621 58.3828C125.057 58.0291 123.598 57.3017 122.368 56.2612C121.137 55.2207 120.17 53.8972 119.546 52.4011C119.508 52.307 119.437 52.2305 119.346 52.1866C119.255 52.1427 119.152 52.1345 119.056 52.1635C119.006 52.1778 118.96 52.2025 118.921 52.2361C118.882 52.2696 118.85 52.3113 118.828 52.3583C118.806 52.4053 118.794 52.4564 118.793 52.5085C118.791 52.5606 118.801 52.6123 118.821 52.6602C119.363 54.0175 120.177 55.2462 121.211 56.2684C122.246 57.2906 123.478 58.0841 124.831 58.5988V58.5988Z" fill="#263238"/>
<path d="M122.956 35.1451C123.08 35.1929 123.215 35.2061 123.346 35.1833C123.477 35.1606 123.6 35.1026 123.702 35.0156C124.437 34.3948 125.306 33.9565 126.238 33.7353C127.17 33.5141 128.141 33.5163 129.072 33.7415C129.167 33.7749 129.268 33.7885 129.368 33.7815C129.468 33.7744 129.566 33.7469 129.656 33.7005C129.746 33.6541 129.825 33.5898 129.889 33.5115C129.954 33.4332 130.002 33.3424 130.031 33.2448C130.064 33.1513 130.078 33.052 130.072 32.9529C130.067 32.8538 130.041 32.7569 129.997 32.668C129.953 32.5792 129.892 32.5003 129.817 32.4361C129.743 32.372 129.656 32.3238 129.562 32.2946C128.391 31.9779 127.161 31.9518 125.978 32.2187C124.795 32.4856 123.692 33.0376 122.764 33.8279C122.684 33.8892 122.617 33.9661 122.567 34.0541C122.518 34.1422 122.486 34.2394 122.474 34.3402C122.462 34.441 122.47 34.5432 122.498 34.6406C122.526 34.7381 122.573 34.8289 122.636 34.9076C122.724 35.01 122.833 35.0912 122.956 35.1451V35.1451Z" fill="#263238"/>
<path d="M147.698 41.1278C147.827 41.175 147.967 41.187 148.102 41.1626C148.238 41.1382 148.365 41.0782 148.47 40.9887C148.576 40.8991 148.657 40.7831 148.704 40.6522C148.752 40.5212 148.765 40.38 148.742 40.2424C148.517 39.0437 148.013 37.9168 147.271 36.9552C146.53 35.9937 145.573 35.2254 144.48 34.7142C144.29 34.6419 144.08 34.6465 143.894 34.7269C143.707 34.8073 143.558 34.9574 143.478 35.1461C143.408 35.3353 143.413 35.5449 143.492 35.7303C143.572 35.9158 143.72 36.0625 143.904 36.1394C144.753 36.54 145.494 37.1414 146.065 37.8931C146.636 38.6447 147.021 39.5245 147.186 40.4583C147.203 40.6064 147.26 40.7471 147.35 40.865C147.44 40.983 147.56 41.0738 147.698 41.1278V41.1278Z" fill="#263238"/>
<path d="M108.06 25.8602C108.399 26.1511 108.762 26.4112 109.146 26.6376C110.17 27.2577 111.33 27.6082 112.521 27.6573C113.712 27.7063 114.896 27.4523 115.966 26.9184C120.356 24.7589 121.741 12.0612 134.229 18.518C135.601 18.1829 137.04 18.2574 138.371 18.7326C139.702 19.2077 140.869 20.0632 141.73 21.1957C144.948 25.1908 142.732 39.7672 149.594 37.7589C156.456 35.7506 155.263 33.5911 155.263 33.5911C155.263 33.5911 153.345 34.822 152.215 33.8503C153.233 32.9831 153.958 31.8162 154.29 30.5119C154.623 29.2075 154.545 27.8306 154.069 26.5728C154.069 26.5728 152.407 28.5811 151.299 28.1924C152.443 22.2952 151.782 16.1844 149.402 10.6791C145.417 0.615912 121.038 2.86178 121.038 2.86178C121.038 2.86178 117.969 -2.34259 106.951 1.28534C95.9338 4.91326 90.9044 18.3668 92.6519 24.219" fill="#263238"/>
<path d="M253.526 169.078L251.949 163.053H187.314L157.564 166.054L156.435 169.078H253.526Z" fill="#263238"/>
<path opacity="0.5" d="M253.526 169.078L251.949 163.053H187.314L157.564 166.054L156.435 169.078H253.526Z" fill="white"/>
<path opacity="0.2" d="M187.314 163.053V169.078H253.526L251.949 163.053H187.314Z" fill="black"/>
<path d="M209.179 134.202C209.094 134.932 209.164 135.673 209.384 136.374C209.604 137.074 209.97 137.719 210.456 138.265C210.942 138.811 211.538 139.246 212.204 139.539C212.869 139.833 213.589 139.979 214.315 139.968H313.324C314.872 139.93 316.353 139.325 317.493 138.265C318.634 137.204 319.356 135.761 319.526 134.202L325.407 69.9788C325.464 69.3568 325.42 68.7297 325.28 68.1216C325.008 66.9899 324.364 65.9858 323.454 65.2752C322.543 64.5646 321.421 64.1898 320.272 64.2129H221.262C219.715 64.2505 218.233 64.8556 217.093 65.916C215.953 66.9763 215.23 68.4199 215.061 69.9788L209.179 134.202Z" fill="#263238"/>
<path opacity="0.5" d="M209.179 134.202C209.094 134.932 209.164 135.673 209.384 136.374C209.604 137.074 209.97 137.719 210.456 138.265C210.942 138.811 211.538 139.246 212.204 139.539C212.869 139.833 213.589 139.979 214.315 139.968H313.324C314.872 139.93 316.353 139.325 317.493 138.265C318.634 137.204 319.356 135.761 319.526 134.202L325.407 69.9788C325.464 69.3568 325.42 68.7297 325.28 68.1216C325.008 66.9899 324.364 65.9858 323.454 65.2752C322.543 64.5646 321.421 64.1898 320.272 64.2129H221.262C219.715 64.2505 218.233 64.8556 217.093 65.916C215.953 66.9763 215.23 68.4199 215.061 69.9788L209.179 134.202Z" fill="white"/>
<path opacity="0.1" d="M214.741 139.967H313.388C314.935 139.93 316.417 139.324 317.557 138.264C318.698 137.204 319.42 135.76 319.589 134.201L325.471 69.9783C325.527 69.3563 325.484 68.7292 325.343 68.1211H226.675C225.131 68.1638 223.655 68.7712 222.519 69.8311C221.383 70.8909 220.664 72.3316 220.495 73.8869L214.613 138.11C214.546 138.732 214.589 139.361 214.741 139.967V139.967Z" fill="black"/>
<path d="M282.679 100.578H262.2L267.655 160.007L235.284 164.931V169.077H303.5V164.931L289.52 160.007L282.679 100.578Z" fill="#263238"/>
<path opacity="0.5" d="M282.679 100.578H262.2L267.655 160.007L235.284 164.931V169.077H303.5V164.931L289.52 160.007L282.679 100.578Z" fill="white"/>
<path opacity="0.2" d="M262.2 100.578L277.373 168.127L289.52 167.76L282.679 100.578H262.2Z" fill="white"/>
<path d="M93.142 470.066H217.17C217.491 470.066 217.809 470.002 218.105 469.877C218.401 469.752 218.67 469.569 218.896 469.338C219.122 469.107 219.3 468.833 219.421 468.532C219.542 468.23 219.602 467.908 219.6 467.583V459.571C219.6 458.918 219.344 458.292 218.888 457.83C218.433 457.369 217.815 457.109 217.17 457.109H99.5352V200.519H215.167C216.343 200.519 217.47 200.046 218.301 199.204C219.133 198.362 219.6 197.219 219.6 196.028V187.562H93.142C91.4464 187.562 89.8203 188.245 88.6213 189.46C87.4223 190.675 86.7488 192.323 86.7488 194.041V463.588C86.7488 465.306 87.4223 466.954 88.6213 468.169C89.8203 469.384 91.4464 470.066 93.142 470.066Z" fill="#263238"/>
<g opacity="0.4">
<path opacity="0.4" d="M93.142 470.066H217.17C217.491 470.066 217.809 470.002 218.105 469.877C218.401 469.752 218.67 469.569 218.896 469.338C219.122 469.107 219.3 468.833 219.421 468.532C219.542 468.23 219.602 467.908 219.6 467.583V459.571C219.6 458.918 219.344 458.292 218.888 457.83C218.433 457.369 217.815 457.109 217.17 457.109H99.5352V200.519H215.167C216.343 200.519 217.47 200.046 218.301 199.204C219.133 198.362 219.6 197.219 219.6 196.028V187.562H93.142C91.4464 187.562 89.8203 188.245 88.6213 189.46C87.4223 190.675 86.7488 192.323 86.7488 194.041V463.588C86.7488 465.306 87.4223 466.954 88.6213 468.169C89.8203 469.384 91.4464 470.066 93.142 470.066Z" fill="white"/>
</g>
<path d="M404.193 189.722L77.2443 189.722C76.1478 189.722 75.0962 189.28 74.3209 188.495C73.5456 187.709 73.11 186.643 73.11 185.532V175.339L408.327 175.339V185.554C408.322 186.661 407.884 187.721 407.109 188.502C406.334 189.283 405.286 189.722 404.193 189.722V189.722Z" fill="#7E57C2"/>
<path opacity="0.2" d="M73.11 182.509L408.327 182.509V175.318L73.11 175.318V182.509Z" fill="black"/>
<path d="M66.0987 177.175H415.381C416.44 177.175 417.456 176.75 418.207 175.994C418.957 175.237 419.382 174.21 419.388 173.137V173.137C419.388 172.06 418.965 171.028 418.214 170.266C417.463 169.505 416.444 169.077 415.381 169.077H66.0987C65.0361 169.077 64.0171 169.505 63.2657 170.266C62.5144 171.028 62.0923 172.06 62.0923 173.137V173.137C62.0979 174.21 62.5225 175.237 63.2732 175.994C64.024 176.75 65.0398 177.175 66.0987 177.175V177.175Z" fill="#7E57C2"/>
</svg>
