<svg width="639" height="639" viewBox="0 0 639 639" fill="none" xmlns="http://www.w3.org/2000/svg">
<path d="M516.107 579.1C516.107 579.279 427.363 579.432 317.928 579.432C208.493 579.432 119.71 579.279 119.71 579.1C119.71 578.921 208.442 578.768 317.928 578.768C427.414 578.768 516.107 578.934 516.107 579.1Z" fill="#263238"/>
<path d="M429.638 422.647C409.893 408.858 405.42 383.259 406.2 360.243C406.327 356.409 405.906 352.345 407.733 348.984C409.561 345.622 413.829 343.309 417.267 344.919C420.117 346.261 421.357 349.584 422.954 352.332C425.086 355.992 428.209 358.973 431.964 360.933C434.405 362.211 437.434 362.978 439.849 361.648C443.172 359.821 443.555 355.258 443.53 351.424C443.53 344.293 443.487 337.171 443.402 330.056C443.172 326.236 443.561 322.404 444.552 318.708C445.741 315.078 448.386 311.717 452.003 310.695C455.62 309.672 460.131 311.781 460.949 315.513C461.09 317.093 461.128 318.681 461.064 320.267C461.166 321.864 461.908 323.615 463.403 324.101C464.898 324.586 466.457 323.475 467.607 322.35C471.544 318.516 474.227 313.519 476.72 308.586C479.212 303.653 481.653 298.579 485.231 294.375C488.809 290.17 493.755 286.834 499.289 286.515C504.823 286.195 510.587 289.595 511.967 294.962C513.347 300.33 510.216 305.813 506.855 310.171C501.783 316.639 495.804 322.343 489.103 327.104C487.795 327.818 486.752 328.934 486.126 330.286C485.295 332.842 487.71 335.398 490.228 336.204C493.078 337.149 496.171 336.855 499.174 337.213C502.177 337.571 505.372 338.875 506.51 341.686C508.069 345.597 504.797 349.686 501.589 352.37C495.148 357.738 487.834 361.961 479.966 364.856C477.154 365.879 474.202 366.786 471.927 368.754C469.652 370.722 468.298 374.16 469.665 376.857C471.032 379.553 474.547 380.41 477.499 379.86C480.451 379.31 483.071 377.726 485.883 376.665C491.135 374.684 497.909 375.042 501.219 379.579C502.244 381.142 502.893 382.921 503.115 384.777C503.337 386.633 503.125 388.515 502.497 390.276C501.218 393.779 499.249 396.991 496.707 399.72C488.337 409.721 477.461 417.32 465.192 421.74C453.013 425.957 441.728 427.108 429.625 422.673" fill="#BA68C8"/>
<path d="M506.344 289.672C506.344 289.672 506.229 289.8 505.973 290.03L504.836 291.039C503.839 291.934 502.369 293.237 500.516 294.963C495.262 299.841 490.383 305.109 485.921 310.721C483.071 314.261 480.119 318.274 476.975 322.631C473.831 326.989 470.585 331.693 467.365 336.689C463.931 341.959 460.787 347.411 457.946 353.022C456.463 355.949 455.16 359.003 453.818 362.122L449.856 371.643C444.634 383.636 440.086 395.911 436.233 408.411C433.129 418.638 430.99 429.134 429.843 439.76C429.099 446.931 428.98 454.154 429.485 461.346C429.689 463.902 429.881 465.857 430.06 467.186C430.137 467.825 430.188 468.336 430.239 468.707V469.231C430.184 469.065 430.145 468.893 430.124 468.72C430.06 468.349 429.983 467.851 429.881 467.212C429.651 465.934 429.408 463.914 429.178 461.358C428.562 454.153 428.604 446.907 429.306 439.709C430.382 429.037 432.474 418.493 435.555 408.219C439.376 395.684 443.912 383.378 449.14 371.362L453.204 361.879C454.546 358.773 455.863 355.693 457.358 352.754C460.219 347.126 463.389 341.66 466.854 336.383C470.125 331.271 473.422 326.644 476.528 322.325C479.634 318.005 482.637 313.967 485.474 310.439C489.981 304.842 494.926 299.612 500.26 294.797C502.152 293.097 503.66 291.819 504.682 290.963L505.871 290.004C506.017 289.877 506.175 289.766 506.344 289.672Z" fill="#263238"/>
<path d="M457.524 352.728C457.344 352.201 457.219 351.657 457.153 351.105C456.949 350.044 456.719 348.549 456.45 346.606C455.901 342.772 455.339 337.52 454.738 331.705C454.137 325.89 453.46 320.624 452.898 316.829C452.604 314.937 452.348 313.416 452.169 312.356C452.03 311.813 451.957 311.255 451.952 310.694C452.172 311.206 452.331 311.743 452.425 312.292C452.706 313.34 453.025 314.848 453.383 316.752C454.112 320.586 454.827 325.8 455.428 331.628C456.029 337.456 456.54 342.568 456.936 346.542C457.128 348.331 457.294 349.852 457.422 351.066C457.521 351.614 457.555 352.172 457.524 352.728Z" fill="#263238"/>
<path d="M506.701 343.552C506.079 343.688 505.446 343.765 504.81 343.782C503.532 343.897 501.717 344.051 499.468 344.306C494.969 344.792 488.784 345.687 481.998 346.965C475.211 348.243 469.115 349.687 464.732 350.799C462.547 351.361 460.783 351.872 459.62 352.217C458.999 352.438 458.356 352.592 457.703 352.677C458.293 352.38 458.909 352.137 459.543 351.949C460.744 351.527 462.483 350.939 464.655 350.313C469.013 349.035 475.109 347.514 481.921 346.211C487.691 345.107 493.514 344.297 499.366 343.782C501.628 343.591 503.455 343.514 504.733 343.488C505.39 343.444 506.049 343.465 506.701 343.552Z" fill="#263238"/>
<path d="M436.181 407.324C436.045 407.139 435.933 406.937 435.849 406.723L435.006 404.947C434.277 403.401 433.293 401.113 432.117 398.314C429.74 392.691 426.711 384.818 423.491 376.077C420.27 367.335 417.305 359.463 415.056 353.776C413.957 351.015 413.05 348.753 412.372 347.066L411.657 345.239C411.557 345.028 411.489 344.804 411.452 344.574C411.588 344.759 411.7 344.961 411.784 345.175L412.628 346.951C413.344 348.498 414.34 350.785 415.516 353.584C417.893 359.207 420.922 367.08 424.143 375.821C427.363 384.563 430.328 392.435 432.577 398.122C433.677 400.883 434.584 403.145 435.248 404.832C435.542 405.56 435.785 406.11 435.977 406.659C436.076 406.87 436.145 407.094 436.181 407.324Z" fill="#263238"/>
<path d="M501.462 386.275C501.257 386.393 501.038 386.483 500.81 386.544L498.919 387.183L491.928 389.445C486.023 391.362 477.87 394.097 468.924 397.113C459.978 400.129 451.786 402.813 445.843 404.602C442.878 405.509 440.463 406.199 438.789 406.66L436.859 407.158C436.634 407.229 436.403 407.276 436.169 407.299C436.373 407.181 436.592 407.091 436.82 407.03L438.712 406.391L445.703 404.129C451.607 402.212 459.761 399.477 468.707 396.461C477.653 393.445 485.832 390.761 491.774 388.972C494.752 388.065 497.155 387.374 498.842 386.914L500.772 386.416C500.996 386.345 501.227 386.298 501.462 386.275Z" fill="#263238"/>
<path d="M474.828 76.2709L468.246 78.6225L465.422 70.0215C460.233 54.1616 443.696 45.7395 428.501 51.0944C413.305 56.4492 405.216 73.8428 410.404 89.7027L413.229 98.3037L406.621 100.668C404.102 101.645 402.056 103.556 400.909 106.002C399.761 108.449 399.601 111.244 400.461 113.806L418.775 169.769C419.155 171.038 419.786 172.216 420.631 173.236C421.476 174.255 422.517 175.095 423.692 175.704C424.868 176.313 426.154 176.68 427.474 176.782C428.794 176.884 430.121 176.721 431.376 176.3L499.583 151.903C502.136 150.927 504.211 149 505.371 146.526C506.532 144.052 506.688 141.224 505.807 138.637L487.48 82.6737C487.09 81.4091 486.45 80.236 485.596 79.2244C484.743 78.2128 483.695 77.3835 482.514 76.7859C481.333 76.1884 480.044 75.8348 478.723 75.7463C477.403 75.6578 476.078 75.8363 474.828 76.2709ZM422.839 85.2169C421.44 81.0931 421.691 76.5879 423.54 72.6451C425.389 68.7023 428.691 65.6279 432.756 64.0661C434.764 63.3793 436.889 63.1039 439.005 63.2563C441.121 63.4087 443.184 63.9858 445.072 64.9531C446.96 65.9204 448.634 67.2581 449.994 68.8864C451.354 70.5148 452.372 72.4003 452.987 74.4306L455.799 83.0316L425.651 93.8179L422.839 85.2169ZM461.179 134.88L465.857 149.168C465.942 149.455 465.915 149.763 465.779 150.03C465.643 150.296 465.41 150.5 465.128 150.599L458.572 152.938C458.311 153.01 458.032 152.979 457.794 152.85C457.556 152.722 457.377 152.506 457.294 152.248L452.578 138.024C449.978 137.882 447.483 136.95 445.427 135.351C443.372 133.752 441.854 131.563 441.076 129.078C439.965 125.792 440.167 122.204 441.642 119.064C443.117 115.924 445.749 113.477 448.987 112.234C450.586 111.688 452.279 111.469 453.964 111.59C455.649 111.712 457.293 112.172 458.797 112.942C460.3 113.713 461.634 114.778 462.717 116.075C463.801 117.371 464.612 118.873 465.103 120.49C465.925 123.014 465.993 125.724 465.298 128.287C464.604 130.85 463.177 133.154 461.192 134.918L461.179 134.88Z" fill="#BA68C8"/>
<path d="M467.952 78.4694C467.952 78.6483 455.748 83.2363 440.565 88.6934C425.382 94.1504 412.998 98.534 412.935 98.4062C412.871 98.2784 425.139 93.652 440.335 88.1822C455.53 82.7123 467.889 78.3032 467.952 78.4694Z" fill="#263238"/>
<path d="M482.445 80.8203C482.501 80.9312 482.548 81.0466 482.586 81.1654C482.688 81.421 482.803 81.7533 482.956 82.1622C483.289 83.0952 483.749 84.3859 484.324 85.9962L489.231 100.284C491.276 106.342 493.717 113.524 496.426 121.499C497.704 125.499 499.212 129.665 500.618 134.049C501.371 136.308 501.696 138.687 501.577 141.065C501.468 142.302 501.117 143.505 500.542 144.605C499.927 145.702 499.107 146.67 498.126 147.455C496.152 148.897 493.96 150.014 491.634 150.765L485.052 153.13L472.592 157.59L451.492 165.104L437.242 170.114L433.408 171.392L432.386 171.724C432.277 171.773 432.16 171.803 432.041 171.814C432.041 171.814 432.143 171.814 432.36 171.661L433.357 171.264L437.191 169.82L451.364 164.606L472.426 156.938L484.861 152.439L491.442 150.062C493.702 149.342 495.83 148.258 497.743 146.855C498.656 146.126 499.419 145.227 499.992 144.209C500.533 143.192 500.86 142.074 500.951 140.925C501.068 138.633 500.756 136.34 500.03 134.164C498.65 129.819 497.193 125.614 495.877 121.614C493.219 113.627 490.765 106.419 488.822 100.361C486.88 94.3032 485.244 89.434 484.119 86.009C483.583 84.3348 483.174 83.0313 482.841 82.0855L482.535 81.0631C482.496 80.9857 482.466 80.9043 482.445 80.8203Z" fill="#263238"/>
<path d="M446.457 63.1966C446.457 63.1966 445.779 62.8643 444.527 62.3531C442.741 61.6671 440.853 61.2869 438.942 61.2284C436.108 61.1313 433.289 61.6638 430.686 62.7876C427.521 64.187 424.815 66.4504 422.877 69.3182C420.927 72.1777 419.881 75.557 419.874 79.0182C419.901 81.855 420.331 84.6736 421.152 87.3891C421.817 89.7151 422.507 91.5682 422.967 92.8589C423.238 93.5146 423.46 94.1895 423.631 94.8782C423.268 94.2652 422.965 93.619 422.724 92.9484C422.2 91.6704 421.446 89.8556 420.705 87.5169C419.795 84.7729 419.3 81.9084 419.235 79.0182C419.201 75.4263 420.272 71.9107 422.302 68.9476C424.307 65.9751 427.124 63.6416 430.418 62.2253C433.102 61.0953 436.009 60.5969 438.916 60.7684C440.869 60.8679 442.788 61.3226 444.578 62.1103C445.056 62.331 445.518 62.5874 445.958 62.8771C446.14 62.9569 446.308 63.0647 446.457 63.1966Z" fill="#263238"/>
<path d="M447.044 113.205C447.248 113.082 447.462 112.975 447.683 112.886C448.323 112.597 448.986 112.362 449.664 112.183C450.742 111.865 451.853 111.676 452.974 111.621C454.5 111.539 456.027 111.769 457.46 112.298C460.732 113.448 463.735 116.784 465.218 121.244C465.929 123.638 465.929 126.186 465.218 128.58C464.429 131.178 463.016 133.543 461.102 135.468L461.179 135.123C462.879 139.788 464.732 144.849 466.649 150.127L466.764 150.446L466.445 150.561L463.518 151.533L457.128 153.667L456.808 153.769L456.706 153.45C454.955 148.159 453.038 143.226 451.594 138.382L451.875 138.599C449.377 138.392 446.995 137.454 445.025 135.903C443.243 134.53 441.782 132.786 440.744 130.791C439.807 129.021 439.34 127.041 439.389 125.04C439.448 122.994 439.959 120.987 440.885 119.162C441.811 117.337 443.128 115.739 444.744 114.483C445.409 113.944 446.155 113.512 446.955 113.205C446.233 113.634 445.533 114.099 444.859 114.598C443.084 116.1 441.725 118.032 440.91 120.209C440.211 121.851 439.884 123.627 439.952 125.41C440.021 127.193 440.483 128.939 441.306 130.522C442.327 132.442 443.753 134.116 445.485 135.43C447.364 136.904 449.635 137.793 452.016 137.986H452.233L452.297 138.178C453.703 142.932 455.633 147.903 457.409 153.22L456.987 153.015L463.377 150.881L466.291 149.897L466.087 150.331C464.182 145.053 462.342 139.979 460.655 135.315V135.123L460.809 134.97C462.666 133.124 464.052 130.858 464.847 128.362C465.525 126.073 465.525 123.636 464.847 121.346C463.454 117.052 460.578 113.793 457.46 112.643C456.08 112.111 454.606 111.863 453.128 111.915C452.024 111.94 450.926 112.09 449.856 112.362C447.952 112.835 447.057 113.269 447.044 113.205Z" fill="#263238"/>
<path d="M407.541 482.215L279.882 481.627C272.51 481.587 265.455 478.622 260.267 473.384C255.079 468.146 252.183 461.062 252.213 453.69L253.568 133.666C253.583 130.014 254.318 126.4 255.73 123.032C257.143 119.663 259.205 116.606 261.8 114.036C264.394 111.465 267.47 109.431 270.851 108.049C274.232 106.668 277.853 105.966 281.505 105.985L409.152 106.573C416.524 106.61 423.58 109.572 428.77 114.807C433.96 120.043 436.86 127.125 436.833 134.497L435.479 454.508C435.463 458.162 434.729 461.777 433.317 465.146C431.905 468.516 429.843 471.575 427.248 474.148C424.654 476.721 421.579 478.757 418.197 480.141C414.816 481.526 411.195 482.23 407.541 482.215Z" fill="#455A64"/>
<path d="M408.96 117.576H384.218C383.411 117.591 382.614 117.765 381.874 118.088C381.134 118.411 380.465 118.876 379.905 119.458C379.345 120.039 378.904 120.726 378.61 121.477C378.315 122.229 378.171 123.031 378.186 123.839V128.324C378.201 129.131 378.057 129.933 377.762 130.684C377.467 131.435 377.027 132.12 376.466 132.701C375.906 133.281 375.237 133.745 374.497 134.067C373.757 134.388 372.96 134.561 372.154 134.574L323.922 134.357C322.29 134.313 320.743 133.624 319.619 132.44C318.495 131.256 317.887 129.675 317.928 128.043V123.558C317.969 121.928 317.363 120.348 316.242 119.165C315.121 117.982 313.577 117.291 311.947 117.244H303.244L281.582 117.142C276.429 117.111 271.475 119.123 267.803 122.738C264.131 126.352 262.041 131.275 261.99 136.427L260.712 448.796C260.7 451.352 261.192 453.885 262.159 456.251C263.127 458.617 264.551 460.769 266.35 462.585C268.149 464.401 270.288 465.844 272.645 466.833C275.002 467.822 277.531 468.337 280.087 468.349L407.478 468.937C410.035 468.949 412.57 468.457 414.938 467.489C417.305 466.521 419.459 465.096 421.276 463.296C423.093 461.495 424.537 459.355 425.527 456.996C426.517 454.638 427.032 452.107 427.044 449.55L428.322 137.181C428.352 132.014 426.33 127.047 422.699 123.371C419.069 119.694 414.127 117.61 408.96 117.576Z" fill="white"/>
<path d="M391.822 427.261L297.097 426.852C296.113 426.852 295.32 425.778 295.333 424.475L295.435 399.694C295.435 398.416 296.241 397.317 297.225 397.317L391.95 397.752C392.495 397.846 392.983 398.147 393.312 398.593C393.64 399.038 393.784 399.593 393.714 400.142L393.624 424.897C393.624 426.213 392.806 427.274 391.822 427.261Z" fill="#BA68C8"/>
<path d="M325.306 412.729C324.884 412.729 324.477 412.662 324.087 412.526C323.702 412.391 323.404 412.212 323.192 411.99L323.428 411.526C323.634 411.732 323.908 411.9 324.249 412.03C324.591 412.155 324.943 412.217 325.306 412.217C325.816 412.217 326.198 412.125 326.453 411.941C326.708 411.751 326.835 411.507 326.835 411.209C326.835 410.981 326.765 410.8 326.624 410.664C326.488 410.529 326.32 410.426 326.119 410.355C325.919 410.279 325.64 410.198 325.282 410.111C324.854 410.003 324.512 409.9 324.257 409.802C324.003 409.699 323.783 409.545 323.599 409.339C323.42 409.133 323.33 408.854 323.33 408.501C323.33 408.214 323.406 407.954 323.558 407.721C323.71 407.482 323.943 407.292 324.257 407.151C324.572 407.01 324.962 406.94 325.428 406.94C325.754 406.94 326.071 406.986 326.38 407.078C326.694 407.165 326.965 407.287 327.193 407.444L326.99 407.924C326.751 407.767 326.496 407.65 326.225 407.574C325.954 407.493 325.689 407.452 325.428 407.452C324.93 407.452 324.553 407.55 324.298 407.745C324.049 407.935 323.924 408.181 323.924 408.485C323.924 408.713 323.992 408.897 324.127 409.038C324.268 409.173 324.442 409.279 324.648 409.355C324.859 409.425 325.141 409.504 325.493 409.591C325.911 409.694 326.247 409.797 326.502 409.9C326.762 409.997 326.981 410.149 327.16 410.355C327.339 410.556 327.429 410.829 327.429 411.176C327.429 411.464 327.35 411.727 327.193 411.965C327.041 412.198 326.805 412.385 326.485 412.526C326.166 412.662 325.773 412.729 325.306 412.729ZM328.74 406.989H329.341V412.681H328.74V406.989ZM335.95 406.989V412.681H335.454L331.795 408.062V412.681H331.193V406.989H331.689L335.357 411.607V406.989H335.95ZM341.817 409.835H342.394V412.006C342.128 412.239 341.814 412.418 341.451 412.542C341.088 412.667 340.705 412.729 340.304 412.729C339.735 412.729 339.223 412.605 338.767 412.355C338.312 412.106 337.954 411.762 337.694 411.323C337.434 410.878 337.304 410.382 337.304 409.835C337.304 409.287 337.434 408.794 337.694 408.355C337.954 407.91 338.312 407.563 338.767 407.314C339.223 407.065 339.738 406.94 340.312 406.94C340.746 406.94 341.145 407.01 341.508 407.151C341.871 407.287 342.177 407.49 342.427 407.761L342.052 408.143C341.603 407.699 341.031 407.477 340.337 407.477C339.876 407.477 339.459 407.58 339.085 407.786C338.716 407.986 338.426 408.268 338.215 408.631C338.003 408.989 337.897 409.39 337.897 409.835C337.897 410.279 338.003 410.68 338.215 411.038C338.426 411.396 338.716 411.678 339.085 411.884C339.453 412.09 339.868 412.193 340.329 412.193C340.914 412.193 341.41 412.046 341.817 411.754V409.835ZM348.518 412.729C347.781 412.729 347.206 412.518 346.794 412.095C346.382 411.672 346.176 411.057 346.176 410.249V406.989H346.778V410.225C346.778 410.886 346.927 411.38 347.225 411.705C347.523 412.03 347.954 412.193 348.518 412.193C349.087 412.193 349.521 412.03 349.819 411.705C350.117 411.38 350.266 410.886 350.266 410.225V406.989H350.852V410.249C350.852 411.057 350.646 411.672 350.234 412.095C349.827 412.518 349.255 412.729 348.518 412.729ZM354.795 406.989C355.522 406.989 356.091 407.162 356.503 407.509C356.915 407.856 357.121 408.333 357.121 408.94C357.121 409.547 356.915 410.024 356.503 410.371C356.091 410.713 355.522 410.884 354.795 410.884H353.267V412.681H352.665V406.989H354.795ZM354.779 410.355C355.343 410.355 355.774 410.233 356.072 409.989C356.37 409.74 356.519 409.39 356.519 408.94C356.519 408.479 356.37 408.127 356.072 407.883C355.774 407.634 355.343 407.509 354.779 407.509H353.267V410.355H354.779Z" fill="#E8E8E3"/>
<path d="M315.991 209.401L283.121 209.252L283.094 215.284L315.964 215.433L315.991 209.401Z" fill="#BA68C8"/>
<path opacity="0.1" d="M315.991 209.401L283.121 209.252L283.094 215.284L315.964 215.433L315.991 209.401Z" fill="black"/>
<path d="M412.347 246.436C412.605 246.41 412.858 246.35 413.101 246.258C413.454 246.119 413.762 245.884 413.988 245.579C414.214 245.274 414.349 244.911 414.379 244.532C414.379 242.5 414.379 239.535 414.379 235.727C414.379 233.823 414.379 231.688 414.379 229.337C414.379 228.762 414.379 228.161 414.379 227.56C414.462 226.978 414.335 226.384 414.021 225.886C413.845 225.648 413.616 225.453 413.352 225.318C413.088 225.182 412.797 225.11 412.5 225.107H410.506H392.039L285.147 224.711C284.874 224.706 284.603 224.767 284.358 224.89C284.114 225.012 283.902 225.192 283.742 225.413C283.433 225.913 283.315 226.508 283.409 227.088C283.409 228.366 283.409 229.644 283.409 230.922C283.409 233.478 283.409 236.034 283.409 238.59C283.409 239.868 283.409 241.146 283.409 242.424C283.356 243.019 283.356 243.618 283.409 244.213C283.476 244.468 283.601 244.704 283.774 244.904C283.947 245.103 284.163 245.26 284.406 245.363C284.658 245.463 284.928 245.511 285.198 245.504H291.703L320.088 245.657L368.141 245.951L400.538 246.206L409.343 246.309H411.631C412.155 246.309 412.411 246.309 412.411 246.309H411.631H409.343H400.538H368.141L320.088 246.155L291.703 246.04H285.198C284.84 246.055 284.483 245.994 284.15 245.861C283.814 245.718 283.515 245.499 283.276 245.222C283.036 244.946 282.863 244.618 282.77 244.264C282.696 243.928 282.67 243.584 282.694 243.241V242.296C282.694 241.018 282.694 239.74 282.694 238.462C282.694 235.906 282.694 233.35 282.694 230.794C282.694 229.516 282.694 228.238 282.694 226.96C282.669 226.619 282.669 226.278 282.694 225.937C282.741 225.561 282.887 225.205 283.115 224.902C283.336 224.594 283.628 224.343 283.966 224.172C284.304 224 284.679 223.913 285.058 223.918L391.95 224.506L410.417 224.634H412.411C412.762 224.634 413.108 224.719 413.419 224.881C413.731 225.044 413.998 225.279 414.2 225.567C414.56 226.122 414.705 226.79 414.609 227.445C414.609 228.046 414.609 228.647 414.609 229.222C414.609 231.548 414.609 233.682 414.609 235.612C414.609 239.446 414.519 242.385 414.494 244.43C414.462 244.823 414.32 245.199 414.082 245.514C413.844 245.829 413.521 246.069 413.152 246.206C412.91 246.356 412.631 246.436 412.347 246.436Z" fill="#E0E0E0"/>
<path d="M353.112 231.127H292.994V236.763H353.112V231.127Z" fill="#BA68C8"/>
<path opacity="0.2" d="M353.112 231.127H292.994V236.763H353.112V231.127Z" fill="white"/>
<path d="M315.767 264.429L282.897 264.28L282.869 270.312L315.739 270.462L315.767 264.429Z" fill="#BA68C8"/>
<path opacity="0.1" d="M315.767 264.429L282.897 264.28L282.869 270.312L315.739 270.462L315.767 264.429Z" fill="black"/>
<path d="M411.516 301.468C411.774 301.436 412.03 301.389 412.283 301.327C412.64 301.213 412.968 301.025 413.246 300.773C413.524 300.522 413.745 300.214 413.893 299.87C414.094 299.354 414.173 298.799 414.123 298.247C414.123 297.634 414.123 296.969 414.123 296.228C414.123 294.745 414.123 293.058 414.123 291.116V283.001C414.184 282.413 414.054 281.821 413.753 281.314C413.437 280.793 412.942 280.406 412.36 280.227C411.723 280.114 411.075 280.079 410.43 280.125H392.039L285.518 279.729C284.945 279.73 284.392 279.94 283.962 280.318C283.532 280.696 283.254 281.218 283.179 281.786C283.179 283.001 283.179 284.342 283.179 285.62C283.179 288.176 283.179 290.732 283.179 293.288C283.179 294.566 283.179 295.844 283.179 297.122C283.132 297.72 283.158 298.321 283.256 298.912C283.416 299.43 283.744 299.88 284.189 300.19C284.661 300.489 285.216 300.632 285.774 300.599H287.55H291.244L319.526 300.739L367.412 301.033L399.695 301.289L408.474 301.391H410.762H411.529H410.762H408.474H399.695H367.412L319.5 301.34L291.218 301.238H285.659C284.967 301.279 284.282 301.095 283.703 300.714C283.122 300.311 282.697 299.719 282.502 299.039C282.388 298.39 282.353 297.729 282.4 297.071C282.4 295.793 282.4 294.515 282.4 293.237C282.4 290.681 282.4 288.125 282.4 285.569C282.4 284.291 282.4 283.013 282.4 281.735C282.493 281.005 282.849 280.333 283.402 279.846C283.955 279.359 284.666 279.09 285.403 279.09L391.924 279.678L410.315 279.818C411 279.776 411.687 279.824 412.36 279.959C413.024 280.176 413.584 280.631 413.932 281.237C414.262 281.8 414.405 282.453 414.34 283.103C414.34 283.703 414.34 284.291 414.34 284.879C414.34 287.192 414.34 289.314 414.34 291.269C414.34 293.225 414.34 294.873 414.34 296.381C414.34 297.11 414.34 297.787 414.34 298.413C414.387 298.985 414.295 299.559 414.072 300.087C413.906 300.44 413.666 300.753 413.368 301.004C413.071 301.256 412.722 301.44 412.347 301.544C412.068 301.567 411.786 301.541 411.516 301.468Z" fill="#E0E0E0"/>
<path d="M315.519 321.848L282.649 321.699L282.622 327.731L315.492 327.88L315.519 321.848Z" fill="#BA68C8"/>
<path opacity="0.1" d="M315.519 321.848L282.649 321.699L282.622 327.731L315.492 327.88L315.519 321.848Z" fill="black"/>
<path d="M411.26 358.862C411.519 358.832 411.775 358.785 412.027 358.722C412.383 358.609 412.71 358.422 412.988 358.173C413.265 357.924 413.487 357.619 413.638 357.278C413.838 356.761 413.917 356.206 413.868 355.655C413.868 355.028 413.868 354.377 413.868 353.623C413.868 352.153 413.868 350.453 413.868 348.511V340.395C413.929 339.808 413.799 339.216 413.497 338.708C413.174 338.197 412.681 337.816 412.104 337.635C411.468 337.517 410.82 337.478 410.174 337.52H391.784L285.262 337.124C284.69 337.125 284.137 337.334 283.706 337.713C283.276 338.091 282.998 338.613 282.924 339.181C282.924 340.459 282.924 341.737 282.924 343.015C282.924 345.571 282.924 348.127 282.924 350.683C282.924 351.961 282.924 353.239 282.924 354.517C282.876 355.11 282.902 355.707 283 356.294C283.153 356.815 283.483 357.267 283.933 357.572C284.402 357.878 284.959 358.022 285.518 357.98H291.077L319.36 358.134L367.246 358.428L399.528 358.683L408.308 358.786H410.596C411.107 358.786 411.363 358.786 411.363 358.786C411.363 358.786 411.107 358.786 410.596 358.786H408.308H399.528H367.246L319.36 358.645L291.077 358.53H285.518C284.826 358.577 284.139 358.392 283.563 358.006C282.981 357.603 282.557 357.012 282.361 356.332C282.247 355.682 282.213 355.021 282.259 354.364C282.259 353.086 282.259 351.808 282.259 350.53C282.259 347.974 282.259 345.418 282.259 342.862C282.259 341.584 282.259 340.306 282.259 338.964C282.35 338.234 282.703 337.563 283.254 337.075C283.805 336.588 284.514 336.319 285.25 336.318L391.771 336.906L410.161 337.047C410.846 337.005 411.534 337.052 412.206 337.187C412.87 337.404 413.43 337.86 413.778 338.465C414.109 339.028 414.252 339.682 414.187 340.331C414.187 340.932 414.187 341.533 414.187 342.108C414.187 344.421 414.187 346.542 414.187 348.498C414.187 350.453 414.187 352.102 414.187 353.61C414.187 354.338 414.187 355.016 414.187 355.642C414.236 356.213 414.144 356.788 413.919 357.316C413.753 357.669 413.513 357.981 413.215 358.233C412.917 358.484 412.569 358.668 412.193 358.773C411.894 358.875 411.574 358.906 411.26 358.862Z" fill="#E0E0E0"/>
<path d="M351.828 287.75L291.712 287.478L291.686 293.113L351.803 293.386L351.828 287.75Z" fill="#BA68C8"/>
<path opacity="0.2" d="M351.828 287.75L291.712 287.478L291.686 293.113L351.803 293.386L351.828 287.75Z" fill="white"/>
<path d="M297.148 348.434C297.11 348.948 296.922 349.439 296.608 349.848C296.293 350.256 295.866 350.563 295.378 350.731C294.891 350.898 294.365 350.919 293.866 350.791C293.367 350.662 292.916 350.39 292.57 350.008C292.224 349.625 291.998 349.15 291.92 348.641C291.842 348.131 291.915 347.61 292.13 347.142C292.346 346.673 292.694 346.278 293.131 346.006C293.569 345.734 294.077 345.596 294.592 345.609C295.304 345.649 295.972 345.968 296.45 346.497C296.929 347.025 297.179 347.721 297.148 348.434Z" fill="#BA68C8"/>
<path d="M305.289 348.472C305.314 348.833 305.265 349.194 305.144 349.535C305.023 349.875 304.834 350.187 304.588 350.451C304.341 350.715 304.043 350.926 303.712 351.07C303.381 351.214 303.024 351.288 302.662 351.288C302.301 351.288 301.944 351.214 301.613 351.07C301.282 350.926 300.983 350.715 300.737 350.451C300.491 350.187 300.301 349.875 300.181 349.535C300.06 349.194 300.011 348.833 300.036 348.472C300.011 348.112 300.06 347.75 300.181 347.41C300.301 347.069 300.491 346.757 300.737 346.493C300.983 346.229 301.282 346.019 301.613 345.875C301.944 345.731 302.301 345.656 302.662 345.656C303.024 345.656 303.381 345.731 303.712 345.875C304.043 346.019 304.341 346.229 304.588 346.493C304.834 346.757 305.023 347.069 305.144 347.41C305.265 347.75 305.314 348.112 305.289 348.472Z" fill="#BA68C8"/>
<path d="M313.442 348.511C313.405 349.025 313.217 349.517 312.902 349.925C312.588 350.333 312.16 350.64 311.673 350.808C311.185 350.976 310.659 350.996 310.16 350.868C309.661 350.739 309.211 350.467 308.865 350.085C308.519 349.703 308.293 349.227 308.215 348.718C308.136 348.208 308.209 347.687 308.425 347.219C308.64 346.75 308.988 346.356 309.426 346.083C309.863 345.811 310.371 345.673 310.886 345.686C311.597 345.729 312.263 346.049 312.741 346.577C313.219 347.105 313.47 347.799 313.442 348.511Z" fill="#BA68C8"/>
<path d="M321.583 348.549C321.546 349.063 321.358 349.555 321.043 349.963C320.729 350.371 320.301 350.678 319.814 350.846C319.326 351.014 318.8 351.034 318.301 350.906C317.802 350.777 317.351 350.505 317.006 350.123C316.66 349.741 316.434 349.265 316.355 348.756C316.277 348.246 316.35 347.725 316.566 347.257C316.781 346.788 317.129 346.394 317.566 346.121C318.004 345.849 318.512 345.711 319.027 345.725C319.738 345.767 320.404 346.087 320.882 346.615C321.359 347.143 321.611 347.837 321.583 348.549Z" fill="#BA68C8"/>
<path d="M329.724 348.574C329.689 349.089 329.503 349.582 329.19 349.992C328.877 350.402 328.45 350.711 327.962 350.881C327.475 351.05 326.949 351.073 326.448 350.946C325.948 350.819 325.497 350.547 325.149 350.165C324.802 349.783 324.575 349.308 324.496 348.798C324.417 348.288 324.489 347.766 324.704 347.297C324.919 346.828 325.268 346.433 325.706 346.16C326.144 345.887 326.652 345.749 327.168 345.763C327.877 345.806 328.54 346.124 329.018 346.649C329.495 347.174 329.749 347.865 329.724 348.574Z" fill="#BA68C8"/>
<path d="M337.878 348.613C337.843 349.126 337.659 349.616 337.349 350.025C337.038 350.434 336.615 350.744 336.132 350.916C335.648 351.087 335.124 351.114 334.626 350.992C334.127 350.87 333.675 350.605 333.325 350.229C332.975 349.854 332.742 349.384 332.656 348.878C332.57 348.372 332.633 347.852 332.838 347.381C333.044 346.911 333.382 346.51 333.812 346.23C334.242 345.949 334.744 345.8 335.258 345.802C335.978 345.828 336.658 346.139 337.149 346.666C337.64 347.193 337.902 347.893 337.878 348.613Z" fill="#BA68C8"/>
<path d="M346.018 348.651C346.044 349.011 345.994 349.373 345.874 349.713C345.753 350.054 345.564 350.366 345.318 350.63C345.071 350.894 344.773 351.105 344.442 351.249C344.111 351.393 343.753 351.467 343.392 351.467C343.031 351.467 342.674 351.393 342.342 351.249C342.011 351.105 341.713 350.894 341.467 350.63C341.221 350.366 341.031 350.054 340.911 349.713C340.79 349.373 340.741 349.011 340.766 348.651C340.741 348.291 340.79 347.929 340.911 347.589C341.031 347.248 341.221 346.936 341.467 346.672C341.713 346.408 342.011 346.197 342.342 346.053C342.674 345.909 343.031 345.835 343.392 345.835C343.753 345.835 344.111 345.909 344.442 346.053C344.773 346.197 345.071 346.408 345.318 346.672C345.564 346.936 345.753 347.248 345.874 347.589C345.994 347.929 346.044 348.291 346.018 348.651Z" fill="#BA68C8"/>
<path d="M354.159 348.69C354.125 349.202 353.941 349.692 353.63 350.102C353.32 350.511 352.897 350.82 352.413 350.992C351.93 351.163 351.406 351.19 350.908 351.068C350.409 350.946 349.957 350.681 349.607 350.305C349.257 349.93 349.024 349.46 348.938 348.954C348.851 348.448 348.915 347.928 349.12 347.457C349.325 346.987 349.664 346.587 350.094 346.306C350.524 346.025 351.026 345.877 351.54 345.878C352.259 345.905 352.939 346.215 353.43 346.742C353.921 347.269 354.184 347.97 354.159 348.69Z" fill="#BA68C8"/>
<path d="M362.3 348.729C362.265 349.243 362.079 349.736 361.766 350.147C361.453 350.557 361.026 350.866 360.539 351.035C360.051 351.205 359.525 351.227 359.025 351.1C358.525 350.973 358.073 350.701 357.726 350.32C357.379 349.938 357.151 349.462 357.072 348.952C356.993 348.442 357.066 347.921 357.281 347.451C357.496 346.982 357.844 346.587 358.282 346.314C358.72 346.041 359.228 345.903 359.744 345.917C360.453 345.96 361.116 346.278 361.594 346.803C362.071 347.328 362.325 348.019 362.3 348.729Z" fill="#BA68C8"/>
<g opacity="0.2">
<path opacity="0.2" d="M297.148 348.434C297.11 348.948 296.922 349.439 296.608 349.848C296.293 350.256 295.866 350.563 295.378 350.731C294.891 350.898 294.365 350.919 293.866 350.791C293.367 350.662 292.916 350.39 292.57 350.008C292.224 349.625 291.998 349.15 291.92 348.641C291.842 348.131 291.915 347.61 292.13 347.142C292.346 346.673 292.694 346.278 293.131 346.006C293.569 345.734 294.077 345.596 294.592 345.609C295.304 345.649 295.972 345.968 296.45 346.497C296.929 347.025 297.179 347.721 297.148 348.434Z" fill="white"/>
<path opacity="0.2" d="M305.289 348.472C305.314 348.833 305.265 349.194 305.144 349.535C305.023 349.875 304.834 350.187 304.588 350.451C304.341 350.715 304.043 350.926 303.712 351.07C303.381 351.214 303.024 351.288 302.662 351.288C302.301 351.288 301.944 351.214 301.613 351.07C301.282 350.926 300.983 350.715 300.737 350.451C300.491 350.187 300.301 349.875 300.181 349.535C300.06 349.194 300.011 348.833 300.036 348.472C300.011 348.112 300.06 347.75 300.181 347.41C300.301 347.069 300.491 346.757 300.737 346.493C300.983 346.229 301.282 346.019 301.613 345.875C301.944 345.731 302.301 345.656 302.662 345.656C303.024 345.656 303.381 345.731 303.712 345.875C304.043 346.019 304.341 346.229 304.588 346.493C304.834 346.757 305.023 347.069 305.144 347.41C305.265 347.75 305.314 348.112 305.289 348.472Z" fill="white"/>
<path opacity="0.2" d="M313.442 348.511C313.405 349.025 313.217 349.517 312.902 349.925C312.588 350.333 312.16 350.64 311.673 350.808C311.185 350.976 310.659 350.996 310.16 350.868C309.661 350.739 309.211 350.467 308.865 350.085C308.519 349.703 308.293 349.227 308.215 348.718C308.136 348.208 308.209 347.687 308.425 347.219C308.64 346.75 308.988 346.356 309.426 346.083C309.863 345.811 310.371 345.673 310.886 345.686C311.597 345.729 312.263 346.049 312.741 346.577C313.219 347.105 313.47 347.799 313.442 348.511Z" fill="white"/>
<path opacity="0.2" d="M321.583 348.549C321.546 349.063 321.358 349.555 321.043 349.963C320.729 350.371 320.301 350.678 319.814 350.846C319.326 351.014 318.8 351.034 318.301 350.906C317.802 350.777 317.351 350.505 317.006 350.123C316.66 349.741 316.434 349.265 316.355 348.756C316.277 348.246 316.35 347.725 316.566 347.257C316.781 346.788 317.129 346.394 317.566 346.121C318.004 345.849 318.512 345.711 319.027 345.725C319.738 345.767 320.404 346.087 320.882 346.615C321.359 347.143 321.611 347.837 321.583 348.549Z" fill="white"/>
<path opacity="0.2" d="M329.724 348.574C329.689 349.089 329.503 349.582 329.19 349.992C328.877 350.402 328.45 350.711 327.962 350.881C327.475 351.05 326.949 351.073 326.448 350.946C325.948 350.819 325.497 350.547 325.149 350.165C324.802 349.783 324.575 349.308 324.496 348.798C324.417 348.288 324.489 347.766 324.704 347.297C324.919 346.828 325.268 346.433 325.706 346.16C326.144 345.887 326.652 345.749 327.168 345.763C327.877 345.806 328.54 346.124 329.018 346.649C329.495 347.174 329.749 347.865 329.724 348.574Z" fill="white"/>
<path opacity="0.2" d="M337.878 348.612C337.843 349.125 337.659 349.615 337.349 350.024C337.039 350.433 336.616 350.743 336.132 350.915C335.648 351.086 335.125 351.113 334.626 350.991C334.127 350.869 333.675 350.604 333.325 350.228C332.975 349.853 332.743 349.383 332.656 348.877C332.57 348.371 332.633 347.851 332.839 347.38C333.044 346.91 333.382 346.51 333.812 346.229C334.242 345.948 334.745 345.799 335.258 345.801C335.978 345.827 336.658 346.138 337.149 346.665C337.64 347.192 337.902 347.892 337.878 348.612Z" fill="white"/>
<path opacity="0.2" d="M346.019 348.651C346.044 349.011 345.995 349.373 345.874 349.713C345.753 350.054 345.564 350.366 345.318 350.63C345.071 350.894 344.773 351.105 344.442 351.249C344.111 351.393 343.754 351.467 343.392 351.467C343.031 351.467 342.674 351.393 342.343 351.249C342.011 351.105 341.713 350.894 341.467 350.63C341.221 350.366 341.031 350.054 340.911 349.713C340.79 349.373 340.741 349.011 340.766 348.651C340.741 348.291 340.79 347.929 340.911 347.589C341.031 347.248 341.221 346.936 341.467 346.672C341.713 346.408 342.011 346.197 342.343 346.053C342.674 345.909 343.031 345.835 343.392 345.835C343.754 345.835 344.111 345.909 344.442 346.053C344.773 346.197 345.071 346.408 345.318 346.672C345.564 346.936 345.753 347.248 345.874 347.589C345.995 347.929 346.044 348.291 346.019 348.651Z" fill="white"/>
<path opacity="0.2" d="M354.16 348.69C354.125 349.202 353.941 349.692 353.631 350.102C353.32 350.511 352.897 350.82 352.414 350.992C351.93 351.163 351.406 351.19 350.908 351.068C350.409 350.946 349.957 350.681 349.607 350.305C349.257 349.93 349.024 349.46 348.938 348.954C348.852 348.448 348.915 347.928 349.12 347.457C349.326 346.987 349.664 346.587 350.094 346.306C350.524 346.025 351.026 345.877 351.54 345.878C352.26 345.905 352.94 346.215 353.431 346.742C353.922 347.269 354.184 347.97 354.16 348.69Z" fill="white"/>
<path opacity="0.2" d="M362.3 348.728C362.265 349.242 362.079 349.736 361.766 350.146C361.453 350.556 361.026 350.865 360.539 351.034C360.051 351.204 359.525 351.226 359.025 351.099C358.525 350.972 358.073 350.7 357.726 350.319C357.379 349.937 357.152 349.461 357.072 348.951C356.993 348.441 357.066 347.92 357.281 347.45C357.496 346.981 357.844 346.586 358.282 346.313C358.72 346.04 359.229 345.902 359.744 345.916C360.453 345.959 361.117 346.277 361.594 346.802C362.072 347.327 362.325 348.018 362.3 348.728Z" fill="white"/>
</g>
<path d="M350.734 164.236C351.622 163.845 352.375 163.201 352.9 162.386C353.425 161.57 353.699 160.618 353.687 159.648C353.72 159.017 353.624 158.386 353.405 157.794C353.187 157.202 352.85 156.66 352.415 156.202C351.981 155.744 351.458 155.379 350.877 155.13C350.297 154.881 349.672 154.752 349.041 154.752C348.41 154.752 347.785 154.881 347.205 155.13C346.624 155.379 346.101 155.744 345.667 156.202C345.232 156.66 344.895 157.202 344.677 157.794C344.458 158.386 344.362 159.017 344.395 159.648C344.376 160.627 344.647 161.591 345.175 162.416C345.703 163.242 346.463 163.893 347.36 164.287C340.204 165.36 340.523 173.131 340.523 173.131L357.444 173.207C357.444 173.207 357.84 165.296 350.734 164.236Z" fill="#BA68C8"/>
<path opacity="0.1" d="M350.734 164.236C351.622 163.845 352.375 163.201 352.9 162.386C353.425 161.57 353.699 160.618 353.687 159.648C353.72 159.017 353.624 158.386 353.405 157.794C353.187 157.202 352.85 156.66 352.415 156.202C351.981 155.744 351.458 155.379 350.877 155.13C350.297 154.881 349.672 154.752 349.041 154.752C348.41 154.752 347.785 154.881 347.205 155.13C346.624 155.379 346.101 155.744 345.667 156.202C345.232 156.66 344.895 157.202 344.677 157.794C344.458 158.386 344.362 159.017 344.395 159.648C344.376 160.627 344.647 161.591 345.175 162.416C345.703 163.242 346.463 163.893 347.36 164.287C340.204 165.36 340.523 173.131 340.523 173.131L357.444 173.207C357.444 173.207 357.84 165.296 350.734 164.236Z" fill="black"/>
<path d="M378.23 178.219L317.922 177.945L317.889 185.153L378.197 185.427L378.23 178.219Z" fill="#BA68C8"/>
<path opacity="0.2" d="M378.23 178.219L317.922 177.945L317.889 185.153L378.197 185.427L378.23 178.219Z" fill="white"/>
<path d="M156.517 215.573H155.916L154.178 215.701C153.237 215.758 152.302 215.882 151.379 216.072C150.781 216.156 150.188 216.271 149.603 216.417L147.622 216.966C144.25 218.001 141.069 219.576 138.203 221.631C134.416 224.38 131.254 227.899 128.925 231.957C127.555 234.297 126.466 236.789 125.678 239.382C124.851 242.201 124.374 245.112 124.26 248.047C124.184 249.589 124.209 251.135 124.337 252.674C124.337 253.453 124.554 254.233 124.656 255.025C124.742 255.824 124.892 256.615 125.103 257.389C126.253 262.518 128.584 267.307 131.913 271.374C135.241 275.441 139.474 278.674 144.273 280.815C147.747 282.314 151.47 283.151 155.251 283.282C159.157 283.497 163.066 282.936 166.753 281.633L167.878 281.211H168.031L168.159 281.288L184.275 289.467L183.802 289.876C182.077 284.534 180.415 279.358 178.805 274.387V274.195L178.945 274.055C182.855 270.117 185.757 265.295 187.406 259.997C188.899 255.153 189.335 250.045 188.684 245.018C188.105 240.551 186.668 236.238 184.454 232.315C182.545 228.945 180.082 225.921 177.169 223.369C174.766 221.349 172.106 219.656 169.258 218.334C167.104 217.405 164.86 216.698 162.562 216.225L160.006 215.803L158.152 215.663L157.028 215.586H156.644C156.772 215.572 156.9 215.572 157.028 215.586H158.165L160.018 215.663L162.574 216.033C164.901 216.472 167.176 217.153 169.36 218.065C172.257 219.372 174.965 221.061 177.412 223.088C180.378 225.629 182.893 228.653 184.85 232.034C187.127 235.999 188.608 240.371 189.208 244.903C189.913 250.008 189.508 255.204 188.019 260.137C186.36 265.545 183.413 270.47 179.431 274.489L179.508 274.157C181.118 279.128 182.792 284.304 184.53 289.633L184.773 290.413L184.045 290.042L167.929 281.876H168.21L167.06 282.298C163.301 283.62 159.32 284.193 155.341 283.985C151.478 283.838 147.677 282.971 144.133 281.429C137.372 278.533 131.747 273.501 128.119 267.102C126.45 264.147 125.231 260.96 124.503 257.645C124.303 256.85 124.154 256.043 124.055 255.23C123.953 254.425 123.787 253.632 123.749 252.84C123.403 248.292 123.883 243.72 125.167 239.344C125.974 236.715 127.094 234.192 128.503 231.829C130.888 227.734 134.116 224.193 137.973 221.439C140.886 219.379 144.121 217.816 147.545 216.813L149.551 216.302C150.142 216.165 150.739 216.058 151.341 215.982C152.273 215.81 153.217 215.707 154.165 215.676L155.916 215.612C156.115 215.585 156.316 215.572 156.517 215.573Z" fill="#BA68C8"/>
<path d="M163.801 245.376H161.437L156.325 238.193V233.478C156.325 233.478 152.67 233.248 153.104 239.42C153.539 245.593 153.104 244.021 153.104 244.021C153.104 244.021 145.347 244.021 144.708 244.724C144.069 245.427 144.031 252.916 143.941 257.095C143.892 258.103 144.181 259.097 144.762 259.922C145.344 260.746 146.184 261.353 147.149 261.645C147.419 261.72 147.699 261.758 147.98 261.76C149.922 261.76 159.801 260.188 159.801 260.188H163.878L163.801 245.376Z" fill="#BA68C8"/>
<path d="M170.562 244.111L169.105 260.265H165.066V244.444L170.562 244.111Z" fill="#BA68C8"/>
<path d="M218.73 572.978V562.051L199.138 561.91L198.972 578.435L200.186 578.524C205.592 578.869 227.689 579.38 231.318 578.256C235.357 577.003 218.73 572.978 218.73 572.978Z" fill="#BA68C8"/>
<path d="M231.778 577.234C231.778 577.413 224.442 577.566 215.407 577.566C206.371 577.566 199.036 577.413 199.036 577.234C199.036 577.055 206.371 576.901 215.407 576.901C224.442 576.901 231.778 577.055 231.778 577.234Z" fill="#263238"/>
<path d="M219.075 575.214C218.909 575.125 219.075 574.55 219.471 573.936C219.867 573.323 220.404 573.067 220.532 573.195C220.659 573.323 220.391 573.809 220.008 574.333C219.624 574.857 219.241 575.304 219.075 575.214Z" fill="#263238"/>
<path d="M220.327 575.93C220.148 575.93 220.238 575.214 220.621 574.537C221.005 573.859 221.516 573.45 221.656 573.553C221.797 573.655 221.567 574.23 221.209 574.831C220.851 575.431 220.493 575.994 220.327 575.93Z" fill="#263238"/>
<path d="M204.94 577.183C204.863 577.183 204.569 576.953 204.148 576.467C203.633 575.843 203.059 575.269 202.435 574.754C201.821 574.264 201.09 573.942 200.314 573.821C199.713 573.745 199.33 573.821 199.291 573.745C199.253 573.668 199.624 573.4 200.326 573.349C201.254 573.329 202.159 573.637 202.882 574.218C203.56 574.77 204.132 575.441 204.569 576.198C204.863 576.761 205.017 577.131 204.94 577.183Z" fill="#263238"/>
<path d="M219.139 573.157C219.228 573.311 218.896 573.694 218.334 573.899C217.771 574.103 217.273 574.026 217.247 573.899C217.222 573.771 217.618 573.502 218.104 573.323C218.589 573.145 219.036 573.004 219.139 573.157Z" fill="#263238"/>
<path d="M218.832 572.097C218.832 572.288 218.321 572.442 217.656 572.454C216.992 572.467 216.468 572.314 216.48 572.135C216.493 571.956 217.017 571.79 217.656 571.777C218.295 571.764 218.806 571.918 218.832 572.097Z" fill="#263238"/>
<path d="M266.974 572.978V562.051L247.382 561.91L247.216 578.269L248.43 578.358C253.836 578.703 275.946 579.38 279.562 578.256C283.601 577.003 266.974 572.978 266.974 572.978Z" fill="#BA68C8"/>
<path d="M280.023 577.259C280.023 577.438 272.7 577.591 263.651 577.591C254.603 577.591 247.293 577.438 247.293 577.259C247.293 577.08 254.616 576.927 263.651 576.927C272.687 576.927 280.023 577.08 280.023 577.259Z" fill="#263238"/>
<path d="M267.319 575.214C267.166 575.125 267.319 574.55 267.715 573.936C268.112 573.323 268.648 573.067 268.776 573.195C268.904 573.323 268.636 573.809 268.252 574.333C267.869 574.857 267.485 575.304 267.319 575.214Z" fill="#263238"/>
<path d="M268.572 575.93C268.406 575.93 268.482 575.214 268.878 574.537C269.275 573.859 269.773 573.45 269.914 573.553C270.054 573.655 269.811 574.23 269.453 574.831C269.096 575.431 268.751 575.994 268.572 575.93Z" fill="#263238"/>
<path d="M253.185 577.183C253.108 577.183 252.827 576.953 252.392 576.467C251.877 575.843 251.304 575.269 250.68 574.754C250.066 574.264 249.335 573.942 248.558 573.821C247.97 573.745 247.574 573.821 247.536 573.745C247.498 573.668 247.868 573.4 248.571 573.349C249.499 573.329 250.404 573.637 251.127 574.218C251.808 574.766 252.381 575.438 252.814 576.198C253.108 576.761 253.261 577.131 253.185 577.183Z" fill="#263238"/>
<path d="M267.383 573.157C267.473 573.311 267.14 573.694 266.578 573.899C266.016 574.103 265.517 574.026 265.492 573.899C265.466 573.771 265.862 573.502 266.348 573.323C266.834 573.145 267.281 573.004 267.383 573.157Z" fill="#263238"/>
<path d="M267.102 572.097C267.102 572.288 266.591 572.442 265.926 572.454C265.262 572.467 264.751 572.314 264.763 572.135C264.776 571.956 265.287 571.79 265.926 571.777C266.565 571.764 267.102 571.918 267.102 572.097Z" fill="#263238"/>
<path d="M339.156 248.494C338.644 247.97 337.379 248.226 337.379 248.226C337.506 247.49 337.506 246.738 337.379 246.002C337.149 245.286 335.539 245.427 335.539 245.427C335.465 244.824 335.465 244.215 335.539 243.612C335.552 243.478 335.523 243.344 335.457 243.228C335.39 243.111 335.29 243.018 335.168 242.96C334.406 242.65 333.588 242.502 332.766 242.526C331.782 241.823 335.769 236.238 337.251 234.449C338.734 232.66 338.466 231.267 337.149 231.267C336.242 231.267 331.59 236.634 330.159 238.436C328.727 240.238 324.932 245.248 324.804 241.248C324.676 237.248 323.066 234.232 322.056 233.72C321.046 233.209 319.973 234.41 320.522 235.522C321.005 236.786 321.306 238.111 321.417 239.459C321.556 240.532 321.508 241.622 321.276 242.679C320.853 244.647 320.276 246.578 319.551 248.456H319.449C319.449 248.456 291.563 275.204 289.544 277.108C287.742 278.821 251.498 275.076 244.226 274.31C241.755 273.948 239.26 273.777 236.762 273.798C233.606 273.939 233.043 274.386 229.899 274.425C221.96 274.513 214.039 275.209 206.205 276.508C202.658 277.111 199.345 278.676 196.627 281.034C193.909 283.391 191.891 286.45 190.793 289.876C183.47 312.752 166.881 366.901 163.955 397.317C161.743 401.328 159.747 405.453 157.974 409.675C155.916 415.273 156.414 415.465 157.105 415.593C158.97 415.938 161.092 405.893 161.884 408.321C162.677 410.749 157.859 420.296 159.814 420.577C162.37 420.935 164.402 410.353 164.645 409.509C164.888 408.666 166.153 408.934 165.923 409.727C165.552 410.851 161.961 422.775 164.466 423.158C165.846 423.363 165.999 420.845 165.999 420.845C165.999 420.845 168.555 409.433 169.718 409.663C170.881 409.893 169.642 416.628 169.054 418.877C168.466 421.126 169.284 422.264 170.485 421.714C171.303 421.331 173.258 414.493 173.795 412.27C174.332 410.046 175.674 403.886 177.476 407.452C179.278 411.017 182.013 413.088 183.137 413.139C183.391 413.11 183.63 413.005 183.823 412.839C184.017 412.673 184.156 412.453 184.224 412.207C184.291 411.961 184.283 411.7 184.201 411.458C184.119 411.217 183.967 411.005 183.764 410.851C182.796 409.907 181.966 408.831 181.297 407.656C180.701 406.741 180.268 405.729 180.019 404.666C179.504 402.546 179.204 400.379 179.125 398.199L178.92 396.921C181.783 382.748 190.026 341.149 201.924 314.579L206.806 324.624L208.927 332.062L195.917 364.179L251.408 363.45L243.127 331.577L253.185 298.349C264.06 298.592 291.985 299.001 296.637 296.892C302.49 294.336 332.766 256.098 332.766 256.098C334.739 254.565 336.629 252.926 338.427 251.191C338.427 251.191 340.268 249.644 339.156 248.494Z" fill="#FFBE9D"/>
<path d="M193.477 340.446C195.087 334.951 203.355 307.781 203.355 307.781C203.355 307.781 207.42 329.928 206.346 332.599C205.359 334.886 204.192 337.091 202.857 339.194C193.477 353.469 194.703 360.613 194.703 360.613L251.383 358.888C251.511 350.964 246.82 332.536 245.849 329.596C244.878 326.657 248.111 317.033 248.111 317.033C248.111 317.033 254.501 310.528 254.271 307.18C254.15 304.172 253.778 301.18 253.159 298.234L287.665 299.512L286.579 276.125L237.018 271.166C235.293 276.035 219.688 273.645 219.688 273.645C202.844 274.208 201.796 277.3 194.793 282.745C187.789 288.189 176.198 334.913 176.198 334.913L193.477 340.446Z" fill="#BA68C8"/>
<path d="M226.986 334.912C226.003 335.087 225.003 335.139 224.008 335.065C222.155 335.065 219.612 334.937 216.813 334.656C214.014 334.375 211.484 333.979 209.682 333.621C208.688 333.493 207.714 333.244 206.781 332.88C207.78 332.88 208.777 332.974 209.758 333.161C211.573 333.391 214.091 333.711 216.877 333.992C219.663 334.273 222.193 334.465 224.021 334.592C225.017 334.605 226.01 334.712 226.986 334.912Z" fill="#263238"/>
<path d="M230.871 330.094C229.888 330.575 228.849 330.931 227.778 331.154C222.679 332.494 217.419 333.118 212.148 333.008C211.057 333.043 209.967 332.94 208.902 332.701C209.978 332.565 211.063 332.509 212.148 332.535C214.154 332.471 216.915 332.33 219.957 331.972C222.998 331.615 225.708 331.103 227.625 330.694C228.689 330.41 229.775 330.209 230.871 330.094Z" fill="#263238"/>
<path d="M249.939 308.599C249.913 309.573 249.78 310.542 249.542 311.487C249.21 313.263 248.699 315.692 248.047 318.35C247.395 321.008 246.769 323.462 246.207 325.123C245.981 326.074 245.646 326.996 245.21 327.871C245.281 326.9 245.461 325.939 245.747 325.008C246.232 323.014 246.782 320.714 247.395 318.196C248.009 315.679 248.597 313.378 249.082 311.385C249.255 310.425 249.543 309.49 249.939 308.599Z" fill="#263238"/>
<path d="M194.077 337.188C191.12 336.731 188.202 336.052 185.348 335.155C182.432 334.474 179.57 333.576 176.786 332.472C179.741 332.936 182.658 333.615 185.514 334.504C188.432 335.183 191.294 336.08 194.077 337.188Z" fill="#263238"/>
<path d="M253.772 297.952C253.29 298.035 252.798 298.035 252.316 297.952C250.981 297.815 249.67 297.501 248.418 297.019C246.327 296.234 244.424 295.019 242.83 293.454C241.237 291.89 239.988 290.009 239.165 287.933C238.255 285.649 237.866 283.191 238.027 280.737C238.084 278.714 238.69 276.744 239.778 275.038C240.544 273.888 241.688 273.042 243.012 272.648C243.365 272.55 243.731 272.503 244.098 272.507C244.354 272.507 244.481 272.507 244.481 272.507C244.481 272.507 243.945 272.507 243.088 272.852C241.874 273.301 240.844 274.142 240.162 275.242C238.424 277.977 237.938 282.974 239.791 287.639C240.654 289.838 242.004 291.813 243.74 293.415C245.163 294.726 246.802 295.781 248.584 296.534C250.256 297.195 251.996 297.67 253.772 297.952Z" fill="#263238"/>
<path d="M283.563 299.052C283.243 295.133 283.14 291.199 283.256 287.268C283.156 283.341 283.275 279.412 283.614 275.498C283.934 279.413 284.036 283.342 283.92 287.268C284.028 291.2 283.908 295.134 283.563 299.052Z" fill="#263238"/>
<path d="M236.686 272.596C236.826 269.747 237.12 266.526 237.12 266.526C237.12 266.526 244.175 265.746 244.596 258.462C245.018 251.177 244.596 234.371 244.596 234.371L231.816 227.828L217.631 238.985L219.816 275.408L232.826 276.239C233.82 276.266 234.785 275.898 235.509 275.216C236.232 274.533 236.656 273.591 236.686 272.596Z" fill="#FFBE9D"/>
<path d="M237.951 252.699C237.951 252.699 237.951 252.839 237.836 253.005C237.741 253.126 237.618 253.221 237.478 253.284C237.337 253.346 237.184 253.373 237.031 253.363C236.213 253.363 235.42 252.417 235.139 251.318C235.006 250.786 235.006 250.228 235.139 249.695C235.166 249.463 235.249 249.24 235.383 249.049C235.517 248.857 235.697 248.701 235.906 248.596C236.078 248.525 236.271 248.525 236.443 248.596C236.57 248.659 236.674 248.763 236.737 248.89C236.826 249.107 236.737 249.248 236.737 249.235C236.737 249.222 236.737 249.107 236.609 248.98C236.542 248.888 236.444 248.824 236.333 248.801C236.222 248.777 236.107 248.795 236.008 248.852C235.852 248.947 235.721 249.08 235.63 249.238C235.538 249.397 235.488 249.576 235.484 249.759C235.377 250.235 235.377 250.728 235.484 251.203C235.74 252.2 236.43 253.005 237.044 253.082C237.164 253.098 237.286 253.09 237.402 253.057C237.519 253.024 237.627 252.967 237.721 252.89C237.874 252.788 237.925 252.686 237.951 252.699Z" fill="#EB996E"/>
<path d="M248.98 230.436C247.996 227.087 244.43 225.426 241.184 224.506C236.238 223.1 230.896 222.487 226.065 224.263C221.235 226.039 215.432 229.158 215.432 234.487C212.583 234.257 210.947 236.749 209.822 239.842C209.103 241.726 208.672 243.708 208.544 245.721C208.186 252.698 206.231 262.335 201.707 267.447C199.151 270.297 195.611 272.265 194.154 275.818C192.876 278.898 193.54 282.553 192.352 285.671C191.291 288.419 188.952 290.374 187.24 292.764C185.495 295.475 184.468 298.585 184.256 301.802C184.044 305.019 184.653 308.237 186.026 311.154C187.409 313.996 189.356 316.527 191.749 318.593C194.141 320.658 196.929 322.214 199.943 323.167C205.913 324.984 212.279 325.046 218.282 323.346C222.788 322.269 226.992 320.185 230.577 317.25C234.245 314.255 236.765 310.083 237.708 305.442C238.615 300.227 237.158 294.924 236.072 289.735C232.673 273.338 233.644 272.482 237.938 257.261C238.04 256.993 238.091 256.711 238.168 256.443C238.245 256.175 238.283 256.047 238.334 255.842C238.456 255.241 238.52 254.629 238.526 254.015C237.899 254.248 237.218 254.297 236.564 254.157C235.909 254.017 235.309 253.692 234.833 253.222C234.355 252.721 234.022 252.1 233.869 251.425C233.716 250.75 233.749 250.046 233.963 249.388C234.265 248.669 234.714 248.021 235.282 247.486C235.85 246.951 236.524 246.541 237.261 246.283C238.679 245.695 240.2 245.388 241.593 244.737C244.545 243.331 246.59 240.417 247.983 237.362C249.128 235.246 249.482 232.79 248.98 230.436Z" fill="#263238"/>
<path d="M238.462 253.044C238.732 253.443 238.955 253.872 239.127 254.322C239.51 255.127 240.021 256.265 240.583 257.581L240.686 257.824H240.417L239.139 257.939C238.257 257.939 237.516 258.105 236.647 258.092C236.572 258.075 236.501 258.039 236.443 257.988C236.385 257.936 236.341 257.871 236.315 257.798C236.277 257.682 236.277 257.557 236.315 257.44C236.344 257.268 236.383 257.097 236.43 256.929L236.66 256.022C236.776 255.416 236.956 254.825 237.197 254.258C237.173 254.875 237.083 255.488 236.928 256.086L236.749 256.993C236.686 257.3 236.571 257.773 236.749 257.734C237.388 257.734 238.296 257.594 239.139 257.543L240.417 257.427L240.251 257.709C239.702 256.431 239.242 255.229 238.973 254.399C238.738 253.974 238.565 253.518 238.462 253.044Z" fill="#BA68C8"/>
<path d="M194.703 360.613L251.383 358.888L276.048 455.172L271.511 565.617H241.542L245.21 457.524L223.292 390.493L226.666 569.898L196.378 570.346L193.195 401.713C193.055 397.023 191.521 386.454 192.096 381.802L194.703 360.613Z" fill="#263238"/>
<path d="M230.832 391.86C229.905 391.918 228.973 391.863 228.059 391.694C226.347 391.489 224.008 391.132 221.439 390.62C218.87 390.109 216.57 389.521 214.909 389.048C214.02 388.853 213.161 388.544 212.353 388.128C212.353 387.937 216.519 388.933 221.631 389.969C226.743 391.004 230.858 391.668 230.832 391.86Z" fill="#455A64"/>
<path d="M271.204 559.559C271.204 559.738 264.418 559.891 256.047 559.891C247.676 559.891 240.877 559.738 240.877 559.559C240.877 559.38 247.664 559.227 256.047 559.227C264.431 559.227 271.204 559.367 271.204 559.559Z" fill="#455A64"/>
<path d="M226.398 565.234C226.398 565.425 219.803 565.566 211.675 565.566C203.547 565.566 196.965 565.425 196.965 565.234C196.965 565.042 203.56 564.901 211.675 564.901C219.79 564.901 226.398 565.055 226.398 565.234Z" fill="#455A64"/>
<path d="M222.487 564.774C222.308 564.774 221.516 525.577 220.711 477.231C219.905 428.884 219.433 389.662 219.599 389.662C219.765 389.662 220.583 428.846 221.375 477.218C222.168 525.59 222.679 564.774 222.487 564.774Z" fill="#455A64"/>
<path d="M267.179 559.559C267.165 559.385 267.165 559.21 267.179 559.036V557.502C267.179 556.122 267.281 554.141 267.358 551.623C267.536 546.511 267.792 539.086 268.112 529.987C268.802 511.686 269.773 486.458 270.834 458.61C270.834 458.342 270.834 458.086 270.834 457.856V457.946C264.124 431.108 258.054 406.749 253.645 389.125L248.533 368.281C247.945 365.84 247.497 363.936 247.178 362.607C247.025 361.981 246.922 361.495 246.833 361.124C246.783 360.958 246.753 360.787 246.743 360.613C246.81 360.774 246.861 360.941 246.897 361.112C246.999 361.47 247.127 361.955 247.306 362.569C247.651 363.847 248.149 365.789 248.788 368.217C250.066 373.15 251.868 380.256 254.117 389.01C258.565 406.621 264.699 430.916 271.498 457.792V457.882C271.498 458.112 271.498 458.38 271.498 458.636C270.361 486.483 269.326 511.698 268.572 529.999C268.175 539.111 267.843 546.486 267.613 551.623C267.485 554.179 267.383 556.122 267.319 557.502C267.319 558.154 267.243 558.665 267.23 559.036C267.232 559.212 267.214 559.387 267.179 559.559Z" fill="#455A64"/>
<path d="M257.402 455.606C255.249 456.314 253.032 456.807 250.782 457.076C248.021 457.549 245.67 457.881 244.609 457.932V457.677C244.954 457.779 245.133 457.843 245.133 457.894C245.133 457.945 244.916 457.894 244.558 457.894H243.791L244.558 457.664C245.555 457.37 247.906 456.884 250.667 456.386C252.881 455.906 255.137 455.645 257.402 455.606Z" fill="#455A64"/>
<path d="M256.878 459.274C254.885 459.365 252.887 459.275 250.91 459.006C248.913 458.965 246.925 458.747 244.967 458.354C248.961 458.028 252.981 458.339 256.878 459.274Z" fill="#455A64"/>
<path opacity="0.2" d="M194.46 362.645C195.132 363.507 195.977 364.218 196.942 364.731C197.906 365.244 198.968 365.548 200.058 365.623C202.341 365.893 204.65 365.85 206.921 365.495C221.554 363.872 237.056 362.377 251.383 358.888C232.839 359.923 213.247 359.578 194.703 360.613L194.512 362.198" fill="black"/>
<g opacity="0.2">
<path opacity="0.2" d="M213.567 388.78L224.021 429.344L223.292 390.493L213.567 388.78Z" fill="black"/>
</g>
</svg>
